<svg id="evsg0ff0zs8b1" xmlns="http://www.w3.org/2000/svg" xmlns:xlink="http://www.w3.org/1999/xlink" viewBox="0 0 370 290" shape-rendering="geometricPrecision" text-rendering="geometricPrecision" width="370" height="290"><g id="evsg0ff0zs8b2"><path id="evsg0ff0zs8b3" d="M185,290L121,290L121,192C121,147.339000,146,141,146,141C158.452000,140.344000,185,140,185,140C185,140,211.548000,140.344000,224,141C224,141,249,147.339000,249,192L249,290L185,290Z" fill="rgb(255,255,255)" fill-rule="evenodd" stroke="none" stroke-width="1"/><path id="evsg0ff0zs8b4" d="M235,202.500000C235,210.508129,228.508129,217,220.500000,217C212.491871,217,206,210.508129,206,202.500000L206,185L235,185L235,202.500000Z" fill="rgb(221,221,221)" fill-rule="evenodd" stroke="none" stroke-width="1"/><path id="evsg0ff0zs8b5" d="M235,200.500000C235,208.508129,228.508129,215,220.500000,215C212.491871,215,206,208.508129,206,200.500000L206,183L235,183L235,200.500000Z" fill="rgb(245,245,245)" fill-rule="evenodd" stroke="none" stroke-width="1"/><path id="evsg0ff0zs8b6" d="M223.220000,186C223.220000,186,215.520000,200.948000,215.320000,204.271000C215.120000,207.594000,216.852000,205.271000,217.095000,204.309000C217.338000,203.347000,218.005000,200.490000,218.962000,197.462000C219.962000,194.287000,223.222000,186,223.222000,186M225.922000,191.050000C225.922000,191.050000,220.592000,202.136000,220.513000,204.578000C220.434000,207.020000,221.657000,205.289000,221.813000,204.578000C221.969000,203.867000,222.399000,201.762000,223.036000,199.526000C223.706000,197.181000,225.919000,191.050000,225.919000,191.050000M227.525000,195.678000C227.525000,195.678000,223.894000,203.233000,223.840000,204.895000C223.786000,206.557000,224.620000,205.380000,224.728000,204.895000C224.836000,204.410000,225.128000,202.977000,225.562000,201.453000C226.018000,199.853000,227.525000,195.678000,227.525000,195.678000M230,198.948000L212,198.948000L212,198.809000L230,198.809000L230,198.948000Z" fill="rgb(88,89,91)" fill-rule="evenodd" stroke="none" stroke-width="1"/><rect id="evsg0ff0zs8b7" width="2" height="67" rx="0" ry="0" transform="matrix(1 0 0 1 184 223)" fill="rgb(221,221,221)" stroke="none" stroke-width="1"/></g><g id="evsg0ff0zs8b8"><path id="evsg0ff0zs8b9" d="M208,139L185,161L162,139C168.300000,133.248000,168,118,168,118L202,118C202,118,201.700000,133.248000,208,139Z" fill="rgb(249,161,123)" fill-rule="evenodd" stroke="none" stroke-width="1"/><path id="evsg0ff0zs8b10" d="M185,118L202,118C201.988005,122.423437,202.554474,126.829454,203.685000,131.106000C194.580000,139.500000,185,139,185,139C185,139,175.417000,139.500000,166.333000,131.043000C167.450595,126.785760,168.010941,122.401476,168,118L185,118Z" fill="rgb(235,152,116)" fill-rule="evenodd" stroke="none" stroke-width="1"/><path id="evsg0ff0zs8b11" d="M219.152000,85C214.445000,132.571000,185,131,185,131C185,131,155.686000,132.571000,151,85C151,85,141.619000,27,185,27C228.576000,27,219.152000,85,219.152000,85Z" fill="rgb(249,161,123)" fill-rule="evenodd" stroke="none" stroke-width="1"/><path id="evsg0ff0zs8b12" d="M218.641000,84.746000C214.391000,127.692000,190.269000,131.159000,185.007000,131.402000L185.007000,131.413000C185.007000,131.413000,184.829000,131.423000,184.500000,131.413000C184.171000,131.403000,183.993000,131.413000,183.993000,131.413000L183.993000,131.400000C178.731000,131.157000,154.609000,127.690000,150.360000,84.744000C149.833521,81.046773,149.547587,77.319270,149.504000,73.585000L152.400000,73.585000C152.400000,73.585000,158.180000,104.618000,170.743000,106.063000C170.743000,106.063000,174.643000,102.351000,183.995000,102.022000L183.995000,101.991000C184.170000,101.991000,184.330000,102.004000,184.502000,102.007000C184.674000,102.010000,184.834000,101.991000,185.009000,101.991000L185.009000,102.022000C194.363000,102.351000,198.261000,106.063000,198.261000,106.063000C210.822000,104.620000,216.600000,73.587000,216.600000,73.587000L219.500000,73.587000C219.455074,77.321320,219.168139,81.048800,218.641000,84.746000Z" opacity="0.15" fill="rgb(0,0,0)" fill-rule="evenodd" stroke="none" stroke-width="1"/><path id="evsg0ff0zs8b13" d="M151,70C151,70,164.455000,58.600000,170,55C170,55,195.572000,63.408000,215,67L215,41L150,41Z" fill="rgb(235,152,116)" fill-rule="evenodd" stroke="none" stroke-width="1"/><path id="evsg0ff0zs8b14" d="M150,86C150,86,151.053000,88.055000,152,86C152.947000,83.945000,151.523000,70.212000,152,69C152.477000,67.788000,154.727000,59.823000,161,55C163.969373,52.935179,165.815575,49.612015,166,46C166.184425,42.387985,182.986000,54.587000,202,57C202,57,217.100000,67.530000,218,87C218,87,218.741000,90.280000,220,87C223.866736,85.078606,227.276674,82.350656,230,79C234.878000,72.800000,229.622000,63.900000,232,59C234.378000,54.100000,235.181000,43.446000,226,33C216.819000,22.554000,210.626000,8.945000,185,17C181.959979,18.797762,178.527593,19.827478,175,20C171.472407,20.172522,155.656000,14.813000,148,23C140.344000,31.187000,137.570000,36.185000,141,46C144.430000,55.815000,140,61.200000,140,62C140,62.800000,139.606000,75.686000,150,83L150,86Z" fill="rgb(55,64,72)" fill-rule="evenodd" stroke="none" stroke-width="1"/><path id="evsg0ff0zs8b15" d="M166,32C166,32,176.074000,16.676000,197,25C217.926000,33.324000,212.280000,49.492000,221,62C221,62,211.912000,51.023000,209,45C206.088000,38.977000,186.247000,26.100000,172,36C172,36,164.565000,41.162000,166,32Z" fill="rgb(75,83,91)" fill-rule="evenodd" stroke="none" stroke-width="1"/><path id="evsg0ff0zs8b16" d="M227.387000,90.700000C222.950000,106.890000,215,103.749000,215,103.749000L218.100000,85.686000C221.153000,82.646000,221.200000,77.658000,221.200000,77.658000C230.877000,73.448000,227.387000,90.700000,227.387000,90.700000ZM143,91C143,91,139.619000,73.800000,149,78C149,78,149.042000,82.971000,152,86L155,104C155,104,147.300000,107.130000,143,91Z" fill="rgb(249,161,123)" fill-rule="evenodd" stroke="none" stroke-width="1"/></g><g id="evsg0ff0zs8b17"><path id="evsg0ff0zs8b18" d="M178.650000,72.100000C178.650000,72.100000,168.893000,68.185000,164.190000,69.124000C159.487000,70.063000,157.652000,75.218000,160.005000,74.993000C162.358000,74.768000,176.310000,73.305000,177.419000,74.213000C177.419000,74.216000,179.905000,74.424000,178.650000,72.100000Z" fill="rgb(55,64,72)" fill-rule="evenodd" stroke="none" stroke-width="1"/><path id="evsg0ff0zs8b19" d="M191.350000,72.100000C191.350000,72.100000,201.107000,68.185000,205.810000,69.124000C210.513000,70.063000,212.348000,75.222000,210,75C207.652000,74.778000,193.695000,73.312000,192.586000,74.220000C192.581000,74.216000,190.100000,74.424000,191.350000,72.100000Z" fill="rgb(55,64,72)" fill-rule="evenodd" stroke="none" stroke-width="1"/><ellipse id="evsg0ff0zs8b20" rx="3" ry="4" transform="matrix(1 0 0 1 170 80.99999999999999)" fill="rgb(78,55,55)" stroke="none" stroke-width="1"/><ellipse id="evsg0ff0zs8b21" rx="3" ry="4" transform="matrix(1 0 0 1 200 81.00000000000001)" fill="rgb(78,55,55)" stroke="none" stroke-width="1"/><path id="evsg0ff0zs8b22" d="M184.622000,100C184.459521,99.999637,184.299335,99.961644,184.154000,99.889000C183.944000,99.783000,183.648000,99.671000,183.310000,99.540000C181.877000,98.985000,179.710000,98.147000,179.134000,96.409000C178.844434,95.403852,179.045660,94.321014,179.677000,93.487000C180.693000,91.921000,182.635000,83.087000,183.619000,77.893000C183.728719,77.345283,184.259303,76.988287,184.808000,77.093000C185.071151,77.137189,185.305728,77.284715,185.459541,77.502758C185.613354,77.720801,185.673645,77.991273,185.627000,78.254000C185.359000,79.669000,182.963000,92.148000,181.402000,94.554000C181.113553,94.897487,180.993956,95.352031,181.076000,95.793000C181.358000,96.640000,183.051000,97.293000,184.063000,97.687000C184.475000,97.847000,184.834000,97.987000,185.092000,98.118000C185.330501,98.235583,185.511468,98.444425,185.593917,98.697231C185.676366,98.950036,185.653320,99.225415,185.530000,99.461000C185.350446,99.794898,185.001107,100.002270,184.622000,100Z" fill="rgb(212,137,105)" fill-rule="evenodd" stroke="none" stroke-width="1"/><path id="evsg0ff0zs8b23" d="M195,108C195,114.627000,190.075000,120,184,120C177.925000,120,173,114.627000,173,108" fill="rgb(152,98,75)" fill-rule="evenodd" stroke="none" stroke-width="1"/><path id="evsg0ff0zs8b24" d="M173,108C172.966000,107.682000,195,108,195,108C194.858421,109.054018,194.519148,110.071838,194,111C193.480852,111.928162,183.194000,112.922000,174,111C174,111,173.379000,111.572000,173,108Z" fill="rgb(255,255,255)" fill-rule="evenodd" stroke="none" stroke-width="1"/></g><g id="evsg0ff0zs8b25"><path id="evsg0ff0zs8b26" d="M185,226L165,154L205,154Z" fill="rgb(79,152,163)" fill-rule="evenodd" stroke="none" stroke-width="1"/><path id="evsg0ff0zs8b27" d="M185,226L176.740000,196.264000L181,169L189,169L193.260000,196.264000Z" fill="rgb(10,59,105)" fill-rule="evenodd" stroke="none" stroke-width="1"/><path id="evsg0ff0zs8b28" d="M193,163C193,167.418278,189.418278,171,185,171C180.581722,171,177,167.418278,177,163L177,156L193,156L193,163Z" fill="rgb(12,72,129)" fill-rule="evenodd" stroke="none" stroke-width="1"/><path id="evsg0ff0zs8b29" d="M196,171C193.306446,165.059216,189.582298,159.642273,185,155L208,131C217.278000,133.859000,220,141,220,141C218.536000,143.333000,196,171,196,171ZM150,141C150,141,152.722000,133.859000,162,131L185,155C180.417702,159.642273,176.693554,165.059216,174,171C171.306446,176.940784,151.463000,143.333000,150,141Z" fill="rgb(92,178,191)" fill-rule="evenodd" stroke="none" stroke-width="1"/></g><g id="evsg0ff0zs8b30"><path id="evsg0ff0zs8b31" d="M136,196L145,142C145,142,114.987000,154.835000,113,157C111.013000,159.165000,88.053000,223.171000,90,237C90,237,84.800000,254.100000,99,257C99,257,118.118000,262.100000,136,196Z" fill="rgb(255,255,255)" fill-rule="evenodd" stroke="none" stroke-width="1"/><path id="evsg0ff0zs8b32" d="M136,196C136,196,131.063000,221.881000,125,236L121,261L121,234C121,234,135.416000,197.020000,136,196Z" fill="rgb(221,221,221)" fill-rule="evenodd" stroke="none" stroke-width="1"/><path id="evsg0ff0zs8b33" d="M241,187C241,187,243.358000,224.913000,242,228C240.642000,231.087000,237.575000,285.425000,233,290L245,290L249,217Z" fill="rgb(221,221,221)" fill-rule="evenodd" stroke="none" stroke-width="1"/><path id="evsg0ff0zs8b34" d="M225.033000,142C225.033000,142,255.063000,154.884000,257.051000,157.057000C259.039000,159.230000,281.246000,213.342000,279,232C279,232,275.855000,267.910000,270,290L241,290C241,290,242.880000,227.430000,245,222L238,178Z" fill="rgb(255,255,255)" fill-rule="evenodd" stroke="none" stroke-width="1"/><path id="evsg0ff0zs8b35" d="M115,160C115,160,119.488000,176.021000,131,186C131,186,115.578000,177.700000,115,160ZM251,160C251,160,246.512000,176.021000,235,186C235,186,250.422000,177.700000,251,160Z" fill="rgb(221,221,221)" fill-rule="evenodd" stroke="none" stroke-width="1"/><g id="evsg0ff0zs8b36"><path id="evsg0ff0zs8b37" d="M76.408000,147.333000L76.079000,137.767000C76.079000,137.767000,66.230000,130.572000,68.445000,110.256000C68.445000,110.256000,71.183000,103.088000,75.945000,106.167000C75.945000,106.167000,77.787000,100.293000,81.572000,103.101000C81.572000,103.101000,85.079000,97.385000,88.186000,100.958000L87.563000,82.783000C88.031527,81.089664,89.526893,79.883074,91.281000,79.783000C93.035107,79.682926,95.125000,80.400000,95.200000,82.520000L96.055000,107.391000C96.055000,107.391000,102.423000,115.460000,103.097000,117.684000C103.771000,119.908000,99.349000,133.902000,94.179000,136.184000L94.541000,146.706000Z" fill="rgb(249,161,123)" fill-rule="evenodd" stroke="none" stroke-width="1"/><path id="evsg0ff0zs8b38" d="M77,120C77,120,82.134000,118.632000,83,117C85.531586,118.755152,88.978346,118.324307,91,116C91.320730,117.191774,92.023259,118.245567,93,119C94.422000,119.845000,87.433000,124.259000,87,128C87,128,83.383000,121.549000,77,120Z" fill="rgb(212,137,105)" fill-rule="evenodd" stroke="none" stroke-width="1"/><path id="evsg0ff0zs8b39" d="M106,177C107.100000,177.428000,115.327000,215.493000,115,226L111,240C111,240,104.900000,176.572000,106,177Z" fill="rgb(221,221,221)" fill-rule="evenodd" stroke="none" stroke-width="1"/><path id="evsg0ff0zs8b40" d="M72,154L71,143C71,143,91.811000,139.260000,97,140L98,151Z" fill="rgb(92,178,191)" fill-rule="evenodd" stroke="none" stroke-width="1"/><path id="evsg0ff0zs8b41" d="M98.749000,147.409000C98.749000,147.409000,75.049000,150.597000,71.484000,152.060000C71.802000,153.036000,63.593000,223.513000,91.904000,254.978000C91.904000,254.978000,103.755000,263.231000,109.155000,252.255000C109.154000,252.255000,119.800000,229.459000,98.749000,147.409000Z" fill="rgb(255,255,255)" fill-rule="evenodd" stroke="none" stroke-width="1"/></g></g><script><![CDATA[!function(t,n){"object"==typeof exports&&"undefined"!=typeof module?module.exports=n():"function"==typeof define&&define.amd?define(n):(t=t||self).__SVGATOR_PLAYER__=n()}(this,(function(){"use strict";function t(n){return(t="function"==typeof Symbol&&"symbol"==typeof Symbol.iterator?function(t){return typeof t}:function(t){return t&&"function"==typeof Symbol&&t.constructor===Symbol&&t!==Symbol.prototype?"symbol":typeof t})(n)}function n(t,n){if(!(t instanceof n))throw new TypeError("Cannot call a class as a function")}function r(t,n){for(var r=0;r<n.length;r++){var e=n[r];e.enumerable=e.enumerable||!1,e.configurable=!0,"value"in e&&(e.writable=!0),Object.defineProperty(t,e.key,e)}}function e(t,n,e){return n&&r(t.prototype,n),e&&r(t,e),t}var i=1e-5,u=Math.abs;function o(t){return t}function a(t,n,r){var e=1-r;return 3*r*e*(t*e+n*r)+r*r*r}function l(){var t=arguments.length>0&&void 0!==arguments[0]?arguments[0]:0,n=arguments.length>1&&void 0!==arguments[1]?arguments[1]:0,r=arguments.length>2&&void 0!==arguments[2]?arguments[2]:1,e=arguments.length>3&&void 0!==arguments[3]?arguments[3]:1;return t<0||t>1||r<0||r>1?null:u(t-n)<=i&&u(r-e)<=i?o:function(o){if(o<=0)return t>0?o*n/t:0===n&&r>0?o*e/r:0;if(o>=1)return r<1?1+(o-1)*(e-1)/(r-1):1===r&&t<1?1+(o-1)*(n-1)/(t-1):1;for(var l,f=0,s=1;f<s;){var c=a(t,r,l=(f+s)/2);if(u(o-c)<i)break;c<o?f=l:s=l}return a(n,e,l)}}function f(){return 1}function s(t){return 1===t?1:0}function c(){var t=arguments.length>0&&void 0!==arguments[0]?arguments[0]:1,n=arguments.length>1&&void 0!==arguments[1]?arguments[1]:0;if(1===t){if(0===n)return s;if(1===n)return f}var r=1/t;return function(t){return t>=1?1:(t+=n*r)-t%r}}function v(t){var n=arguments.length>1&&void 0!==arguments[1]?arguments[1]:2;if(Number.isInteger(t))return t;var r=Math.pow(10,n);return Math.round(t*r)/r}var h=Math.PI/180;function y(t,n,r){return t>=.5?r:n}function d(t,n,r){return 0===t||n===r?n:t*(r-n)+n}function g(t,n,r){var e=d(t,n,r);return e<=0?0:e}function m(t,n,r){return 0===t?n:1===t?r:{x:d(t,n.x,r.x),y:d(t,n.y,r.y)}}function p(t,n,r){return 0===t?n:1===t?r:{x:g(t,n.x,r.x),y:g(t,n.y,r.y)}}function b(t,n,r){var e=function(t,n,r){return Math.round(d(t,n,r))}(t,n,r);return e<=0?0:e>=255?255:e}function w(t,n,r){return 0===t?n:1===t?r:{r:b(t,n.r,r.r),g:b(t,n.g,r.g),b:b(t,n.b,r.b),a:d(t,null==n.a?1:n.a,null==r.a?1:r.a)}}function A(t,n,r){if(0===t)return n;if(1===t)return r;var e=n.length;if(e!==r.length)return y(t,n,r);for(var i=[],u=0;u<e;u++)i.push(w(t,n[u],r[u]));return i}function x(t,n,r){var e=n.length;if(e!==r.length)return y(t,n,r);for(var i=new Array(e),u=0;u<e;u++)i[u]=d(t,n[u],r[u]);return i}function k(t,n){for(var r=[],e=0;e<t;e++)r.push(n);return r}function S(t,n){if(--n<=0)return t;var r=(t=Object.assign([],t)).length;do{for(var e=0;e<r;e++)t.push(t[e])}while(--n>0);return t}var _=6,M=/\.0+$/g;function I(t){return Number.isInteger(t)?t+"":t.toFixed(_).replace(M,"")}function E(t){var n=arguments.length>1&&void 0!==arguments[1]?arguments[1]:" ";return t&&t.length?t.map(I).join(n):""}function F(t){return I(t.x)+","+I(t.y)}function B(t){return t?null==t.a||t.a>=1?"rgb("+t.r+","+t.g+","+t.b+")":"rgba("+t.r+","+t.g+","+t.b+","+t.a+")":"transparent"}var j={f:null,i:p,u:function(t,n){return function(r){var e=n(r);t.setAttribute("rx",I(e.x)),t.setAttribute("ry",I(e.y))}}},q={f:null,i:function(t,n,r){return 0===t?n:1===t?r:{width:g(t,n.width,r.width),height:g(t,n.height,r.height)}},u:function(t,n){return function(r){var e=n(r);t.setAttribute("width",I(e.width)),t.setAttribute("height",I(e.height))}}},P=Math.sin,O=Math.cos,z=Math.acos,L=Math.asin,C=Math.tan,R=Math.atan2,T=Math.PI/180,V=180/Math.PI,D=Math.sqrt,N=function(){function t(){var r=arguments.length>0&&void 0!==arguments[0]?arguments[0]:1,e=arguments.length>1&&void 0!==arguments[1]?arguments[1]:0,i=arguments.length>2&&void 0!==arguments[2]?arguments[2]:0,u=arguments.length>3&&void 0!==arguments[3]?arguments[3]:1,o=arguments.length>4&&void 0!==arguments[4]?arguments[4]:0,a=arguments.length>5&&void 0!==arguments[5]?arguments[5]:0;n(this,t),this.m=[r,e,i,u,o,a],this.i=null,this.w=null,this.s=null}return e(t,[{key:"point",value:function(t,n){var r=this.m;return{x:r[0]*t+r[2]*n+r[4],y:r[1]*t+r[3]*n+r[5]}}},{key:"translateSelf",value:function(){var t=arguments.length>0&&void 0!==arguments[0]?arguments[0]:0,n=arguments.length>1&&void 0!==arguments[1]?arguments[1]:0;if(!t&&!n)return this;var r=this.m;return r[4]+=r[0]*t+r[2]*n,r[5]+=r[1]*t+r[3]*n,this.w=this.s=this.i=null,this}},{key:"rotateSelf",value:function(){var t=arguments.length>0&&void 0!==arguments[0]?arguments[0]:0;if(t%=360){var n=P(t*=T),r=O(t),e=this.m,i=e[0],u=e[1];e[0]=i*r+e[2]*n,e[1]=u*r+e[3]*n,e[2]=e[2]*r-i*n,e[3]=e[3]*r-u*n,this.w=this.s=this.i=null}return this}},{key:"scaleSelf",value:function(){var t=arguments.length>0&&void 0!==arguments[0]?arguments[0]:1,n=arguments.length>1&&void 0!==arguments[1]?arguments[1]:1;if(1!==t||1!==n){var r=this.m;r[0]*=t,r[1]*=t,r[2]*=n,r[3]*=n,this.w=this.s=this.i=null}return this}},{key:"skewSelf",value:function(t,n){if(n%=360,(t%=360)||n){var r=this.m,e=r[0],i=r[1],u=r[2],o=r[3];t&&(t=C(t*T),r[2]+=e*t,r[3]+=i*t),n&&(n=C(n*T),r[0]+=u*n,r[1]+=o*n),this.w=this.s=this.i=null}return this}},{key:"resetSelf",value:function(){var t=arguments.length>0&&void 0!==arguments[0]?arguments[0]:1,n=arguments.length>1&&void 0!==arguments[1]?arguments[1]:0,r=arguments.length>2&&void 0!==arguments[2]?arguments[2]:0,e=arguments.length>3&&void 0!==arguments[3]?arguments[3]:1,i=arguments.length>4&&void 0!==arguments[4]?arguments[4]:0,u=arguments.length>5&&void 0!==arguments[5]?arguments[5]:0,o=this.m;return o[0]=t,o[1]=n,o[2]=r,o[3]=e,o[4]=i,o[5]=u,this.w=this.s=this.i=null,this}},{key:"recomposeSelf",value:function(){var t=arguments.length>0&&void 0!==arguments[0]?arguments[0]:null,n=arguments.length>1&&void 0!==arguments[1]?arguments[1]:null,r=arguments.length>2&&void 0!==arguments[2]?arguments[2]:null,e=arguments.length>3&&void 0!==arguments[3]?arguments[3]:null,i=arguments.length>4&&void 0!==arguments[4]?arguments[4]:null;return this.isIdentity||this.resetSelf(),t&&(t.x||t.y)&&this.translateSelf(t.x,t.y),n&&this.rotateSelf(n),r&&(r.x&&this.skewSelf(r.x,0),r.y&&this.skewSelf(0,r.y)),!e||1===e.x&&1===e.y||this.scaleSelf(e.x,e.y),i&&(i.x||i.y)&&this.translateSelf(i.x,i.y),this}},{key:"decompose",value:function(){var t=arguments.length>0&&void 0!==arguments[0]?arguments[0]:0,n=arguments.length>1&&void 0!==arguments[1]?arguments[1]:0,r=this.m,e=r[0]*r[0]+r[1]*r[1],i=[[r[0],r[1]],[r[2],r[3]]],u=D(e);if(0===u)return{origin:{x:r[4],y:r[5]},translate:{x:t,y:n},scale:{x:0,y:0},skew:{x:0,y:0},rotate:0};i[0][0]/=u,i[0][1]/=u;var o=r[0]*r[3]-r[1]*r[2]<0;o&&(u=-u);var a=i[0][0]*i[1][0]+i[0][1]*i[1][1];i[1][0]-=i[0][0]*a,i[1][1]-=i[0][1]*a;var l=D(i[1][0]*i[1][0]+i[1][1]*i[1][1]);if(0===l)return{origin:{x:r[4],y:r[5]},translate:{x:t,y:n},scale:{x:u,y:0},skew:{x:0,y:0},rotate:0};i[1][0]/=l,i[1][1]/=l,a/=l;var f=0;return i[1][1]<0?(f=z(i[1][1])*V,i[0][1]<0&&(f=360-f)):f=L(i[0][1])*V,o&&(f=-f),a=R(a,D(i[0][0]*i[0][0]+i[0][1]*i[0][1]))*V,{origin:{x:r[4],y:r[5]},translate:{x:t,y:n},scale:{x:u,y:l},skew:{x:a,y:0},rotate:f}}},{key:"toString",value:function(){return null===this.s&&(this.s="matrix("+this.m.map($).join(" ")+")"),this.s}},{key:"determinant",get:function(){var t=this.m;return t[0]*t[3]-t[1]*t[2]}},{key:"isIdentity",get:function(){if(null===this.i){var t=this.m;this.i=1===t[0]&&0===t[1]&&0===t[2]&&1===t[3]&&0===t[4]&&0===t[5]}return this.i}}]),t}(),G=/\.0+$/;function $(t){return Number.isInteger(t)?t:t.toFixed(14).replace(G,"")}Object.freeze({M:2,L:2,Z:0,H:1,V:1,C:6,Q:4,T:2,S:4,A:7});function H(t,n,r){return t+(n-t)*r}function Q(t,n,r){var e=arguments.length>3&&void 0!==arguments[3]&&arguments[3],i={x:H(t.x,n.x,r),y:H(t.y,n.y,r)};return e&&(i.a=function(t,n){return Math.atan2(n.y-t.y,n.x-t.x)}(t,n)),i}function U(t,n,r,e){var i=1-e;return i*i*t+2*i*e*n+e*e*r}function Y(t,n,r,e){return 2*(1-e)*(n-t)+2*e*(r-n)}function Z(t,n,r,e){var i=arguments.length>4&&void 0!==arguments[4]&&arguments[4],u={x:U(t.x,n.x,r.x,e),y:U(t.y,n.y,r.y,e)};return i&&(u.a=function(t,n,r,e){return Math.atan2(Y(t.y,n.y,r.y,e),Y(t.x,n.x,r.x,e))}(t,n,r,e)),u}function J(t,n,r,e,i){var u=i*i;return i*u*(e-t+3*(n-r))+3*u*(t+r-2*n)+3*i*(n-t)+t}function K(t,n,r,e,i){var u=1-i;return 3*(u*u*(n-t)+2*u*i*(r-n)+i*i*(e-r))}function W(t,n,r,e,i){var u=arguments.length>5&&void 0!==arguments[5]&&arguments[5],o={x:J(t.x,n.x,r.x,e.x,i),y:J(t.y,n.y,r.y,e.y,i)};return u&&(o.a=function(t,n,r,e,i){return Math.atan2(K(t.y,n.y,r.y,e.y,i),K(t.x,n.x,r.x,e.x,i))}(t,n,r,e,i)),o}function X(t,n,r){var e,i=arguments.length>3&&void 0!==arguments[3]&&arguments[3];if(nt(n)){if(null!=(e=r).start&&!nt(e))return Z(n,r.start,r,t,i)}else if(nt(r)){if(n.end)return Z(n,n.end,r,t,i)}else{if(n.end)return r.start?W(n,n.end,r.start,r,t,i):Z(n,n.end,r,t,i);if(r.start)return Z(n,r.start,r,t,i)}return Q(n,r,t,i)}function tt(t,n,r){var e=X(t,n,r,!0);return e.a=function(t){return arguments.length>1&&void 0!==arguments[1]&&arguments[1]?t+Math.PI:t}(e.a)/h,e}function nt(t){return!t.type||"corner"===t.type}var rt=new N;var et={f:function(t){return t?t.join(" "):""},i:function(n,r,e){if(0===n)return r;if(1===n)return e;var i=r.length;if(i!==e.length)return y(n,r,e);for(var u,o=new Array(i),a=0;a<i;a++){if((u=t(r[a]))!==t(e[a]))return y(n,r,e);if("number"===u)o[a]=d(n,r[a],e[a]);else{if(r[a]!==e[a])return y(n,r,e);o[a]=r[a]}}return o}},it={f:null,i:x,u:function(t,n){return function(r){var e=n(r);t.setAttribute("x1",I(e[0])),t.setAttribute("y1",I(e[1])),t.setAttribute("x2",I(e[2])),t.setAttribute("y2",I(e[3]))}}},ut={f:I,i:d},ot={f:I,i:function(t,n,r){var e=d(t,n,r);return e<=0?0:e>=1?1:e}},at={f:E,i:function(t,n,r){var e,i,u,o=n.length,a=r.length;if(o!==a)if(0===o)n=k(o=a,0);else if(0===a)a=o,r=k(o,0);else{var l=(u=(e=o)*(i=a)/function(t,n){for(var r;n;)r=n,n=t%n,t=r;return t||1}(e,i))<0?-u:u;n=S(n,Math.floor(l/o)),r=S(r,Math.floor(l/a)),o=a=l}for(var f=[],s=0;s<o;s++)f.push(v(g(t,n[s],r[s]),6));return f}};function lt(t,n,r,e,i,u,o,a){return n=function(t,n,r){for(var e,i,u,o=t.length-1,a={},l=0;l<=o;l++)(e=t[l]).e&&(e.e=n(e.e)),e.v&&"g"===(i=e.v).t&&i.r&&(u=r.getElementById(i.r))&&(a[i.r]=u.querySelectorAll("stop"));return a}(t,e,a),function(e){var i,u=r(e,t,ft);return u?"c"===u.t?B(u.v):"g"===u.t?(n[u.r]&&function(t,n){for(var r=0,e=t.length;r<e;r++)t[r].setAttribute("stop-color",B(n[r]))}(n[u.r],u.v),(i=u.r)?"url(#"+i+")":"none"):"none":"none"}}function ft(t,n,r){if(0===t)return n;if(1===t)return r;if(n&&r){var e=n.t;if(e===r.t)switch(n.t){case"c":return{t:e,v:w(t,n.v,r.v)};case"g":if(n.r===r.r)return{t:e,v:A(t,n.v,r.v),r:n.r}}}return y(t,n,r)}var st={blur:p,brightness:g,contrast:g,"drop-shadow":function(t,n,r){return 0===t?n:1===t?r:{blur:p(t,n.blur,r.blur),offset:m(t,n.offset,r.offset),color:w(t,n.color,r.color)}},grayscale:g,"hue-rotate":d,invert:g,opacity:g,saturate:g,sepia:g};function ct(t,n,r){if(0===t)return n;if(1===t)return r;var e=n.length;if(e!==r.length)return y(t,n,r);for(var i,u=[],o=0;o<e;o++){if(n[o].type!==r[o].type)return n;if(!(i=st[n[o].type]))return y(t,n,r);u.push({type:n.type,value:i(t,n[o].value,r[o].value)})}return u}var vt={blur:function(t){return t?function(n){t.setAttribute("stdDeviation",F(n))}:null},brightness:function(t,n,r){return(t=yt(r,n))?function(n){n=I(n),t.map((function(t){return t.setAttribute("slope",n)}))}:null},contrast:function(t,n,r){return(t=yt(r,n))?function(n){var r=I((1-n)/2);n=I(n),t.map((function(t){t.setAttribute("slope",n),t.setAttribute("intercept",r)}))}:null},"drop-shadow":function(t,n,r){var e=r.getElementById(n+"-blur");if(!e)return null;var i=r.getElementById(n+"-offset");if(!i)return null;var u=r.getElementById(n+"-flood");return u?function(t){e.setAttribute("stdDeviation",F(t.blur)),i.setAttribute("dx",I(t.offset.x)),i.setAttribute("dy",I(t.offset.y)),u.setAttribute("flood-color",B(t.color))}:null},grayscale:function(t){return t?function(n){t.setAttribute("values",E(function(t){return[.2126+.7874*(t=1-t),.7152-.7152*t,.0722-.0722*t,0,0,.2126-.2126*t,.7152+.2848*t,.0722-.0722*t,0,0,.2126-.2126*t,.7152-.7152*t,.0722+.9278*t,0,0,0,0,0,1,0]}(n)))}:null},"hue-rotate":function(t){return t?function(n){return t.setAttribute("values",I(n))}:null},invert:function(t,n,r){return(t=yt(r,n))?function(n){n=I(n)+" "+I(1-n),t.map((function(t){return t.setAttribute("tableValues",n)}))}:null},opacity:function(t,n,r){return(t=r.getElementById(n+"-A"))?function(n){return t.setAttribute("tableValues","0 "+I(n))}:null},saturate:function(t){return t?function(n){return t.setAttribute("values",I(n))}:null},sepia:function(t){return t?function(n){return t.setAttribute("values",E(function(t){return[.393+.607*(t=1-t),.769-.769*t,.189-.189*t,0,0,.349-.349*t,.686+.314*t,.168-.168*t,0,0,.272-.272*t,.534-.534*t,.131+.869*t,0,0,0,0,0,1,0]}(n)))}:null}};var ht=["R","G","B"];function yt(t,n){var r=ht.map((function(r){return t.getElementById(n+"-"+r)||null}));return-1!==r.indexOf(null)?null:r}var dt={fill:lt,"fill-opacity":ot,stroke:lt,"stroke-opacity":ot,"stroke-width":ut,"stroke-dashoffset":{f:I,i:d},"stroke-dasharray":at,opacity:ot,transform:function(n,r,e,i){if(!(n=function(n,r){if(!n||"object"!==t(n))return null;var e=!1;for(var i in n)n.hasOwnProperty(i)&&(n[i]&&n[i].length?(n[i].forEach((function(t){t.e&&(t.e=r(t.e))})),e=!0):delete n[i]);return e?n:null}(n,i)))return null;var u=function(t,i,u){var o=arguments.length>3&&void 0!==arguments[3]?arguments[3]:null;return n[t]?e(i,n[t],u):r&&r[t]?r[t]:o};return r&&r.a&&n.o?function(t){var r=e(t,n.o,tt);return rt.recomposeSelf(r,u("r",t,d,0)+r.a,u("k",t,m),u("s",t,m),u("t",t,m)).toString()}:function(t){return rt.recomposeSelf(u("o",t,X,null),u("r",t,d,0),u("k",t,m),u("s",t,m),u("t",t,m)).toString()}},"#filter":function(t,n,r,e,i,u,o,a){if(!n.items||!t||!t.length)return null;var l=function(t,n){var r=(t=t.map((function(t){return t&&vt[t[0]]?(n.getElementById(t[1]),vt[t[0]](n.getElementById(t[1]),t[1],n)):null}))).length;return function(n){for(var e=0;e<r;e++)t[e]&&t[e](n[e].value)}}(n.items,a);return l?(t=function(t,n){return t.map((function(t){return t.e=n(t.e),t}))}(t,e),function(n){l(r(n,t,ct))}):null},"#line":it,points:{f:E,i:x},d:et,r:ut,"#size":q,"#radius":j,_:function(t,n){if(Array.isArray(t))for(var r=0;r<t.length;r++)this[t[r]]=n;else this[t]=n}},gt=function(){function t(r){n(this,t),this.list=r,this.length=r.length}return e(t,[{key:"setAttribute",value:function(t,n){for(var r=this.list,e=0;e<this.length;e++)r[e].setAttribute(t,n)}},{key:"removeAttribute",value:function(t){for(var n=this.list,r=0;r<this.length;r++)n[r].removeAttribute(t)}},{key:"style",value:function(t,n){for(var r=this.list,e=0;e<this.length;e++)r[e].style[t]=n}}]),t}(),mt=/-./g,pt=function(t,n){return n.toUpperCase()};function bt(t){return"function"==typeof t?t:y}function wt(t){return t?"function"==typeof t?t:Array.isArray(t)?function(t){var n=arguments.length>1&&void 0!==arguments[1]?arguments[1]:o;if(!Array.isArray(t))return n;switch(t.length){case 1:return c(t[0])||n;case 2:return c(t[0],t[1])||n;case 4:return l(t[0],t[1],t[2],t[3])||n}return n}(t,null):function(t,n){var r=arguments.length>2&&void 0!==arguments[2]?arguments[2]:o;switch(t){case"linear":return o;case"steps":return c(n.steps||1,n.jump||0)||r;case"bezier":case"cubic-bezier":return l(n.x1||0,n.y1||0,n.x2||0,n.y2||0)||r}return r}(t.type,t.value,null):null}function At(t,n,r){var e=arguments.length>3&&void 0!==arguments[3]&&arguments[3],i=n.length-1;if(t<=n[0].t)return e?[0,0,n[0].v]:n[0].v;if(t>=n[i].t)return e?[i,1,n[i].v]:n[i].v;var u,o=n[0],a=null;for(u=1;u<=i;u++){if(!(t>n[u].t)){a=n[u];break}o=n[u]}return null==a?e?[i,1,n[i].v]:n[i].v:o.t===a.t?e?[u,1,a.v]:a.v:(t=(t-o.t)/(a.t-o.t),o.e&&(t=o.e(t)),e?[u,t,r(t,o.v,a.v)]:r(t,o.v,a.v))}function xt(t,n){var r=arguments.length>2&&void 0!==arguments[2]?arguments[2]:null;return t&&t.length?"function"!=typeof n?null:("function"!=typeof r&&(r=null),function(e){var i=At(e,t,n);return null!=i&&r&&(i=r(i)),i}):null}function kt(t,n){return t.t-n.t}function St(n,r,e,i,u){var o,a="@"===e[0],l="#"===e[0],f=dt[e],s=y;switch(a?(o=e.substr(1),e=o.replace(mt,pt)):l&&(e=e.substr(1)),t(f)){case"function":if(s=f(i,u,At,wt,e,a,r,n),l)return s;break;case"string":s=xt(i,bt(f));break;case"object":if((s=xt(i,bt(f.i),f.f))&&"function"==typeof f.u)return f.u(r,s,e,a,n)}return s?function(t,n,r){if(arguments.length>3&&void 0!==arguments[3]&&arguments[3])return t instanceof gt?function(e){return t.style(n,r(e))}:function(e){return t.style[n]=r(e)};if(Array.isArray(n)){var e=n.length;return function(i){var u=r(i);if(null==u)for(var o=0;o<e;o++)t[o].removeAttribute(n);else for(var a=0;a<e;a++)t[a].setAttribute(n,u)}}return function(e){var i=r(e);null==i?t.removeAttribute(n):t.setAttribute(n,i)}}(r,e,s,a):null}function _t(n,r,e,i){if(!i||"object"!==t(i))return null;var u=null,o=null;return Array.isArray(i)?o=function(t){if(!t||!t.length)return null;for(var n=0;n<t.length;n++)t[n].e&&(t[n].e=wt(t[n].e));return t.sort(kt)}(i):(o=i.keys,u=i.data||null),o?St(n,r,e,o,u):null}function Mt(t,n,r){if(!r)return null;var e=[];for(var i in r)if(r.hasOwnProperty(i)){var u=_t(t,n,i,r[i]);u&&e.push(u)}return e.length?e:null}function It(t,n){if(!n.duration||n.duration<0)return null;var r=function(t,n){if(!n)return null;var r=[];if(Array.isArray(n))for(var e=n.length,i=0;i<e;i++){var u=n[i];if(2===u.length){var o=null;if("string"==typeof u[0])o=t.getElementById(u[0]);else if(Array.isArray(u[0])){o=[];for(var a=0;a<u[0].length;a++)if("string"==typeof u[0][a]){var l=t.getElementById(u[0][a]);l&&o.push(l)}o=o.length?1===o.length?o[0]:new gt(o):null}if(o){var f=Mt(t,o,u[1]);f&&(r=r.concat(f))}}}else for(var s in n)if(n.hasOwnProperty(s)){var c=t.getElementById(s);if(c){var v=Mt(t,c,n[s]);v&&(r=r.concat(v))}}return r.length?r:null}(t,n.elements);return r?function(t,n){var r=arguments.length>2&&void 0!==arguments[2]?arguments[2]:1/0,e=arguments.length>3&&void 0!==arguments[3]?arguments[3]:1,i=arguments.length>4&&void 0!==arguments[4]&&arguments[4],u=arguments.length>5&&void 0!==arguments[5]?arguments[5]:1,o=t.length,a=e>0?n:0;i&&r%2==0&&(a=n-a);var l=null;return function(f,s){var c=f%n,v=1+(f-c)/n;s*=e,i&&v%2==0&&(s=-s);var h=!1;if(v>r)c=a,h=!0,-1===u&&(c=e>0?0:n);else if(s<0&&(c=n-c),c===l)return!1;l=c;for(var y=0;y<o;y++)t[y](c);return h}}(r,n.duration,n.iterations||1/0,n.direction||1,!!n.alternate,n.fill||1):null}var Et=function(){function t(r){var e=arguments.length>1&&void 0!==arguments[1]?arguments[1]:{};n(this,t),this._id=0,this._running=!1,this._animations=r,this.direction=e.direction||1,this.speed=e.speed||1,this.fps=e.fps||100,this.offset=e.offset||0}return e(t,[{key:"_start",value:function(){var t=this,n=arguments.length>0&&void 0!==arguments[0]?arguments[0]:0,r=-1/0,e=null,i={},u=function u(o){t._running=!0,null==e&&(e=o);var a=Math.round((o-e+n)*t.speed),l=t.fps?1e3/t.fps:0;if(a>r+l){t.offset=a,r=a;for(var f=t._animations,s=f.length,c=0,v=0;v<s;v++)i[v]?c++:(i[v]=f[v](a,t.direction),i[v]&&c++);if(c===s)return void t._stop()}t._id=window.requestAnimationFrame(u)};this._id=window.requestAnimationFrame(u)}},{key:"_stop",value:function(){this._id&&window.cancelAnimationFrame(this._id),this._running=!1}},{key:"play",value:function(){this._running||this._start(this.offset)}},{key:"stop",value:function(){this._stop(),this.offset=0;var t=this.direction,n=this._animations;requestAnimationFrame((function(){for(var r=0;r<n.length;r++)n[r](0,t)}))}},{key:"restart",value:function(){this._stop(),this.offset=0,this._start()}},{key:"pause",value:function(){this._stop()}},{key:"reverse",value:function(){this.direction=-this.direction}}],[{key:"build",value:function(n){if(!(n=function(t){if(!t||!t.root||!Array.isArray(t.animations))return null;var n=window.document.getElementById(t.root);if(!n)return null;var r=t.animations.map((function(t){return It(n,t)})).filter((function(t){return!!t}));return r.length?{element:n,animations:r,options:t.options||void 0}:null}(n)))return null;var r=n.element,e=n.options||{},i=new t(n.animations,n.options);return function(t,n,r){var e=arguments.length>3&&void 0!==arguments[3]?arguments[3]:null;if("click"===r){return void n.addEventListener("click",(function r(){n.removeEventListener("click",r),t.play()}))}if("hover"===r)return n.addEventListener("mouseenter",(function(){return t.play()})),void n.addEventListener("mouseleave","freeze"===e?function(){return t.pause()}:function(){return t.stop()});t.play()}(i,r,e.start,e.hover),i}}]),t}();return function(){for(var t=0,n=["ms","moz","webkit","o"],r=0;r<n.length&&!window.requestAnimationFrame;++r)window.requestAnimationFrame=window[n[r]+"RequestAnimationFrame"],window.cancelAnimationFrame=window[n[r]+"CancelAnimationFrame"]||window[n[r]+"CancelRequestAnimationFrame"];window.requestAnimationFrame||(window.requestAnimationFrame=function(n){var r=Date.now(),e=Math.max(0,16-(r-t)),i=window.setTimeout((function(){n(r+e)}),e);return t=r+e,i},window.cancelAnimationFrame=window.clearTimeout)}(),Et}));
__SVGATOR_PLAYER__.build({"root":"evsg0ff0zs8b1","animations":[{"duration":8000,"direction":1,"iterations":0,"fill":1,"alternate":false,"elements":{"evsg0ff0zs8b20":{"transform":{"data":{"o":{"x":170,"y":81,"type":"corner"},"t":{"x":1.4210854715202004e-14,"y":-1.4210854715202004e-14}},"keys":{"s":[{"t":2800,"v":{"x":1,"y":1}},{"t":3000,"v":{"x":1.9330345902115798,"y":0.15071293186588114}},{"t":3200,"v":{"x":1,"y":1}},{"t":4760,"v":{"x":1,"y":1}},{"t":4960,"v":{"x":1.9330345902115798,"y":0.15071293186588114}},{"t":5160,"v":{"x":1,"y":1}}]}}},"evsg0ff0zs8b21":{"transform":{"data":{"o":{"x":200,"y":81.00000000000003,"type":"corner"},"t":{"x":1.4210854715202004e-14,"y":-1.4210854715202004e-14}},"keys":{"s":[{"t":2800,"v":{"x":1,"y":1}},{"t":3000,"v":{"x":1.9330345902115798,"y":0.15071293186588114}},{"t":3200,"v":{"x":1,"y":1}},{"t":4760,"v":{"x":1,"y":1}},{"t":4960,"v":{"x":1.9330345902115798,"y":0.15071293186588114}},{"t":5160,"v":{"x":1,"y":1}}]}}},"evsg0ff0zs8b36":{"transform":{"data":{"o":{"x":98,"y":256.5,"type":"corner"},"t":{"x":-98,"y":-256.5}},"keys":{"r":[{"t":0,"v":0},{"t":2000,"v":-5.441761700996268},{"t":4000,"v":0},{"t":6000,"v":-5.441761700996268},{"t":8000,"v":0}]}}}}}],"options":{"start":"load","hover":"freeze"}})]]></script></svg>