<svg id="evk2dvb2hch1" xmlns="http://www.w3.org/2000/svg" xmlns:xlink="http://www.w3.org/1999/xlink" viewBox="0 0 370 290" shape-rendering="geometricPrecision" text-rendering="geometricPrecision" width="370" height="290"><g id="evk2dvb2hch2"><path id="evk2dvb2hch3" d="M185,290L121,290L121,192C121,147.339000,146,141,146,141C158.452000,140.344000,185,140,185,140C185,140,211.548000,140.344000,224,141C224,141,249,147.339000,249,192L249,290L185,290Z" fill="rgb(255,255,255)" fill-rule="evenodd" stroke="none" stroke-width="1"/><path id="evk2dvb2hch4" d="M235,202.500000C235,210.508129,228.508129,217,220.500000,217C212.491871,217,206,210.508129,206,202.500000L206,185L235,185L235,202.500000Z" fill="rgb(221,221,221)" fill-rule="evenodd" stroke="none" stroke-width="1"/><path id="evk2dvb2hch5" d="M235,200.500000C235,208.508129,228.508129,215,220.500000,215C212.491871,215,206,208.508129,206,200.500000L206,183L235,183L235,200.500000Z" fill="rgb(245,245,245)" fill-rule="evenodd" stroke="none" stroke-width="1"/><path id="evk2dvb2hch6" d="M223.220000,186C223.220000,186,215.520000,200.948000,215.320000,204.271000C215.120000,207.594000,216.852000,205.271000,217.095000,204.309000C217.338000,203.347000,218.005000,200.490000,218.962000,197.462000C219.962000,194.287000,223.222000,186,223.222000,186M225.922000,191.050000C225.922000,191.050000,220.592000,202.136000,220.513000,204.578000C220.434000,207.020000,221.657000,205.289000,221.813000,204.578000C221.969000,203.867000,222.399000,201.762000,223.036000,199.526000C223.706000,197.181000,225.919000,191.050000,225.919000,191.050000M227.525000,195.678000C227.525000,195.678000,223.894000,203.233000,223.840000,204.895000C223.786000,206.557000,224.620000,205.380000,224.728000,204.895000C224.836000,204.410000,225.128000,202.977000,225.562000,201.453000C226.018000,199.853000,227.525000,195.678000,227.525000,195.678000M230,198.948000L212,198.948000L212,198.809000L230,198.809000L230,198.948000Z" fill="rgb(88,89,91)" fill-rule="evenodd" stroke="none" stroke-width="1"/><rect id="evk2dvb2hch7" width="2" height="67" rx="0" ry="0" transform="matrix(1 0 0 1 184 223)" fill="rgb(221,221,221)" stroke="none" stroke-width="1"/></g><g id="evk2dvb2hch8"><path id="evk2dvb2hch9" d="M208,139L185,161L162,139C168.300000,133.248000,168,118,168,118L202,118C202,118,201.700000,133.248000,208,139Z" fill="rgb(249,161,123)" fill-rule="evenodd" stroke="none" stroke-width="1"/><path id="evk2dvb2hch10" d="M185,118L202,118C201.988005,122.423437,202.554474,126.829454,203.685000,131.106000C194.580000,139.500000,185,139,185,139C185,139,175.417000,139.500000,166.333000,131.043000C167.450595,126.785760,168.010941,122.401476,168,118L185,118Z" fill="rgb(235,152,116)" fill-rule="evenodd" stroke="none" stroke-width="1"/><g id="evk2dvb2hch11" transform="matrix(1 0 0 1 4.68164933500000 -0.79237863999998)"><path id="evk2dvb2hch12" d="M221.937000,95.022000C205.078000,139.754000,177.037000,130.615000,177.037000,130.615000C177.037000,130.615000,148.316000,124.546000,156.102000,77.383000C156.102000,77.383000,162.051000,18.931000,203.955000,30.159000C246.051000,41.437000,221.937000,95.022000,221.937000,95.022000Z" fill="rgb(249,161,123)" fill-rule="evenodd" stroke="none" stroke-width="1"/><path id="evk2dvb2hch13" d="M228.414000,102.663000C219.940000,117.149000,213.073000,112.063000,213.073000,112.063000L220.739000,95.417000C224.475000,93.271000,225.808000,88.464000,225.808000,88.464000C236.252000,86.900000,228.414000,102.663000,228.414000,102.663000ZM146.826000,81.108000C146.826000,81.108000,148.011000,63.622000,155.986000,70.108000C155.986000,70.108000,154.741000,74.921000,156.813000,78.608000L155.052000,96.771000C155.052000,96.771000,146.800000,97.800000,146.826000,81.108000Z" fill="rgb(249,161,123)" fill-rule="evenodd" stroke="none" stroke-width="1"/><path id="evk2dvb2hch14" d="M159.989000,62.894000C159.989000,62.894000,175.935000,55.369000,182.224000,53.323000C182.224000,53.323000,204.748000,68.063000,222.585000,76.561000L229.314000,51.447000L166.528000,34.623000Z" fill="rgb(235,152,116)" fill-rule="evenodd" stroke="none" stroke-width="1"/><path id="evk2dvb2hch15" d="M221.508000,94.644000C206.288000,135.027000,182.091000,132.133000,176.945000,131.006000L176.945000,131.016000C176.945000,131.016000,176.771000,130.979000,176.454000,130.890000C176.137000,130.801000,175.965000,130.754000,175.965000,130.754000L175.965000,130.743000C170.945000,129.143000,148.543000,119.554000,155.553000,76.972000C156.002038,73.264647,156.690814,69.590284,157.615000,65.972000L160.410000,66.721000C160.410000,66.721000,157.962000,98.192000,169.722000,102.841000C169.722000,102.841000,174.449000,100.264000,183.569000,102.367000L183.577000,102.337000C183.746000,102.382000,183.898000,102.437000,184.063000,102.483000C184.228000,102.529000,184.387000,102.554000,184.557000,102.599000L184.549000,102.630000C193.499000,105.368000,196.304000,109.963000,196.304000,109.963000C208.813000,111.818000,222.427000,83.339000,222.427000,83.339000L225.227000,84.088000C224.216774,87.683344,222.974501,91.209407,221.508000,94.644000Z" opacity="0.15" fill="rgb(0,0,0)" fill-rule="evenodd" stroke="none" stroke-width="1"/><path id="evk2dvb2hch16" d="M154.882000,78.090000C154.882000,78.090000,155.367000,80.347000,156.813000,78.608000C158.259000,76.869000,160.438000,63.235000,161.213000,62.187000C161.988000,61.139000,166.222000,54.029000,173.530000,50.993000C176.932780,49.766907,179.576203,47.034496,180.689000,43.593000C181.801797,40.151504,194.874000,56.284000,212.616000,63.536000C212.616000,63.536000,224.477000,77.616000,220.306000,96.655000C220.306000,96.655000,220.173000,100.014000,222.238000,97.173000C226.470303,96.317892,230.470150,94.565530,233.968000,92.034000C240.285000,87.303000,237.509000,77.354000,241.076000,73.234000C244.643000,69.114000,248.176000,59.034000,242.009000,46.567000C235.842000,34.100000,233.385000,19.352000,206.548000,20.500000C203.146132,21.449542,199.564089,21.555603,196.112000,20.809000C192.659911,20.062397,178.769000,10.793000,169.256000,16.719000C159.743000,22.645000,155.768000,26.755000,156.541000,37.119000C157.314000,47.483000,151.641000,51.541000,151.434000,52.319000C151.227000,53.097000,147.511000,65.436000,155.658000,75.191000Z" fill="rgb(55,64,72)" fill-rule="evenodd" stroke="none" stroke-width="1"/><path id="evk2dvb2hch17" d="M184.313000,30.071000C184.313000,30.071000,198.013000,17.877000,216.068000,31.333000C234.123000,44.789000,224.488000,58.945000,229.674000,73.284000C229.674000,73.284000,223.737000,60.329000,222.483000,53.757000C221.229000,47.185000,205.398000,29.611000,189.073000,35.487000C189.073000,35.488000,180.555000,38.550000,184.313000,30.071000Z" fill="rgb(75,83,91)" fill-rule="evenodd" stroke="none" stroke-width="1"/><g id="evk2dvb2hch18"><path id="evk2dvb2hch19" d="M186.152000,72.082000C186.152000,72.082000,177.741000,65.775000,172.952000,65.465000C168.163000,65.155000,165.060000,69.659000,167.391000,70.051000C169.722000,70.443000,183.577000,72.641000,184.413000,73.805000C184.416000,73.800000,186.764000,74.648000,186.152000,72.082000Z" fill="rgb(55,64,72)" fill-rule="evenodd" stroke="none" stroke-width="1"/><path id="evk2dvb2hch20" d="M200.135000,70.134000C200.135000,70.134000,210.542000,71.622000,214.146000,74.786000C217.750000,77.950000,216.761000,83.333000,214.836000,81.961000C212.911000,80.589000,201.559000,72.347000,200.145000,72.579000C200.145000,72.579000,197.888000,71.515000,200.135000,70.134000Z" fill="rgb(55,64,72)" fill-rule="evenodd" stroke="none" stroke-width="1"/><path id="evk2dvb2hch21" d="M205.507000,82.338000C207.107000,82.767000,207.942000,84.844000,207.370000,86.978000C206.798000,89.112000,205.037000,90.494000,203.437000,90.065000C201.837000,89.636000,201.002000,87.559000,201.574000,85.425000C202.146000,83.291000,203.907000,81.909000,205.507000,82.338000Z" fill="rgb(78,55,55)" fill-rule="evenodd" stroke="none" stroke-width="1"/><path id="evk2dvb2hch22" d="M176.530000,74.573000C178.130000,75.002000,178.964000,77.079000,178.392000,79.213000C177.820000,81.347000,176.059000,82.729000,174.459000,82.300000C172.859000,81.871000,172.025000,79.794000,172.596000,77.660000C173.167000,75.526000,174.929000,74.144000,176.530000,74.573000Z" fill="rgb(78,55,55)" fill-rule="evenodd" stroke="none" stroke-width="1"/><path id="evk2dvb2hch23" d="M184.700000,100.575000C184.543193,100.532392,184.398402,100.454006,184.277000,100.346000C184.102000,100.189000,183.845000,100.005000,183.552000,99.790000C182.312000,98.883000,180.438000,97.514000,180.329000,95.685000C180.308681,94.638067,180.783468,93.642905,181.610000,93C182.997000,91.750000,187.157000,83.723000,189.454000,78.957000C189.702097,78.457032,190.306506,78.250061,190.809000,78.493000C191.051791,78.603899,191.240171,78.807260,191.332202,79.057812C191.424234,79.308364,191.412280,79.585310,191.299000,79.827000C190.674000,81.127000,185.130000,92.558000,182.999000,94.477000C182.631543,94.734373,182.398576,95.142708,182.364000,95.590000C182.417000,96.481000,183.882000,97.553000,184.758000,98.190000C185.114000,98.451000,185.425000,98.681000,185.640000,98.873000C185.840137,99.048242,185.961063,99.296852,185.975370,99.562483C185.989678,99.828114,185.896156,100.088274,185.716000,100.284000C185.457180,100.561380,185.066421,100.673300,184.700000,100.575000Z" fill="rgb(212,137,105)" fill-rule="evenodd" stroke="none" stroke-width="1"/><path id="evk2dvb2hch24" d="M183.289000,105.372000C186.756000,106.301000,188.582000,110.730000,187.367000,115.264000C186.152000,119.798000,182.356000,122.722000,178.889000,121.793000C175.422000,120.864000,173.595000,116.434000,174.810000,111.900000C176.025000,107.366000,179.821000,104.443000,183.289000,105.372000Z" fill="rgb(152,98,75)" fill-rule="evenodd" stroke="none" stroke-width="1"/><path id="evk2dvb2hch25" d="M175.716000,108.519000C175.716000,108.519000,183.310000,109.163000,188.273000,111.884000C188.273000,111.884000,188.299000,106.714000,183.859000,105.525000L182.718000,105.219000C182.718000,105.219000,179.167000,104.294000,175.716000,108.519000Z" fill="rgb(255,255,255)" fill-rule="evenodd" stroke="none" stroke-width="1"/></g></g></g><g id="evk2dvb2hch26"><path id="evk2dvb2hch27" d="M185,226L165,154L205,154Z" fill="rgb(79,152,163)" fill-rule="evenodd" stroke="none" stroke-width="1"/><path id="evk2dvb2hch28" d="M185,226L176.740000,196.264000L181,169L189,169L193.260000,196.264000Z" fill="rgb(10,59,105)" fill-rule="evenodd" stroke="none" stroke-width="1"/><path id="evk2dvb2hch29" d="M193,163C193,167.418278,189.418278,171,185,171C180.581722,171,177,167.418278,177,163L177,156L193,156L193,163Z" fill="rgb(12,72,129)" fill-rule="evenodd" stroke="none" stroke-width="1"/><path id="evk2dvb2hch30" d="M196,171C193.306446,165.059216,189.582298,159.642273,185,155L208,131C217.278000,133.859000,220,141,220,141C218.536000,143.333000,196,171,196,171ZM150,141C150,141,152.722000,133.859000,162,131L185,155C180.417702,159.642273,176.693554,165.059216,174,171C171.306446,176.940784,151.463000,143.333000,150,141Z" fill="rgb(92,178,191)" fill-rule="evenodd" stroke="none" stroke-width="1"/></g><g id="evk2dvb2hch31"><path id="evk2dvb2hch32" d="M136,196L145,142C145,142,114.987000,154.835000,113,157C111.013000,159.165000,88.053000,223.171000,90,237C90,237,84.800000,254.100000,99,257C99,257,118.118000,262.100000,136,196Z" fill="rgb(255,255,255)" fill-rule="evenodd" stroke="none" stroke-width="1"/><path id="evk2dvb2hch33" d="M136,196C136,196,131.063000,221.881000,125,236L121,261L121,234C121,234,135.416000,197.020000,136,196Z" fill="rgb(221,221,221)" fill-rule="evenodd" stroke="none" stroke-width="1"/><g id="evk2dvb2hch34" transform="matrix(0.99445694949950 -0.10514454618357 0.10514454618357 0.99445694949950 -26.46306117056821 12.21201503094204)"><path id="evk2dvb2hch35" d="M96,202C97.172000,202.129000,106.849000,211.100000,109.252000,221.331000L109.012000,235.889000C109.012000,235.889000,94.828000,201.871000,96,202Z" fill="rgb(221,221,221)" fill-rule="evenodd" stroke="none" stroke-width="1"/><g id="evk2dvb2hch36" transform="matrix(0.99189689618925 -0.12704545379562 0.12704545379562 0.99189689618925 -20.24243842862188 9.62657912860556)"><path id="evk2dvb2hch37" d="M76.147000,166.156000C76.147000,166.156000,68.828000,153.438000,67.747000,151.426000C66.666000,149.414000,64.491000,136.326000,60.895000,131.457000C57.299000,126.588000,51,117.674000,50.353000,116.535000C49.706000,115.396000,46.280000,116.835000,46.759000,120.516000C47.238000,124.197000,52.126000,133.416000,53.112000,133.988000C54.098000,134.560000,35.557000,131.188000,32.764000,132.170000C32.764000,132.170000,20.393000,130.591000,18.746000,131.994000C18.746000,131.994000,12.487000,134.543000,18.270000,137.328000C18.270000,137.328000,11.818000,138.982000,17.794000,142.663000C17.794000,142.663000,16.564000,148.693000,23.552000,150.705000C31.247752,156.207182,40.246310,159.605511,49.658000,160.564000C59.069690,161.522489,56.095000,166.915000,57.177000,173.064000Z" fill="rgb(249,161,123)" fill-rule="evenodd" stroke="none" stroke-width="1"/><path id="evk2dvb2hch38" d="M47.281000,138.844000C47.281000,138.844000,40.161000,147.579000,41.663000,153.398000L31.240000,149.241000L38.740000,149.910000C38.740000,149.910000,41.840000,147.032000,41.358000,144.767000C41.358000,144.767000,39.951000,142.127000,42.715000,141.667000C43.534713,140.834726,44.017993,139.728916,44.072000,138.562000L44.072000,138.562000C44.207880,137.823005,44.670579,137.185057,45.330830,136.826385C45.991082,136.467713,46.778097,136.426772,47.472000,136.715000C47.823226,137.402313,47.748955,138.230179,47.281000,138.844000Z" fill="rgb(212,137,105)" fill-rule="evenodd" stroke="none" stroke-width="1"/></g><path id="evk2dvb2hch39" d="M55.082000,174.913000L51.269000,164.547000C51.269000,164.547000,70.403000,155.547000,75.607000,154.920000L79.420000,165.286000Z" fill="rgb(92,178,191)" fill-rule="evenodd" stroke="none" stroke-width="1"/><path id="evk2dvb2hch40" d="M78.213000,159.624000C78.213000,159.624000,56.144000,168.838000,53.081000,171.173000C53.641000,172.033000,58.952000,232.234000,94.442000,255.299000C94.442000,255.299000,108.025000,260.204000,110.400000,248.204000C110.400000,248.200000,119.781000,233.430000,78.213000,159.624000Z" fill="rgb(255,255,255)" fill-rule="evenodd" stroke="none" stroke-width="1"/></g><path id="evk2dvb2hch41" d="M115,160C115,160,119.488000,176.021000,131,186C131,186,115.578000,177.700000,115,160Z" fill="rgb(221,221,221)" fill-rule="evenodd" stroke="none" stroke-width="1"/><path id="evk2dvb2hch42" d="M234.017000,195.930000L225,141.872000C225,141.872000,255.071000,154.721000,257.062000,156.888000C259.053000,159.055000,282.062000,223.130000,280.106000,236.974000C280.106000,236.974000,285.314000,254.093000,271.089000,256.996000C271.089000,257,251.934000,262.100000,234.017000,195.930000Z" fill="rgb(255,255,255)" fill-rule="evenodd" stroke="none" stroke-width="1"/><path id="evk2dvb2hch43" d="M234.017000,195.930000C234.017000,195.930000,238.964000,221.839000,245.039000,235.973000L249.046000,261L249.046000,233.971000C249.046000,233.971000,234.600000,196.950000,234.017000,195.930000Z" fill="rgb(221,221,221)" fill-rule="evenodd" stroke="none" stroke-width="1"/><g id="evk2dvb2hch44" transform="matrix(0.99530274818249 0.09681136018252 -0.09681136018252 0.99530274818249 25.98009291165408 -24.69649167908648)"><path id="evk2dvb2hch45" d="M274.094000,201.936000C272.920000,202.066000,263.225000,211.043000,260.817000,221.288000L261.058000,235.862000C261.058000,235.862000,275.269000,201.807000,274.094000,201.936000Z" fill="rgb(221,221,221)" fill-rule="evenodd" stroke="none" stroke-width="1"/><g id="evk2dvb2hch46" transform="matrix(0.99181382305339 0.12769236625664 -0.12769236625664 0.99181382305339 22.92600310307108 -37.61205800104668)"><path id="evk2dvb2hch47" d="M293.986000,166.054000C293.986000,166.054000,301.320000,153.322000,302.402000,151.308000C303.484000,149.294000,305.664000,136.190000,309.268000,131.317000C312.872000,126.444000,319.186000,117.517000,319.829000,116.379000C320.472000,115.241000,323.910000,116.679000,323.429000,120.364000C322.948000,124.049000,318.052000,133.281000,317.064000,133.851000C316.076000,134.421000,334.652000,131.044000,337.451000,132.031000C337.451000,132.031000,349.846000,130.450000,351.495000,131.855000C351.495000,131.855000,357.767000,134.407000,351.973000,137.195000C351.973000,137.195000,358.438000,138.850000,352.450000,142.535000C352.450000,142.535000,353.683000,148.572000,346.680000,150.586000C338.968135,156.094850,329.952696,159.496838,320.524000,160.456000C311.095304,161.415162,314.075000,166.813000,312.990000,172.970000Z" fill="rgb(249,161,123)" fill-rule="evenodd" stroke="none" stroke-width="1"/><path id="evk2dvb2hch48" d="M322.907000,138.712000C322.907000,138.712000,330.041000,147.457000,328.536000,153.282000L338.980000,149.120000L331.469000,149.790000C331.469000,149.790000,328.362000,146.909000,328.845000,144.642000C328.845000,144.642000,330.255000,141.999000,327.486000,141.533000C326.664750,140.700266,326.180366,139.593307,326.126000,138.425000L326.126000,138.425000C325.989637,137.684001,325.525343,137.044479,324.863004,136.685339C324.200664,136.326200,323.411398,136.286005,322.716000,136.576000C322.361801,137.265135,322.436154,138.096640,322.907000,138.712000Z" fill="rgb(212,137,105)" fill-rule="evenodd" stroke="none" stroke-width="1"/></g><path id="evk2dvb2hch49" d="M315.091000,174.820000L318.912000,164.443000C318.912000,164.443000,299.741000,155.434000,294.527000,154.805000L290.707000,165.183000Z" fill="rgb(92,178,191)" fill-rule="evenodd" stroke="none" stroke-width="1"/><path id="evk2dvb2hch50" d="M291.916000,159.514000C291.916000,159.514000,314.027000,168.738000,317.096000,171.076000C316.535000,171.937000,311.213000,232.203000,275.655000,255.293000C275.655000,255.293000,262.046000,260.203000,259.666000,248.193000C259.666000,248.190000,250.268000,233.400000,291.916000,159.514000Z" fill="rgb(255,255,255)" fill-rule="evenodd" stroke="none" stroke-width="1"/></g><path id="evk2dvb2hch51" d="M255.058000,159.891000C255.058000,159.891000,250.558000,175.930000,239.027000,185.919000C239.027000,185.919000,254.479000,177.610000,255.058000,159.891000Z" fill="rgb(221,221,221)" fill-rule="evenodd" stroke="none" stroke-width="1"/></g><script><![CDATA[!function(t,n){"object"==typeof exports&&"undefined"!=typeof module?module.exports=n():"function"==typeof define&&define.amd?define(n):(t=t||self).__SVGATOR_PLAYER__=n()}(this,(function(){"use strict";function t(n){return(t="function"==typeof Symbol&&"symbol"==typeof Symbol.iterator?function(t){return typeof t}:function(t){return t&&"function"==typeof Symbol&&t.constructor===Symbol&&t!==Symbol.prototype?"symbol":typeof t})(n)}function n(t,n){if(!(t instanceof n))throw new TypeError("Cannot call a class as a function")}function r(t,n){for(var r=0;r<n.length;r++){var e=n[r];e.enumerable=e.enumerable||!1,e.configurable=!0,"value"in e&&(e.writable=!0),Object.defineProperty(t,e.key,e)}}function e(t,n,e){return n&&r(t.prototype,n),e&&r(t,e),t}var i=1e-5,u=Math.abs;function o(t){return t}function a(t,n,r){var e=1-r;return 3*r*e*(t*e+n*r)+r*r*r}function l(){var t=arguments.length>0&&void 0!==arguments[0]?arguments[0]:0,n=arguments.length>1&&void 0!==arguments[1]?arguments[1]:0,r=arguments.length>2&&void 0!==arguments[2]?arguments[2]:1,e=arguments.length>3&&void 0!==arguments[3]?arguments[3]:1;return t<0||t>1||r<0||r>1?null:u(t-n)<=i&&u(r-e)<=i?o:function(o){if(o<=0)return t>0?o*n/t:0===n&&r>0?o*e/r:0;if(o>=1)return r<1?1+(o-1)*(e-1)/(r-1):1===r&&t<1?1+(o-1)*(n-1)/(t-1):1;for(var l,f=0,s=1;f<s;){var c=a(t,r,l=(f+s)/2);if(u(o-c)<i)break;c<o?f=l:s=l}return a(n,e,l)}}function f(){return 1}function s(t){return 1===t?1:0}function c(){var t=arguments.length>0&&void 0!==arguments[0]?arguments[0]:1,n=arguments.length>1&&void 0!==arguments[1]?arguments[1]:0;if(1===t){if(0===n)return s;if(1===n)return f}var r=1/t;return function(t){return t>=1?1:(t+=n*r)-t%r}}function v(t){var n=arguments.length>1&&void 0!==arguments[1]?arguments[1]:2;if(Number.isInteger(t))return t;var r=Math.pow(10,n);return Math.round(t*r)/r}var h=Math.PI/180;function y(t,n,r){return t>=.5?r:n}function d(t,n,r){return 0===t||n===r?n:t*(r-n)+n}function g(t,n,r){var e=d(t,n,r);return e<=0?0:e}function m(t,n,r){return 0===t?n:1===t?r:{x:d(t,n.x,r.x),y:d(t,n.y,r.y)}}function p(t,n,r){return 0===t?n:1===t?r:{x:g(t,n.x,r.x),y:g(t,n.y,r.y)}}function b(t,n,r){var e=function(t,n,r){return Math.round(d(t,n,r))}(t,n,r);return e<=0?0:e>=255?255:e}function w(t,n,r){return 0===t?n:1===t?r:{r:b(t,n.r,r.r),g:b(t,n.g,r.g),b:b(t,n.b,r.b),a:d(t,null==n.a?1:n.a,null==r.a?1:r.a)}}function A(t,n,r){if(0===t)return n;if(1===t)return r;var e=n.length;if(e!==r.length)return y(t,n,r);for(var i=[],u=0;u<e;u++)i.push(w(t,n[u],r[u]));return i}function x(t,n,r){var e=n.length;if(e!==r.length)return y(t,n,r);for(var i=new Array(e),u=0;u<e;u++)i[u]=d(t,n[u],r[u]);return i}function k(t,n){for(var r=[],e=0;e<t;e++)r.push(n);return r}function S(t,n){if(--n<=0)return t;var r=(t=Object.assign([],t)).length;do{for(var e=0;e<r;e++)t.push(t[e])}while(--n>0);return t}var _=6,M=/\.0+$/g;function I(t){return Number.isInteger(t)?t+"":t.toFixed(_).replace(M,"")}function E(t){var n=arguments.length>1&&void 0!==arguments[1]?arguments[1]:" ";return t&&t.length?t.map(I).join(n):""}function F(t){return I(t.x)+","+I(t.y)}function B(t){return t?null==t.a||t.a>=1?"rgb("+t.r+","+t.g+","+t.b+")":"rgba("+t.r+","+t.g+","+t.b+","+t.a+")":"transparent"}var j={f:null,i:p,u:function(t,n){return function(r){var e=n(r);t.setAttribute("rx",I(e.x)),t.setAttribute("ry",I(e.y))}}},q={f:null,i:function(t,n,r){return 0===t?n:1===t?r:{width:g(t,n.width,r.width),height:g(t,n.height,r.height)}},u:function(t,n){return function(r){var e=n(r);t.setAttribute("width",I(e.width)),t.setAttribute("height",I(e.height))}}},P=Math.sin,O=Math.cos,z=Math.acos,L=Math.asin,C=Math.tan,R=Math.atan2,T=Math.PI/180,V=180/Math.PI,D=Math.sqrt,N=function(){function t(){var r=arguments.length>0&&void 0!==arguments[0]?arguments[0]:1,e=arguments.length>1&&void 0!==arguments[1]?arguments[1]:0,i=arguments.length>2&&void 0!==arguments[2]?arguments[2]:0,u=arguments.length>3&&void 0!==arguments[3]?arguments[3]:1,o=arguments.length>4&&void 0!==arguments[4]?arguments[4]:0,a=arguments.length>5&&void 0!==arguments[5]?arguments[5]:0;n(this,t),this.m=[r,e,i,u,o,a],this.i=null,this.w=null,this.s=null}return e(t,[{key:"point",value:function(t,n){var r=this.m;return{x:r[0]*t+r[2]*n+r[4],y:r[1]*t+r[3]*n+r[5]}}},{key:"translateSelf",value:function(){var t=arguments.length>0&&void 0!==arguments[0]?arguments[0]:0,n=arguments.length>1&&void 0!==arguments[1]?arguments[1]:0;if(!t&&!n)return this;var r=this.m;return r[4]+=r[0]*t+r[2]*n,r[5]+=r[1]*t+r[3]*n,this.w=this.s=this.i=null,this}},{key:"rotateSelf",value:function(){var t=arguments.length>0&&void 0!==arguments[0]?arguments[0]:0;if(t%=360){var n=P(t*=T),r=O(t),e=this.m,i=e[0],u=e[1];e[0]=i*r+e[2]*n,e[1]=u*r+e[3]*n,e[2]=e[2]*r-i*n,e[3]=e[3]*r-u*n,this.w=this.s=this.i=null}return this}},{key:"scaleSelf",value:function(){var t=arguments.length>0&&void 0!==arguments[0]?arguments[0]:1,n=arguments.length>1&&void 0!==arguments[1]?arguments[1]:1;if(1!==t||1!==n){var r=this.m;r[0]*=t,r[1]*=t,r[2]*=n,r[3]*=n,this.w=this.s=this.i=null}return this}},{key:"skewSelf",value:function(t,n){if(n%=360,(t%=360)||n){var r=this.m,e=r[0],i=r[1],u=r[2],o=r[3];t&&(t=C(t*T),r[2]+=e*t,r[3]+=i*t),n&&(n=C(n*T),r[0]+=u*n,r[1]+=o*n),this.w=this.s=this.i=null}return this}},{key:"resetSelf",value:function(){var t=arguments.length>0&&void 0!==arguments[0]?arguments[0]:1,n=arguments.length>1&&void 0!==arguments[1]?arguments[1]:0,r=arguments.length>2&&void 0!==arguments[2]?arguments[2]:0,e=arguments.length>3&&void 0!==arguments[3]?arguments[3]:1,i=arguments.length>4&&void 0!==arguments[4]?arguments[4]:0,u=arguments.length>5&&void 0!==arguments[5]?arguments[5]:0,o=this.m;return o[0]=t,o[1]=n,o[2]=r,o[3]=e,o[4]=i,o[5]=u,this.w=this.s=this.i=null,this}},{key:"recomposeSelf",value:function(){var t=arguments.length>0&&void 0!==arguments[0]?arguments[0]:null,n=arguments.length>1&&void 0!==arguments[1]?arguments[1]:null,r=arguments.length>2&&void 0!==arguments[2]?arguments[2]:null,e=arguments.length>3&&void 0!==arguments[3]?arguments[3]:null,i=arguments.length>4&&void 0!==arguments[4]?arguments[4]:null;return this.isIdentity||this.resetSelf(),t&&(t.x||t.y)&&this.translateSelf(t.x,t.y),n&&this.rotateSelf(n),r&&(r.x&&this.skewSelf(r.x,0),r.y&&this.skewSelf(0,r.y)),!e||1===e.x&&1===e.y||this.scaleSelf(e.x,e.y),i&&(i.x||i.y)&&this.translateSelf(i.x,i.y),this}},{key:"decompose",value:function(){var t=arguments.length>0&&void 0!==arguments[0]?arguments[0]:0,n=arguments.length>1&&void 0!==arguments[1]?arguments[1]:0,r=this.m,e=r[0]*r[0]+r[1]*r[1],i=[[r[0],r[1]],[r[2],r[3]]],u=D(e);if(0===u)return{origin:{x:r[4],y:r[5]},translate:{x:t,y:n},scale:{x:0,y:0},skew:{x:0,y:0},rotate:0};i[0][0]/=u,i[0][1]/=u;var o=r[0]*r[3]-r[1]*r[2]<0;o&&(u=-u);var a=i[0][0]*i[1][0]+i[0][1]*i[1][1];i[1][0]-=i[0][0]*a,i[1][1]-=i[0][1]*a;var l=D(i[1][0]*i[1][0]+i[1][1]*i[1][1]);if(0===l)return{origin:{x:r[4],y:r[5]},translate:{x:t,y:n},scale:{x:u,y:0},skew:{x:0,y:0},rotate:0};i[1][0]/=l,i[1][1]/=l,a/=l;var f=0;return i[1][1]<0?(f=z(i[1][1])*V,i[0][1]<0&&(f=360-f)):f=L(i[0][1])*V,o&&(f=-f),a=R(a,D(i[0][0]*i[0][0]+i[0][1]*i[0][1]))*V,{origin:{x:r[4],y:r[5]},translate:{x:t,y:n},scale:{x:u,y:l},skew:{x:a,y:0},rotate:f}}},{key:"toString",value:function(){return null===this.s&&(this.s="matrix("+this.m.map($).join(" ")+")"),this.s}},{key:"determinant",get:function(){var t=this.m;return t[0]*t[3]-t[1]*t[2]}},{key:"isIdentity",get:function(){if(null===this.i){var t=this.m;this.i=1===t[0]&&0===t[1]&&0===t[2]&&1===t[3]&&0===t[4]&&0===t[5]}return this.i}}]),t}(),G=/\.0+$/;function $(t){return Number.isInteger(t)?t:t.toFixed(14).replace(G,"")}Object.freeze({M:2,L:2,Z:0,H:1,V:1,C:6,Q:4,T:2,S:4,A:7});function H(t,n,r){return t+(n-t)*r}function Q(t,n,r){var e=arguments.length>3&&void 0!==arguments[3]&&arguments[3],i={x:H(t.x,n.x,r),y:H(t.y,n.y,r)};return e&&(i.a=function(t,n){return Math.atan2(n.y-t.y,n.x-t.x)}(t,n)),i}function U(t,n,r,e){var i=1-e;return i*i*t+2*i*e*n+e*e*r}function Y(t,n,r,e){return 2*(1-e)*(n-t)+2*e*(r-n)}function Z(t,n,r,e){var i=arguments.length>4&&void 0!==arguments[4]&&arguments[4],u={x:U(t.x,n.x,r.x,e),y:U(t.y,n.y,r.y,e)};return i&&(u.a=function(t,n,r,e){return Math.atan2(Y(t.y,n.y,r.y,e),Y(t.x,n.x,r.x,e))}(t,n,r,e)),u}function J(t,n,r,e,i){var u=i*i;return i*u*(e-t+3*(n-r))+3*u*(t+r-2*n)+3*i*(n-t)+t}function K(t,n,r,e,i){var u=1-i;return 3*(u*u*(n-t)+2*u*i*(r-n)+i*i*(e-r))}function W(t,n,r,e,i){var u=arguments.length>5&&void 0!==arguments[5]&&arguments[5],o={x:J(t.x,n.x,r.x,e.x,i),y:J(t.y,n.y,r.y,e.y,i)};return u&&(o.a=function(t,n,r,e,i){return Math.atan2(K(t.y,n.y,r.y,e.y,i),K(t.x,n.x,r.x,e.x,i))}(t,n,r,e,i)),o}function X(t,n,r){var e,i=arguments.length>3&&void 0!==arguments[3]&&arguments[3];if(nt(n)){if(null!=(e=r).start&&!nt(e))return Z(n,r.start,r,t,i)}else if(nt(r)){if(n.end)return Z(n,n.end,r,t,i)}else{if(n.end)return r.start?W(n,n.end,r.start,r,t,i):Z(n,n.end,r,t,i);if(r.start)return Z(n,r.start,r,t,i)}return Q(n,r,t,i)}function tt(t,n,r){var e=X(t,n,r,!0);return e.a=function(t){return arguments.length>1&&void 0!==arguments[1]&&arguments[1]?t+Math.PI:t}(e.a)/h,e}function nt(t){return!t.type||"corner"===t.type}var rt=new N;var et={f:function(t){return t?t.join(" "):""},i:function(n,r,e){if(0===n)return r;if(1===n)return e;var i=r.length;if(i!==e.length)return y(n,r,e);for(var u,o=new Array(i),a=0;a<i;a++){if((u=t(r[a]))!==t(e[a]))return y(n,r,e);if("number"===u)o[a]=d(n,r[a],e[a]);else{if(r[a]!==e[a])return y(n,r,e);o[a]=r[a]}}return o}},it={f:null,i:x,u:function(t,n){return function(r){var e=n(r);t.setAttribute("x1",I(e[0])),t.setAttribute("y1",I(e[1])),t.setAttribute("x2",I(e[2])),t.setAttribute("y2",I(e[3]))}}},ut={f:I,i:d},ot={f:I,i:function(t,n,r){var e=d(t,n,r);return e<=0?0:e>=1?1:e}},at={f:E,i:function(t,n,r){var e,i,u,o=n.length,a=r.length;if(o!==a)if(0===o)n=k(o=a,0);else if(0===a)a=o,r=k(o,0);else{var l=(u=(e=o)*(i=a)/function(t,n){for(var r;n;)r=n,n=t%n,t=r;return t||1}(e,i))<0?-u:u;n=S(n,Math.floor(l/o)),r=S(r,Math.floor(l/a)),o=a=l}for(var f=[],s=0;s<o;s++)f.push(v(g(t,n[s],r[s]),6));return f}};function lt(t,n,r,e,i,u,o,a){return n=function(t,n,r){for(var e,i,u,o=t.length-1,a={},l=0;l<=o;l++)(e=t[l]).e&&(e.e=n(e.e)),e.v&&"g"===(i=e.v).t&&i.r&&(u=r.getElementById(i.r))&&(a[i.r]=u.querySelectorAll("stop"));return a}(t,e,a),function(e){var i,u=r(e,t,ft);return u?"c"===u.t?B(u.v):"g"===u.t?(n[u.r]&&function(t,n){for(var r=0,e=t.length;r<e;r++)t[r].setAttribute("stop-color",B(n[r]))}(n[u.r],u.v),(i=u.r)?"url(#"+i+")":"none"):"none":"none"}}function ft(t,n,r){if(0===t)return n;if(1===t)return r;if(n&&r){var e=n.t;if(e===r.t)switch(n.t){case"c":return{t:e,v:w(t,n.v,r.v)};case"g":if(n.r===r.r)return{t:e,v:A(t,n.v,r.v),r:n.r}}}return y(t,n,r)}var st={blur:p,brightness:g,contrast:g,"drop-shadow":function(t,n,r){return 0===t?n:1===t?r:{blur:p(t,n.blur,r.blur),offset:m(t,n.offset,r.offset),color:w(t,n.color,r.color)}},grayscale:g,"hue-rotate":d,invert:g,opacity:g,saturate:g,sepia:g};function ct(t,n,r){if(0===t)return n;if(1===t)return r;var e=n.length;if(e!==r.length)return y(t,n,r);for(var i,u=[],o=0;o<e;o++){if(n[o].type!==r[o].type)return n;if(!(i=st[n[o].type]))return y(t,n,r);u.push({type:n.type,value:i(t,n[o].value,r[o].value)})}return u}var vt={blur:function(t){return t?function(n){t.setAttribute("stdDeviation",F(n))}:null},brightness:function(t,n,r){return(t=yt(r,n))?function(n){n=I(n),t.map((function(t){return t.setAttribute("slope",n)}))}:null},contrast:function(t,n,r){return(t=yt(r,n))?function(n){var r=I((1-n)/2);n=I(n),t.map((function(t){t.setAttribute("slope",n),t.setAttribute("intercept",r)}))}:null},"drop-shadow":function(t,n,r){var e=r.getElementById(n+"-blur");if(!e)return null;var i=r.getElementById(n+"-offset");if(!i)return null;var u=r.getElementById(n+"-flood");return u?function(t){e.setAttribute("stdDeviation",F(t.blur)),i.setAttribute("dx",I(t.offset.x)),i.setAttribute("dy",I(t.offset.y)),u.setAttribute("flood-color",B(t.color))}:null},grayscale:function(t){return t?function(n){t.setAttribute("values",E(function(t){return[.2126+.7874*(t=1-t),.7152-.7152*t,.0722-.0722*t,0,0,.2126-.2126*t,.7152+.2848*t,.0722-.0722*t,0,0,.2126-.2126*t,.7152-.7152*t,.0722+.9278*t,0,0,0,0,0,1,0]}(n)))}:null},"hue-rotate":function(t){return t?function(n){return t.setAttribute("values",I(n))}:null},invert:function(t,n,r){return(t=yt(r,n))?function(n){n=I(n)+" "+I(1-n),t.map((function(t){return t.setAttribute("tableValues",n)}))}:null},opacity:function(t,n,r){return(t=r.getElementById(n+"-A"))?function(n){return t.setAttribute("tableValues","0 "+I(n))}:null},saturate:function(t){return t?function(n){return t.setAttribute("values",I(n))}:null},sepia:function(t){return t?function(n){return t.setAttribute("values",E(function(t){return[.393+.607*(t=1-t),.769-.769*t,.189-.189*t,0,0,.349-.349*t,.686+.314*t,.168-.168*t,0,0,.272-.272*t,.534-.534*t,.131+.869*t,0,0,0,0,0,1,0]}(n)))}:null}};var ht=["R","G","B"];function yt(t,n){var r=ht.map((function(r){return t.getElementById(n+"-"+r)||null}));return-1!==r.indexOf(null)?null:r}var dt={fill:lt,"fill-opacity":ot,stroke:lt,"stroke-opacity":ot,"stroke-width":ut,"stroke-dashoffset":{f:I,i:d},"stroke-dasharray":at,opacity:ot,transform:function(n,r,e,i){if(!(n=function(n,r){if(!n||"object"!==t(n))return null;var e=!1;for(var i in n)n.hasOwnProperty(i)&&(n[i]&&n[i].length?(n[i].forEach((function(t){t.e&&(t.e=r(t.e))})),e=!0):delete n[i]);return e?n:null}(n,i)))return null;var u=function(t,i,u){var o=arguments.length>3&&void 0!==arguments[3]?arguments[3]:null;return n[t]?e(i,n[t],u):r&&r[t]?r[t]:o};return r&&r.a&&n.o?function(t){var r=e(t,n.o,tt);return rt.recomposeSelf(r,u("r",t,d,0)+r.a,u("k",t,m),u("s",t,m),u("t",t,m)).toString()}:function(t){return rt.recomposeSelf(u("o",t,X,null),u("r",t,d,0),u("k",t,m),u("s",t,m),u("t",t,m)).toString()}},"#filter":function(t,n,r,e,i,u,o,a){if(!n.items||!t||!t.length)return null;var l=function(t,n){var r=(t=t.map((function(t){return t&&vt[t[0]]?(n.getElementById(t[1]),vt[t[0]](n.getElementById(t[1]),t[1],n)):null}))).length;return function(n){for(var e=0;e<r;e++)t[e]&&t[e](n[e].value)}}(n.items,a);return l?(t=function(t,n){return t.map((function(t){return t.e=n(t.e),t}))}(t,e),function(n){l(r(n,t,ct))}):null},"#line":it,points:{f:E,i:x},d:et,r:ut,"#size":q,"#radius":j,_:function(t,n){if(Array.isArray(t))for(var r=0;r<t.length;r++)this[t[r]]=n;else this[t]=n}},gt=function(){function t(r){n(this,t),this.list=r,this.length=r.length}return e(t,[{key:"setAttribute",value:function(t,n){for(var r=this.list,e=0;e<this.length;e++)r[e].setAttribute(t,n)}},{key:"removeAttribute",value:function(t){for(var n=this.list,r=0;r<this.length;r++)n[r].removeAttribute(t)}},{key:"style",value:function(t,n){for(var r=this.list,e=0;e<this.length;e++)r[e].style[t]=n}}]),t}(),mt=/-./g,pt=function(t,n){return n.toUpperCase()};function bt(t){return"function"==typeof t?t:y}function wt(t){return t?"function"==typeof t?t:Array.isArray(t)?function(t){var n=arguments.length>1&&void 0!==arguments[1]?arguments[1]:o;if(!Array.isArray(t))return n;switch(t.length){case 1:return c(t[0])||n;case 2:return c(t[0],t[1])||n;case 4:return l(t[0],t[1],t[2],t[3])||n}return n}(t,null):function(t,n){var r=arguments.length>2&&void 0!==arguments[2]?arguments[2]:o;switch(t){case"linear":return o;case"steps":return c(n.steps||1,n.jump||0)||r;case"bezier":case"cubic-bezier":return l(n.x1||0,n.y1||0,n.x2||0,n.y2||0)||r}return r}(t.type,t.value,null):null}function At(t,n,r){var e=arguments.length>3&&void 0!==arguments[3]&&arguments[3],i=n.length-1;if(t<=n[0].t)return e?[0,0,n[0].v]:n[0].v;if(t>=n[i].t)return e?[i,1,n[i].v]:n[i].v;var u,o=n[0],a=null;for(u=1;u<=i;u++){if(!(t>n[u].t)){a=n[u];break}o=n[u]}return null==a?e?[i,1,n[i].v]:n[i].v:o.t===a.t?e?[u,1,a.v]:a.v:(t=(t-o.t)/(a.t-o.t),o.e&&(t=o.e(t)),e?[u,t,r(t,o.v,a.v)]:r(t,o.v,a.v))}function xt(t,n){var r=arguments.length>2&&void 0!==arguments[2]?arguments[2]:null;return t&&t.length?"function"!=typeof n?null:("function"!=typeof r&&(r=null),function(e){var i=At(e,t,n);return null!=i&&r&&(i=r(i)),i}):null}function kt(t,n){return t.t-n.t}function St(n,r,e,i,u){var o,a="@"===e[0],l="#"===e[0],f=dt[e],s=y;switch(a?(o=e.substr(1),e=o.replace(mt,pt)):l&&(e=e.substr(1)),t(f)){case"function":if(s=f(i,u,At,wt,e,a,r,n),l)return s;break;case"string":s=xt(i,bt(f));break;case"object":if((s=xt(i,bt(f.i),f.f))&&"function"==typeof f.u)return f.u(r,s,e,a,n)}return s?function(t,n,r){if(arguments.length>3&&void 0!==arguments[3]&&arguments[3])return t instanceof gt?function(e){return t.style(n,r(e))}:function(e){return t.style[n]=r(e)};if(Array.isArray(n)){var e=n.length;return function(i){var u=r(i);if(null==u)for(var o=0;o<e;o++)t[o].removeAttribute(n);else for(var a=0;a<e;a++)t[a].setAttribute(n,u)}}return function(e){var i=r(e);null==i?t.removeAttribute(n):t.setAttribute(n,i)}}(r,e,s,a):null}function _t(n,r,e,i){if(!i||"object"!==t(i))return null;var u=null,o=null;return Array.isArray(i)?o=function(t){if(!t||!t.length)return null;for(var n=0;n<t.length;n++)t[n].e&&(t[n].e=wt(t[n].e));return t.sort(kt)}(i):(o=i.keys,u=i.data||null),o?St(n,r,e,o,u):null}function Mt(t,n,r){if(!r)return null;var e=[];for(var i in r)if(r.hasOwnProperty(i)){var u=_t(t,n,i,r[i]);u&&e.push(u)}return e.length?e:null}function It(t,n){if(!n.duration||n.duration<0)return null;var r=function(t,n){if(!n)return null;var r=[];if(Array.isArray(n))for(var e=n.length,i=0;i<e;i++){var u=n[i];if(2===u.length){var o=null;if("string"==typeof u[0])o=t.getElementById(u[0]);else if(Array.isArray(u[0])){o=[];for(var a=0;a<u[0].length;a++)if("string"==typeof u[0][a]){var l=t.getElementById(u[0][a]);l&&o.push(l)}o=o.length?1===o.length?o[0]:new gt(o):null}if(o){var f=Mt(t,o,u[1]);f&&(r=r.concat(f))}}}else for(var s in n)if(n.hasOwnProperty(s)){var c=t.getElementById(s);if(c){var v=Mt(t,c,n[s]);v&&(r=r.concat(v))}}return r.length?r:null}(t,n.elements);return r?function(t,n){var r=arguments.length>2&&void 0!==arguments[2]?arguments[2]:1/0,e=arguments.length>3&&void 0!==arguments[3]?arguments[3]:1,i=arguments.length>4&&void 0!==arguments[4]&&arguments[4],u=arguments.length>5&&void 0!==arguments[5]?arguments[5]:1,o=t.length,a=e>0?n:0;i&&r%2==0&&(a=n-a);var l=null;return function(f,s){var c=f%n,v=1+(f-c)/n;s*=e,i&&v%2==0&&(s=-s);var h=!1;if(v>r)c=a,h=!0,-1===u&&(c=e>0?0:n);else if(s<0&&(c=n-c),c===l)return!1;l=c;for(var y=0;y<o;y++)t[y](c);return h}}(r,n.duration,n.iterations||1/0,n.direction||1,!!n.alternate,n.fill||1):null}var Et=function(){function t(r){var e=arguments.length>1&&void 0!==arguments[1]?arguments[1]:{};n(this,t),this._id=0,this._running=!1,this._animations=r,this.direction=e.direction||1,this.speed=e.speed||1,this.fps=e.fps||100,this.offset=e.offset||0}return e(t,[{key:"_start",value:function(){var t=this,n=arguments.length>0&&void 0!==arguments[0]?arguments[0]:0,r=-1/0,e=null,i={},u=function u(o){t._running=!0,null==e&&(e=o);var a=Math.round((o-e+n)*t.speed),l=t.fps?1e3/t.fps:0;if(a>r+l){t.offset=a,r=a;for(var f=t._animations,s=f.length,c=0,v=0;v<s;v++)i[v]?c++:(i[v]=f[v](a,t.direction),i[v]&&c++);if(c===s)return void t._stop()}t._id=window.requestAnimationFrame(u)};this._id=window.requestAnimationFrame(u)}},{key:"_stop",value:function(){this._id&&window.cancelAnimationFrame(this._id),this._running=!1}},{key:"play",value:function(){this._running||this._start(this.offset)}},{key:"stop",value:function(){this._stop(),this.offset=0;var t=this.direction,n=this._animations;requestAnimationFrame((function(){for(var r=0;r<n.length;r++)n[r](0,t)}))}},{key:"restart",value:function(){this._stop(),this.offset=0,this._start()}},{key:"pause",value:function(){this._stop()}},{key:"reverse",value:function(){this.direction=-this.direction}}],[{key:"build",value:function(n){if(!(n=function(t){if(!t||!t.root||!Array.isArray(t.animations))return null;var n=window.document.getElementById(t.root);if(!n)return null;var r=t.animations.map((function(t){return It(n,t)})).filter((function(t){return!!t}));return r.length?{element:n,animations:r,options:t.options||void 0}:null}(n)))return null;var r=n.element,e=n.options||{},i=new t(n.animations,n.options);return function(t,n,r){var e=arguments.length>3&&void 0!==arguments[3]?arguments[3]:null;if("click"===r){return void n.addEventListener("click",(function r(){n.removeEventListener("click",r),t.play()}))}if("hover"===r)return n.addEventListener("mouseenter",(function(){return t.play()})),void n.addEventListener("mouseleave","freeze"===e?function(){return t.pause()}:function(){return t.stop()});t.play()}(i,r,e.start,e.hover),i}}]),t}();return function(){for(var t=0,n=["ms","moz","webkit","o"],r=0;r<n.length&&!window.requestAnimationFrame;++r)window.requestAnimationFrame=window[n[r]+"RequestAnimationFrame"],window.cancelAnimationFrame=window[n[r]+"CancelAnimationFrame"]||window[n[r]+"CancelRequestAnimationFrame"];window.requestAnimationFrame||(window.requestAnimationFrame=function(n){var r=Date.now(),e=Math.max(0,16-(r-t)),i=window.setTimeout((function(){n(r+e)}),e);return t=r+e,i},window.cancelAnimationFrame=window.clearTimeout)}(),Et}));
__SVGATOR_PLAYER__.build({"root":"evk2dvb2hch1","animations":[{"duration":4000,"direction":1,"iterations":0,"fill":1,"alternate":false,"elements":{"evk2dvb2hch11":{"transform":{"data":{"o":{"x":183.253978155,"y":130.59164035000003,"type":"corner"},"t":{"x":-178.57232882,"y":-131.38401899000002}},"keys":{"r":[{"t":0,"v":0},{"t":2000,"v":-16.978934583202747},{"t":4000,"v":0}]}}},"evk2dvb2hch20":{"transform":{"data":{"o":{"x":216.565881975,"y":82.18050184999998,"type":"corner"},"t":{"x":-216.565881975,"y":-82.18050184999998}},"keys":{"r":[{"t":0,"v":0},{"t":2000,"v":-15.50350317864806},{"t":4000,"v":0}]}}},"evk2dvb2hch34":{"transform":{"data":{"o":{"x":102.59158687499999,"y":257.09114261,"type":"corner"},"t":{"x":-102.59158687499999,"y":-257.09114261}},"keys":{"r":[{"t":0,"v":-6.0354945452276025},{"t":2000,"v":0},{"t":4000,"v":-6.0354945452276025}]}}},"evk2dvb2hch36":{"transform":{"data":{"o":{"x":65.3445,"y":163.5,"type":"corner"},"t":{"x":-65.3445,"y":-163.5}},"keys":{"r":[{"t":0,"v":-7.298893543383942},{"t":2000,"v":0},{"t":4000,"v":-7.298893543383942}]}}},"evk2dvb2hch44":{"transform":{"data":{"o":{"x":267.49002262,"y":255.37937769,"type":"corner"},"t":{"x":-267.49002262,"y":-255.37937769}},"keys":{"r":[{"t":0,"v":5.555583733012134},{"t":2000,"v":0},{"t":4000,"v":5.555583733012134}]}}},"evk2dvb2hch46":{"transform":{"data":{"o":{"x":304.80949999999996,"y":160,"type":"corner"},"t":{"x":-304.80949999999996,"y":-160}},"keys":{"r":[{"t":0,"v":7.336263258693437},{"t":2000,"v":0},{"t":4000,"v":7.336263258693437}]}}}}}],"options":{"start":"load","hover":"freeze"}})]]></script></svg>