<svg id="edi1ny4a8741" xmlns="http://www.w3.org/2000/svg" xmlns:xlink="http://www.w3.org/1999/xlink" viewBox="0 0 370 290" shape-rendering="geometricPrecision" text-rendering="geometricPrecision" width="370" height="290"><g id="edi1ny4a8742"><path id="edi1ny4a8743" d="M185,290L121,290L121,192C121,147.339000,146,141,146,141C158.452000,140.344000,185,140,185,140C185,140,211.548000,140.344000,224,141C224,141,249,147.339000,249,192L249,290L185,290Z" fill="rgb(255,255,255)" fill-rule="evenodd" stroke="none" stroke-width="1"/><path id="edi1ny4a8744" d="M235,202.500000C235,210.508129,228.508129,217,220.500000,217C212.491871,217,206,210.508129,206,202.500000L206,185L235,185L235,202.500000Z" fill="rgb(221,221,221)" fill-rule="evenodd" stroke="none" stroke-width="1"/><path id="edi1ny4a8745" d="M235,200.500000C235,208.508129,228.508129,215,220.500000,215C212.491871,215,206,208.508129,206,200.500000L206,183L235,183L235,200.500000Z" fill="rgb(245,245,245)" fill-rule="evenodd" stroke="none" stroke-width="1"/><path id="edi1ny4a8746" d="M223.220000,186C223.220000,186,215.520000,200.948000,215.320000,204.271000C215.120000,207.594000,216.852000,205.271000,217.095000,204.309000C217.338000,203.347000,218.005000,200.490000,218.962000,197.462000C219.962000,194.287000,223.222000,186,223.222000,186M225.922000,191.050000C225.922000,191.050000,220.592000,202.136000,220.513000,204.578000C220.434000,207.020000,221.657000,205.289000,221.813000,204.578000C221.969000,203.867000,222.400000,201.762000,223.037000,199.526000C223.707000,197.181000,225.920000,191.050000,225.920000,191.050000M227.526000,195.678000C227.526000,195.678000,223.895000,203.233000,223.841000,204.895000C223.787000,206.557000,224.621000,205.380000,224.729000,204.895000C224.837000,204.410000,225.129000,202.977000,225.563000,201.453000C226.019000,199.853000,227.526000,195.678000,227.526000,195.678000M230,198.948000L212,198.948000L212,198.809000L230,198.809000L230,198.948000Z" fill="rgb(88,89,91)" fill-rule="evenodd" stroke="none" stroke-width="1"/><rect id="edi1ny4a8747" width="2" height="67" rx="0" ry="0" transform="matrix(1 0 0 1 184 223)" fill="rgb(221,221,221)" stroke="none" stroke-width="1"/></g><g id="edi1ny4a8748"><path id="edi1ny4a8749" d="M208,139L185,161L162,139C168.300000,133.248000,168,118,168,118L202,118C202,118,201.700000,133.248000,208,139Z" fill="rgb(249,161,123)" fill-rule="evenodd" stroke="none" stroke-width="1"/><path id="edi1ny4a87410" d="M185,118L202,118C201.988005,122.423437,202.554474,126.829454,203.685000,131.106000C194.580000,139.500000,185,139,185,139C185,139,175.417000,139.500000,166.333000,131.043000C167.450595,126.785760,168.010941,122.401476,168,118L185,118Z" fill="rgb(235,152,116)" fill-rule="evenodd" stroke="none" stroke-width="1"/><g id="edi1ny4a87411"><path id="edi1ny4a87412" d="M219.707000,84.589000C215,132.160000,185.555000,130.589000,185.555000,130.589000C185.555000,130.589000,156.241000,132.160000,151.555000,84.589000C151.555000,84.589000,142.173000,26.589000,185.555000,26.589000C229.131000,26.589000,219.707000,84.589000,219.707000,84.589000Z" fill="rgb(249,161,123)" fill-rule="evenodd" stroke="none" stroke-width="1"/><path id="edi1ny4a87413" d="M219.200000,84.336000C214.951000,127.282000,190.829000,130.750000,185.567000,130.992000L185.567000,131C185.567000,131,185.389000,131.009000,185.060000,131C184.731000,130.991000,184.553000,131,184.553000,131L184.553000,130.989000C179.291000,130.746000,155.169000,127.278000,150.919000,84.333000C150.393208,80.635712,150.107609,76.908232,150.064000,73.174000L152.957000,73.174000C152.957000,73.174000,158.737000,104.207000,171.300000,105.653000C171.300000,105.653000,175.200000,101.940000,184.553000,101.612000L184.553000,101.580000C184.728000,101.580000,184.888000,101.593000,185.060000,101.596000C185.232000,101.599000,185.392000,101.580000,185.567000,101.580000L185.567000,101.612000C194.921000,101.940000,198.819000,105.653000,198.819000,105.653000C211.382000,104.207000,217.162000,73.174000,217.162000,73.174000L220.056000,73.174000C220.012543,76.909272,219.726608,80.637781,219.200000,84.336000Z" opacity="0.15" fill="rgb(0,0,0)" fill-rule="evenodd" stroke="none" stroke-width="1"/><path id="edi1ny4a87414" d="M151.555000,69.589000C151.555000,69.589000,165.010000,58.189000,170.555000,54.589000C170.555000,54.589000,196.127000,62.997000,215.555000,66.589000L215.555000,40.589000L150.555000,40.589000Z" fill="rgb(235,152,116)" fill-rule="evenodd" stroke="none" stroke-width="1"/><path id="edi1ny4a87415" d="M150.555000,85.589000C150.555000,85.589000,151.608000,87.644000,152.555000,85.589000C153.502000,83.534000,152.077000,69.802000,152.555000,68.589000C153.033000,67.376000,155.281000,59.412000,161.555000,54.589000C164.524026,52.523865,166.370126,49.200886,166.555000,45.589000C166.739874,41.977114,183.541000,54.176000,202.555000,56.589000C202.555000,56.589000,217.655000,67.119000,218.555000,86.589000C218.555000,86.589000,219.296000,89.869000,220.555000,86.589000C224.421753,84.667632,227.831696,81.939678,230.555000,78.589000C235.433000,72.389000,230.176000,63.489000,232.555000,58.589000C234.934000,53.689000,235.736000,43.035000,226.555000,32.589000C217.374000,22.143000,211.181000,8.534000,185.555000,16.589000C182.514979,18.386762,179.082593,19.416478,175.555000,19.589000C172.027407,19.761522,156.211000,14.402000,148.555000,22.589000C140.899000,30.776000,138.124000,35.774000,141.555000,45.589000C144.986000,55.404000,140.555000,60.789000,140.555000,61.589000C140.555000,62.389000,140.161000,75.274000,150.555000,82.589000L150.555000,85.589000Z" fill="rgb(55,64,72)" fill-rule="evenodd" stroke="none" stroke-width="1"/><path id="edi1ny4a87416" d="M166.555000,31.589000C166.555000,31.589000,176.629000,16.265000,197.555000,24.589000C218.481000,32.913000,212.835000,49.081000,221.555000,61.589000C221.555000,61.589000,212.467000,50.612000,209.555000,44.589000C206.643000,38.566000,186.802000,25.689000,172.555000,35.589000C172.555000,35.589000,165.120000,40.751000,166.555000,31.589000Z" fill="rgb(75,83,91)" fill-rule="evenodd" stroke="none" stroke-width="1"/><path id="edi1ny4a87417" d="M227.942000,90.293000C223.505000,106.479000,215.555000,103.338000,215.555000,103.338000L218.655000,85.276000C221.708000,82.236000,221.755000,77.248000,221.755000,77.248000C231.432000,73.037000,227.942000,90.293000,227.942000,90.293000ZM143.555000,90.593000C143.555000,90.593000,140.173000,73.393000,149.555000,77.593000C149.555000,77.593000,149.597000,82.564000,152.555000,85.593000L155.555000,103.593000C155.555000,103.593000,147.853000,106.719000,143.555000,90.589000Z" fill="rgb(249,161,123)" fill-rule="evenodd" stroke="none" stroke-width="1"/><g id="edi1ny4a87418"><path id="edi1ny4a87419" d="M178.900000,69.194000C178.900000,69.194000,168.462000,67.937000,164.162000,70.062000C159.862000,72.187000,159.424000,77.641000,161.639000,76.814000C163.854000,75.987000,176.951000,70.964000,178.258000,71.554000C178.260000,71.553000,180.715000,71.110000,178.900000,69.194000Z" transform="matrix(0.97335516206257 0.22930270056445 -0.22930270056445 0.97335516206257 21.83516138015386 -34.72312497990055)" fill="rgb(55,64,72)" fill-rule="evenodd" stroke="none" stroke-width="1"/><path id="edi1ny4a87420" d="M190.563000,71.633000C190.563000,71.633000,200.319000,67.718000,205.023000,68.657000C209.727000,69.596000,211.560000,74.751000,209.207000,74.526000C206.854000,74.301000,192.907000,72.838000,191.794000,73.746000C191.794000,73.746000,189.307000,73.953000,190.563000,71.633000Z" fill="rgb(55,64,72)" fill-rule="evenodd" stroke="none" stroke-width="1"/><ellipse id="edi1ny4a87421" rx="3" ry="4" transform="matrix(1 0 0 1 170.56200000000001 80.59399999999999)" fill="rgb(78,55,55)" stroke="none" stroke-width="1"/><ellipse id="edi1ny4a87422" rx="3" ry="4" transform="matrix(1 0 0 1 200.56199999999967 80.59400000000029)" fill="rgb(78,55,55)" stroke="none" stroke-width="1"/><path id="edi1ny4a87423" d="M185.177000,99.590000C185.014508,99.589746,184.854297,99.551748,184.709000,99.479000C184.499000,99.373000,184.203000,99.261000,183.865000,99.129000C182.432000,98.574000,180.265000,97.736000,179.689000,95.998000C179.398948,94.992876,179.600214,93.909817,180.232000,93.076000C181.248000,91.510000,183.189000,82.676000,184.174000,77.482000C184.283719,76.934283,184.814303,76.577287,185.363000,76.682000C185.626151,76.726189,185.860728,76.873715,186.014541,77.091758C186.168354,77.309801,186.228645,77.580273,186.182000,77.843000C185.914000,79.258000,183.518000,91.737000,181.957000,94.143000C181.668553,94.486487,181.548956,94.941031,181.631000,95.382000C181.913000,96.229000,183.606000,96.882000,184.618000,97.276000C185.029000,97.436000,185.389000,97.576000,185.646000,97.707000C185.884875,97.824192,186.066248,98.032951,186.148917,98.285857C186.231587,98.538762,186.208536,98.814343,186.085000,99.050000C185.905714,99.384285,185.556322,99.592073,185.177000,99.590000Z" fill="rgb(212,137,105)" fill-rule="evenodd" stroke="none" stroke-width="1"/><path id="edi1ny4a87424" d="M185.107000,106.151000C188.697000,106.151000,191.607000,109.957000,191.607000,114.651000C191.607000,119.345000,188.697000,123.151000,185.107000,123.151000C181.517000,123.151000,178.607000,119.345000,178.607000,114.651000C178.607000,109.957000,181.517000,106.151000,185.107000,106.151000Z" fill="rgb(152,98,75)" fill-rule="evenodd" stroke="none" stroke-width="1"/><path id="edi1ny4a87425" d="M178.607000,111.151000C178.607000,111.151000,186.107000,109.808000,191.607000,111.151000C191.607000,111.151000,190.294000,106.151000,185.698000,106.151000L184.516000,106.151000C184.516000,106.151000,180.847000,106.176000,178.607000,111.151000Z" fill="rgb(255,255,255)" fill-rule="evenodd" stroke="none" stroke-width="1"/></g></g></g><g id="edi1ny4a87426"><path id="edi1ny4a87427" d="M185,226L165,154L205,154Z" fill="rgb(79,152,163)" fill-rule="evenodd" stroke="none" stroke-width="1"/><path id="edi1ny4a87428" d="M185,226L176.740000,196.264000L181,169L189,169L193.260000,196.264000Z" fill="rgb(10,59,105)" fill-rule="evenodd" stroke="none" stroke-width="1"/><path id="edi1ny4a87429" d="M193,163C193,167.418278,189.418278,171,185,171C180.581722,171,177,167.418278,177,163L177,156L193,156L193,163Z" fill="rgb(12,72,129)" fill-rule="evenodd" stroke="none" stroke-width="1"/><path id="edi1ny4a87430" d="M196,171C193.306446,165.059216,189.582298,159.642273,185,155L208,131C217.278000,133.859000,220,141,220,141C218.536000,143.333000,196,171,196,171ZM150,141C150,141,152.722000,133.859000,162,131L185,155C180.417702,159.642273,176.693554,165.059216,174,171C171.306446,176.940784,151.463000,143.333000,150,141Z" fill="rgb(92,178,191)" fill-rule="evenodd" stroke="none" stroke-width="1"/></g><g id="edi1ny4a87431"><path id="edi1ny4a87432" d="M136,196L145,142C145,142,114.987000,154.835000,113,157C111.013000,159.165000,88.053000,223.171000,90,237C90,237,84.800000,254.100000,99,257C99,257,118.118000,262.100000,136,196Z" fill="rgb(255,255,255)" fill-rule="evenodd" stroke="none" stroke-width="1"/><path id="edi1ny4a87433" d="M136,196C136,196,131.063000,221.881000,125,236L121,261L121,234C121,234,135.416000,197.020000,136,196Z" fill="rgb(221,221,221)" fill-rule="evenodd" stroke="none" stroke-width="1"/><path id="edi1ny4a87434" d="M115,160C115,160,119.488000,176.021000,131,186C131,186,115.578000,177.700000,115,160Z" fill="rgb(221,221,221)" fill-rule="evenodd" stroke="none" stroke-width="1"/><path id="edi1ny4a87435" d="M159.882000,188.040000C159.882000,188.040000,140.868000,173.540000,137.314000,172.050000C136.849000,172.965000,91.214000,203.995000,88.979000,246.263000C88.979000,246.263000,91.523000,260.478000,103.102000,256.535000C103.100000,256.535000,116.747000,260.942000,159.882000,188.040000Z" transform="matrix(1 0 0 1 0 -3)" fill="rgb(255,255,255)" fill-rule="evenodd" stroke="none" stroke-width="1"/><path id="edi1ny4a87436" d="M233.910000,196L224.900000,142C224.900000,142,254.951000,154.835000,256.940000,157C258.929000,159.165000,281.918000,223.171000,279.969000,237C279.969000,237,285.169000,254.100000,270.957000,257C270.956000,257,251.814000,262.100000,233.910000,196Z" fill="rgb(255,255,255)" fill-rule="evenodd" stroke="none" stroke-width="1"/><path id="edi1ny4a87437" d="M233.910000,196C233.910000,196,238.853000,221.881000,244.924000,236L248.924000,261L248.924000,234C248.924000,234,234.494000,197.020000,233.910000,196Z" fill="rgb(221,221,221)" fill-rule="evenodd" stroke="none" stroke-width="1"/><path id="edi1ny4a87438" d="M254.936000,160C254.936000,160,250.442000,176.021000,238.916000,186C238.916000,186,254.358000,177.700000,254.936000,160Z" fill="rgb(221,221,221)" fill-rule="evenodd" stroke="none" stroke-width="1"/><path id="edi1ny4a87439" d="M210,188.040000C210,188.040000,229.038000,173.540000,232.600000,172.050000C233.065000,172.965000,278.761000,203.995000,281,246.263000C281,246.263000,278.453000,260.478000,266.859000,256.535000C266.849000,256.535000,253.187000,260.942000,210,188.040000Z" transform="matrix(1 0 0 1 0 -3)" fill="rgb(255,255,255)" fill-rule="evenodd" stroke="none" stroke-width="1"/><g id="edi1ny4a87440"><path id="edi1ny4a87441" d="M237,247L237,253C237,257.418278,233.418278,261,229,261L141,261C136.581722,261,133,257.418278,133,253L133,247L237,247Z" fill="rgb(221,221,221)" fill-rule="evenodd" stroke="none" stroke-width="1"/><rect id="edi1ny4a87442" width="110" height="80" rx="8" ry="8" transform="matrix(1 0 0 1 130 178)" fill="rgb(235,235,235)" stroke="none" stroke-width="1"/><path id="edi1ny4a87443" d="M142,195L150,195L150,203L142,203L142,195ZM155,195L163,195L163,203L155,203L155,195ZM181,195L189,195L189,203L181,203L181,195ZM194,195L202,195L202,203L194,203L194,195ZM207,195L215,195L215,203L207,203L207,195ZM220,195L228,195L228,203L220,203L220,195ZM142,208L150,208L150,216L142,216L142,208ZM155,208L163,208L163,216L155,216L155,208ZM168,208L176,208L176,216L168,216L168,208ZM181,208L189,208L189,216L181,216L181,208ZM194,208L202,208L202,216L194,216L194,208ZM207,208L215,208L215,216L207,216L207,208ZM220,208L228,208L228,216L220,216L220,208ZM142,221L150,221L150,229L142,229L142,221ZM155,221L163,221L163,229L155,229L155,221ZM168,221L176,221L176,229L168,229L168,221ZM181,221L189,221L189,229L181,229L181,221ZM194,221L202,221L202,229L194,229L194,221ZM207,221L215,221L215,229L207,229L207,221ZM220,221L228,221L228,229L220,229L220,221ZM142,234L150,234L150,242L142,242L142,234ZM155,234L163,234L163,242L155,242L155,234ZM168,234L176,234L176,242L168,242L168,234ZM181,234L189,234L189,242L181,242L181,234ZM194,234L202,234L202,242L194,242L194,234ZM207,234L215,234L215,242L207,242L207,234ZM220,234L228,234L228,242L220,242L220,234Z" fill="rgb(204,204,204)" fill-rule="evenodd" stroke="none" stroke-width="1"/><path id="edi1ny4a87444" d="M173.987000,198.934000L176.830000,196.091000C176.997503,195.923526,177.091607,195.696365,177.091607,195.459500C177.091607,195.222635,176.997503,194.995474,176.830000,194.828000L176.200000,194.200000C176.032526,194.032497,175.805365,193.938393,175.568500,193.938393C175.331635,193.938393,175.104474,194.032497,174.937000,194.200000L172.094000,197.043000L169.250000,194.200000C168.900906,193.851076,168.335094,193.851076,167.986000,194.200000L167.354000,194.832000C167.186497,194.999474,167.092393,195.226635,167.092393,195.463500C167.092393,195.700365,167.186497,195.927526,167.354000,196.095000L170.197000,198.938000L167.354000,201.780000C167.005076,202.129094,167.005076,202.694906,167.354000,203.044000L167.986000,203.676000C168.336443,204.021651,168.899557,204.021651,169.250000,203.676000L172.092000,200.833000L174.935000,203.676000C175.283979,204.024258,175.849021,204.024258,176.198000,203.676000L176.830000,203.044000C177.178924,202.694906,177.178924,202.129094,176.830000,201.780000Z" opacity="0" fill="rgb(211,81,81)" fill-rule="evenodd" stroke="none" stroke-width="1"/><path id="edi1ny4a87445" d="M207.100000,184.576000L210.885000,184.576000C212.085013,184.539537,213.028761,183.538064,212.994000,182.338000L212.994000,185.763000C212.960338,186.961332,213.901818,187.961375,215.100000,188L218.885000,188C220.084367,187.962991,221.027642,186.962466,220.994000,185.763000L220.994000,182.338000C220.959239,183.538064,221.902987,184.539537,223.103000,184.576000L226.888000,184.576000C228.089198,184.541158,229.034745,183.539201,229,182.338000L229,178.914000C228.965244,180.113890,229.909144,181.115078,231.109000,181.151000L234.894000,181.151000C236.092671,181.113459,237.034773,180.112754,237,178.914000L237,171.358000C236.998135,170.997834,236.912186,170.643081,236.749000,170.322000L237,170.100000C237,170.100000,234.465000,166.691000,231.727000,165.626000C228.989000,164.561000,224.952000,163.218000,223.290000,162.270000C221.628000,161.322000,215.732000,157.645000,210.636000,162.270000C208.876508,163.784051,207.392573,165.591434,206.250000,167.612000C205.467984,167.992030,204.975880,168.789605,204.987000,169.659000L204.987000,182.336000C204.970045,182.913275,205.183164,183.473631,205.579452,183.893738C205.975741,184.313844,206.522718,184.559271,207.100000,184.576000Z" fill="rgb(249,161,123)" fill-rule="evenodd" stroke="none" stroke-width="1"/><path id="edi1ny4a87446" d="M162.900000,184.576000L159.116000,184.576000C157.915987,184.539537,156.972239,183.538064,157.007000,182.338000L157.007000,185.763000C157.040655,186.961710,156.098577,187.961913,154.900000,188L151.116000,188C149.916238,187.963530,148.972364,186.962845,149.006000,185.763000L149.006000,182.338000C149.040761,183.538064,148.097013,184.539537,146.897000,184.576000L143.112000,184.576000C141.911047,184.540613,140.965813,183.538988,141,182.338000L141,178.914000C141.034756,180.113890,140.090856,181.115078,138.891000,181.151000L135.106000,181.151000C133.907329,181.113459,132.965227,180.112754,133,178.914000L133,171.358000C133.001865,170.997834,133.087814,170.643081,133.251000,170.322000L133,170.100000C133,170.100000,135.535000,166.691000,138.273000,165.626000C141.011000,164.561000,145.048000,163.218000,146.709000,162.270000C148.370000,161.322000,154.268000,157.645000,159.365000,162.270000C161.124018,163.784247,162.607594,165.591604,163.750000,167.612000C164.532016,167.992030,165.024120,168.789605,165.013000,169.659000L165.013000,182.336000C165.029955,182.913275,164.816836,183.473631,164.420548,183.893738C164.024259,184.313844,163.477282,184.559271,162.900000,184.576000Z" fill="rgb(249,161,123)" fill-rule="evenodd" stroke="none" stroke-width="1"/></g></g><script><![CDATA[!function(t,n){"object"==typeof exports&&"undefined"!=typeof module?module.exports=n():"function"==typeof define&&define.amd?define(n):(t=t||self).__SVGATOR_PLAYER__=n()}(this,(function(){"use strict";function t(n){return(t="function"==typeof Symbol&&"symbol"==typeof Symbol.iterator?function(t){return typeof t}:function(t){return t&&"function"==typeof Symbol&&t.constructor===Symbol&&t!==Symbol.prototype?"symbol":typeof t})(n)}function n(t,n){if(!(t instanceof n))throw new TypeError("Cannot call a class as a function")}function r(t,n){for(var r=0;r<n.length;r++){var e=n[r];e.enumerable=e.enumerable||!1,e.configurable=!0,"value"in e&&(e.writable=!0),Object.defineProperty(t,e.key,e)}}function e(t,n,e){return n&&r(t.prototype,n),e&&r(t,e),t}var i=1e-5,u=Math.abs;function o(t){return t}function a(t,n,r){var e=1-r;return 3*r*e*(t*e+n*r)+r*r*r}function l(){var t=arguments.length>0&&void 0!==arguments[0]?arguments[0]:0,n=arguments.length>1&&void 0!==arguments[1]?arguments[1]:0,r=arguments.length>2&&void 0!==arguments[2]?arguments[2]:1,e=arguments.length>3&&void 0!==arguments[3]?arguments[3]:1;return t<0||t>1||r<0||r>1?null:u(t-n)<=i&&u(r-e)<=i?o:function(o){if(o<=0)return t>0?o*n/t:0===n&&r>0?o*e/r:0;if(o>=1)return r<1?1+(o-1)*(e-1)/(r-1):1===r&&t<1?1+(o-1)*(n-1)/(t-1):1;for(var l,f=0,s=1;f<s;){var c=a(t,r,l=(f+s)/2);if(u(o-c)<i)break;c<o?f=l:s=l}return a(n,e,l)}}function f(){return 1}function s(t){return 1===t?1:0}function c(){var t=arguments.length>0&&void 0!==arguments[0]?arguments[0]:1,n=arguments.length>1&&void 0!==arguments[1]?arguments[1]:0;if(1===t){if(0===n)return s;if(1===n)return f}var r=1/t;return function(t){return t>=1?1:(t+=n*r)-t%r}}function v(t){var n=arguments.length>1&&void 0!==arguments[1]?arguments[1]:2;if(Number.isInteger(t))return t;var r=Math.pow(10,n);return Math.round(t*r)/r}var h=Math.PI/180;function y(t,n,r){return t>=.5?r:n}function d(t,n,r){return 0===t||n===r?n:t*(r-n)+n}function g(t,n,r){var e=d(t,n,r);return e<=0?0:e}function m(t,n,r){return 0===t?n:1===t?r:{x:d(t,n.x,r.x),y:d(t,n.y,r.y)}}function p(t,n,r){return 0===t?n:1===t?r:{x:g(t,n.x,r.x),y:g(t,n.y,r.y)}}function b(t,n,r){var e=function(t,n,r){return Math.round(d(t,n,r))}(t,n,r);return e<=0?0:e>=255?255:e}function w(t,n,r){return 0===t?n:1===t?r:{r:b(t,n.r,r.r),g:b(t,n.g,r.g),b:b(t,n.b,r.b),a:d(t,null==n.a?1:n.a,null==r.a?1:r.a)}}function A(t,n,r){if(0===t)return n;if(1===t)return r;var e=n.length;if(e!==r.length)return y(t,n,r);for(var i=[],u=0;u<e;u++)i.push(w(t,n[u],r[u]));return i}function x(t,n,r){var e=n.length;if(e!==r.length)return y(t,n,r);for(var i=new Array(e),u=0;u<e;u++)i[u]=d(t,n[u],r[u]);return i}function k(t,n){for(var r=[],e=0;e<t;e++)r.push(n);return r}function S(t,n){if(--n<=0)return t;var r=(t=Object.assign([],t)).length;do{for(var e=0;e<r;e++)t.push(t[e])}while(--n>0);return t}var _=6,M=/\.0+$/g;function I(t){return Number.isInteger(t)?t+"":t.toFixed(_).replace(M,"")}function E(t){var n=arguments.length>1&&void 0!==arguments[1]?arguments[1]:" ";return t&&t.length?t.map(I).join(n):""}function F(t){return I(t.x)+","+I(t.y)}function B(t){return t?null==t.a||t.a>=1?"rgb("+t.r+","+t.g+","+t.b+")":"rgba("+t.r+","+t.g+","+t.b+","+t.a+")":"transparent"}var j={f:null,i:p,u:function(t,n){return function(r){var e=n(r);t.setAttribute("rx",I(e.x)),t.setAttribute("ry",I(e.y))}}},q={f:null,i:function(t,n,r){return 0===t?n:1===t?r:{width:g(t,n.width,r.width),height:g(t,n.height,r.height)}},u:function(t,n){return function(r){var e=n(r);t.setAttribute("width",I(e.width)),t.setAttribute("height",I(e.height))}}},P=Math.sin,O=Math.cos,z=Math.acos,L=Math.asin,C=Math.tan,R=Math.atan2,T=Math.PI/180,V=180/Math.PI,D=Math.sqrt,N=function(){function t(){var r=arguments.length>0&&void 0!==arguments[0]?arguments[0]:1,e=arguments.length>1&&void 0!==arguments[1]?arguments[1]:0,i=arguments.length>2&&void 0!==arguments[2]?arguments[2]:0,u=arguments.length>3&&void 0!==arguments[3]?arguments[3]:1,o=arguments.length>4&&void 0!==arguments[4]?arguments[4]:0,a=arguments.length>5&&void 0!==arguments[5]?arguments[5]:0;n(this,t),this.m=[r,e,i,u,o,a],this.i=null,this.w=null,this.s=null}return e(t,[{key:"point",value:function(t,n){var r=this.m;return{x:r[0]*t+r[2]*n+r[4],y:r[1]*t+r[3]*n+r[5]}}},{key:"translateSelf",value:function(){var t=arguments.length>0&&void 0!==arguments[0]?arguments[0]:0,n=arguments.length>1&&void 0!==arguments[1]?arguments[1]:0;if(!t&&!n)return this;var r=this.m;return r[4]+=r[0]*t+r[2]*n,r[5]+=r[1]*t+r[3]*n,this.w=this.s=this.i=null,this}},{key:"rotateSelf",value:function(){var t=arguments.length>0&&void 0!==arguments[0]?arguments[0]:0;if(t%=360){var n=P(t*=T),r=O(t),e=this.m,i=e[0],u=e[1];e[0]=i*r+e[2]*n,e[1]=u*r+e[3]*n,e[2]=e[2]*r-i*n,e[3]=e[3]*r-u*n,this.w=this.s=this.i=null}return this}},{key:"scaleSelf",value:function(){var t=arguments.length>0&&void 0!==arguments[0]?arguments[0]:1,n=arguments.length>1&&void 0!==arguments[1]?arguments[1]:1;if(1!==t||1!==n){var r=this.m;r[0]*=t,r[1]*=t,r[2]*=n,r[3]*=n,this.w=this.s=this.i=null}return this}},{key:"skewSelf",value:function(t,n){if(n%=360,(t%=360)||n){var r=this.m,e=r[0],i=r[1],u=r[2],o=r[3];t&&(t=C(t*T),r[2]+=e*t,r[3]+=i*t),n&&(n=C(n*T),r[0]+=u*n,r[1]+=o*n),this.w=this.s=this.i=null}return this}},{key:"resetSelf",value:function(){var t=arguments.length>0&&void 0!==arguments[0]?arguments[0]:1,n=arguments.length>1&&void 0!==arguments[1]?arguments[1]:0,r=arguments.length>2&&void 0!==arguments[2]?arguments[2]:0,e=arguments.length>3&&void 0!==arguments[3]?arguments[3]:1,i=arguments.length>4&&void 0!==arguments[4]?arguments[4]:0,u=arguments.length>5&&void 0!==arguments[5]?arguments[5]:0,o=this.m;return o[0]=t,o[1]=n,o[2]=r,o[3]=e,o[4]=i,o[5]=u,this.w=this.s=this.i=null,this}},{key:"recomposeSelf",value:function(){var t=arguments.length>0&&void 0!==arguments[0]?arguments[0]:null,n=arguments.length>1&&void 0!==arguments[1]?arguments[1]:null,r=arguments.length>2&&void 0!==arguments[2]?arguments[2]:null,e=arguments.length>3&&void 0!==arguments[3]?arguments[3]:null,i=arguments.length>4&&void 0!==arguments[4]?arguments[4]:null;return this.isIdentity||this.resetSelf(),t&&(t.x||t.y)&&this.translateSelf(t.x,t.y),n&&this.rotateSelf(n),r&&(r.x&&this.skewSelf(r.x,0),r.y&&this.skewSelf(0,r.y)),!e||1===e.x&&1===e.y||this.scaleSelf(e.x,e.y),i&&(i.x||i.y)&&this.translateSelf(i.x,i.y),this}},{key:"decompose",value:function(){var t=arguments.length>0&&void 0!==arguments[0]?arguments[0]:0,n=arguments.length>1&&void 0!==arguments[1]?arguments[1]:0,r=this.m,e=r[0]*r[0]+r[1]*r[1],i=[[r[0],r[1]],[r[2],r[3]]],u=D(e);if(0===u)return{origin:{x:r[4],y:r[5]},translate:{x:t,y:n},scale:{x:0,y:0},skew:{x:0,y:0},rotate:0};i[0][0]/=u,i[0][1]/=u;var o=r[0]*r[3]-r[1]*r[2]<0;o&&(u=-u);var a=i[0][0]*i[1][0]+i[0][1]*i[1][1];i[1][0]-=i[0][0]*a,i[1][1]-=i[0][1]*a;var l=D(i[1][0]*i[1][0]+i[1][1]*i[1][1]);if(0===l)return{origin:{x:r[4],y:r[5]},translate:{x:t,y:n},scale:{x:u,y:0},skew:{x:0,y:0},rotate:0};i[1][0]/=l,i[1][1]/=l,a/=l;var f=0;return i[1][1]<0?(f=z(i[1][1])*V,i[0][1]<0&&(f=360-f)):f=L(i[0][1])*V,o&&(f=-f),a=R(a,D(i[0][0]*i[0][0]+i[0][1]*i[0][1]))*V,{origin:{x:r[4],y:r[5]},translate:{x:t,y:n},scale:{x:u,y:l},skew:{x:a,y:0},rotate:f}}},{key:"toString",value:function(){return null===this.s&&(this.s="matrix("+this.m.map($).join(" ")+")"),this.s}},{key:"determinant",get:function(){var t=this.m;return t[0]*t[3]-t[1]*t[2]}},{key:"isIdentity",get:function(){if(null===this.i){var t=this.m;this.i=1===t[0]&&0===t[1]&&0===t[2]&&1===t[3]&&0===t[4]&&0===t[5]}return this.i}}]),t}(),G=/\.0+$/;function $(t){return Number.isInteger(t)?t:t.toFixed(14).replace(G,"")}Object.freeze({M:2,L:2,Z:0,H:1,V:1,C:6,Q:4,T:2,S:4,A:7});function H(t,n,r){return t+(n-t)*r}function Q(t,n,r){var e=arguments.length>3&&void 0!==arguments[3]&&arguments[3],i={x:H(t.x,n.x,r),y:H(t.y,n.y,r)};return e&&(i.a=function(t,n){return Math.atan2(n.y-t.y,n.x-t.x)}(t,n)),i}function U(t,n,r,e){var i=1-e;return i*i*t+2*i*e*n+e*e*r}function Y(t,n,r,e){return 2*(1-e)*(n-t)+2*e*(r-n)}function Z(t,n,r,e){var i=arguments.length>4&&void 0!==arguments[4]&&arguments[4],u={x:U(t.x,n.x,r.x,e),y:U(t.y,n.y,r.y,e)};return i&&(u.a=function(t,n,r,e){return Math.atan2(Y(t.y,n.y,r.y,e),Y(t.x,n.x,r.x,e))}(t,n,r,e)),u}function J(t,n,r,e,i){var u=i*i;return i*u*(e-t+3*(n-r))+3*u*(t+r-2*n)+3*i*(n-t)+t}function K(t,n,r,e,i){var u=1-i;return 3*(u*u*(n-t)+2*u*i*(r-n)+i*i*(e-r))}function W(t,n,r,e,i){var u=arguments.length>5&&void 0!==arguments[5]&&arguments[5],o={x:J(t.x,n.x,r.x,e.x,i),y:J(t.y,n.y,r.y,e.y,i)};return u&&(o.a=function(t,n,r,e,i){return Math.atan2(K(t.y,n.y,r.y,e.y,i),K(t.x,n.x,r.x,e.x,i))}(t,n,r,e,i)),o}function X(t,n,r){var e,i=arguments.length>3&&void 0!==arguments[3]&&arguments[3];if(nt(n)){if(null!=(e=r).start&&!nt(e))return Z(n,r.start,r,t,i)}else if(nt(r)){if(n.end)return Z(n,n.end,r,t,i)}else{if(n.end)return r.start?W(n,n.end,r.start,r,t,i):Z(n,n.end,r,t,i);if(r.start)return Z(n,r.start,r,t,i)}return Q(n,r,t,i)}function tt(t,n,r){var e=X(t,n,r,!0);return e.a=function(t){return arguments.length>1&&void 0!==arguments[1]&&arguments[1]?t+Math.PI:t}(e.a)/h,e}function nt(t){return!t.type||"corner"===t.type}var rt=new N;var et={f:function(t){return t?t.join(" "):""},i:function(n,r,e){if(0===n)return r;if(1===n)return e;var i=r.length;if(i!==e.length)return y(n,r,e);for(var u,o=new Array(i),a=0;a<i;a++){if((u=t(r[a]))!==t(e[a]))return y(n,r,e);if("number"===u)o[a]=d(n,r[a],e[a]);else{if(r[a]!==e[a])return y(n,r,e);o[a]=r[a]}}return o}},it={f:null,i:x,u:function(t,n){return function(r){var e=n(r);t.setAttribute("x1",I(e[0])),t.setAttribute("y1",I(e[1])),t.setAttribute("x2",I(e[2])),t.setAttribute("y2",I(e[3]))}}},ut={f:I,i:d},ot={f:I,i:function(t,n,r){var e=d(t,n,r);return e<=0?0:e>=1?1:e}},at={f:E,i:function(t,n,r){var e,i,u,o=n.length,a=r.length;if(o!==a)if(0===o)n=k(o=a,0);else if(0===a)a=o,r=k(o,0);else{var l=(u=(e=o)*(i=a)/function(t,n){for(var r;n;)r=n,n=t%n,t=r;return t||1}(e,i))<0?-u:u;n=S(n,Math.floor(l/o)),r=S(r,Math.floor(l/a)),o=a=l}for(var f=[],s=0;s<o;s++)f.push(v(g(t,n[s],r[s]),6));return f}};function lt(t,n,r,e,i,u,o,a){return n=function(t,n,r){for(var e,i,u,o=t.length-1,a={},l=0;l<=o;l++)(e=t[l]).e&&(e.e=n(e.e)),e.v&&"g"===(i=e.v).t&&i.r&&(u=r.getElementById(i.r))&&(a[i.r]=u.querySelectorAll("stop"));return a}(t,e,a),function(e){var i,u=r(e,t,ft);return u?"c"===u.t?B(u.v):"g"===u.t?(n[u.r]&&function(t,n){for(var r=0,e=t.length;r<e;r++)t[r].setAttribute("stop-color",B(n[r]))}(n[u.r],u.v),(i=u.r)?"url(#"+i+")":"none"):"none":"none"}}function ft(t,n,r){if(0===t)return n;if(1===t)return r;if(n&&r){var e=n.t;if(e===r.t)switch(n.t){case"c":return{t:e,v:w(t,n.v,r.v)};case"g":if(n.r===r.r)return{t:e,v:A(t,n.v,r.v),r:n.r}}}return y(t,n,r)}var st={blur:p,brightness:g,contrast:g,"drop-shadow":function(t,n,r){return 0===t?n:1===t?r:{blur:p(t,n.blur,r.blur),offset:m(t,n.offset,r.offset),color:w(t,n.color,r.color)}},grayscale:g,"hue-rotate":d,invert:g,opacity:g,saturate:g,sepia:g};function ct(t,n,r){if(0===t)return n;if(1===t)return r;var e=n.length;if(e!==r.length)return y(t,n,r);for(var i,u=[],o=0;o<e;o++){if(n[o].type!==r[o].type)return n;if(!(i=st[n[o].type]))return y(t,n,r);u.push({type:n.type,value:i(t,n[o].value,r[o].value)})}return u}var vt={blur:function(t){return t?function(n){t.setAttribute("stdDeviation",F(n))}:null},brightness:function(t,n,r){return(t=yt(r,n))?function(n){n=I(n),t.map((function(t){return t.setAttribute("slope",n)}))}:null},contrast:function(t,n,r){return(t=yt(r,n))?function(n){var r=I((1-n)/2);n=I(n),t.map((function(t){t.setAttribute("slope",n),t.setAttribute("intercept",r)}))}:null},"drop-shadow":function(t,n,r){var e=r.getElementById(n+"-blur");if(!e)return null;var i=r.getElementById(n+"-offset");if(!i)return null;var u=r.getElementById(n+"-flood");return u?function(t){e.setAttribute("stdDeviation",F(t.blur)),i.setAttribute("dx",I(t.offset.x)),i.setAttribute("dy",I(t.offset.y)),u.setAttribute("flood-color",B(t.color))}:null},grayscale:function(t){return t?function(n){t.setAttribute("values",E(function(t){return[.2126+.7874*(t=1-t),.7152-.7152*t,.0722-.0722*t,0,0,.2126-.2126*t,.7152+.2848*t,.0722-.0722*t,0,0,.2126-.2126*t,.7152-.7152*t,.0722+.9278*t,0,0,0,0,0,1,0]}(n)))}:null},"hue-rotate":function(t){return t?function(n){return t.setAttribute("values",I(n))}:null},invert:function(t,n,r){return(t=yt(r,n))?function(n){n=I(n)+" "+I(1-n),t.map((function(t){return t.setAttribute("tableValues",n)}))}:null},opacity:function(t,n,r){return(t=r.getElementById(n+"-A"))?function(n){return t.setAttribute("tableValues","0 "+I(n))}:null},saturate:function(t){return t?function(n){return t.setAttribute("values",I(n))}:null},sepia:function(t){return t?function(n){return t.setAttribute("values",E(function(t){return[.393+.607*(t=1-t),.769-.769*t,.189-.189*t,0,0,.349-.349*t,.686+.314*t,.168-.168*t,0,0,.272-.272*t,.534-.534*t,.131+.869*t,0,0,0,0,0,1,0]}(n)))}:null}};var ht=["R","G","B"];function yt(t,n){var r=ht.map((function(r){return t.getElementById(n+"-"+r)||null}));return-1!==r.indexOf(null)?null:r}var dt={fill:lt,"fill-opacity":ot,stroke:lt,"stroke-opacity":ot,"stroke-width":ut,"stroke-dashoffset":{f:I,i:d},"stroke-dasharray":at,opacity:ot,transform:function(n,r,e,i){if(!(n=function(n,r){if(!n||"object"!==t(n))return null;var e=!1;for(var i in n)n.hasOwnProperty(i)&&(n[i]&&n[i].length?(n[i].forEach((function(t){t.e&&(t.e=r(t.e))})),e=!0):delete n[i]);return e?n:null}(n,i)))return null;var u=function(t,i,u){var o=arguments.length>3&&void 0!==arguments[3]?arguments[3]:null;return n[t]?e(i,n[t],u):r&&r[t]?r[t]:o};return r&&r.a&&n.o?function(t){var r=e(t,n.o,tt);return rt.recomposeSelf(r,u("r",t,d,0)+r.a,u("k",t,m),u("s",t,m),u("t",t,m)).toString()}:function(t){return rt.recomposeSelf(u("o",t,X,null),u("r",t,d,0),u("k",t,m),u("s",t,m),u("t",t,m)).toString()}},"#filter":function(t,n,r,e,i,u,o,a){if(!n.items||!t||!t.length)return null;var l=function(t,n){var r=(t=t.map((function(t){return t&&vt[t[0]]?(n.getElementById(t[1]),vt[t[0]](n.getElementById(t[1]),t[1],n)):null}))).length;return function(n){for(var e=0;e<r;e++)t[e]&&t[e](n[e].value)}}(n.items,a);return l?(t=function(t,n){return t.map((function(t){return t.e=n(t.e),t}))}(t,e),function(n){l(r(n,t,ct))}):null},"#line":it,points:{f:E,i:x},d:et,r:ut,"#size":q,"#radius":j,_:function(t,n){if(Array.isArray(t))for(var r=0;r<t.length;r++)this[t[r]]=n;else this[t]=n}},gt=function(){function t(r){n(this,t),this.list=r,this.length=r.length}return e(t,[{key:"setAttribute",value:function(t,n){for(var r=this.list,e=0;e<this.length;e++)r[e].setAttribute(t,n)}},{key:"removeAttribute",value:function(t){for(var n=this.list,r=0;r<this.length;r++)n[r].removeAttribute(t)}},{key:"style",value:function(t,n){for(var r=this.list,e=0;e<this.length;e++)r[e].style[t]=n}}]),t}(),mt=/-./g,pt=function(t,n){return n.toUpperCase()};function bt(t){return"function"==typeof t?t:y}function wt(t){return t?"function"==typeof t?t:Array.isArray(t)?function(t){var n=arguments.length>1&&void 0!==arguments[1]?arguments[1]:o;if(!Array.isArray(t))return n;switch(t.length){case 1:return c(t[0])||n;case 2:return c(t[0],t[1])||n;case 4:return l(t[0],t[1],t[2],t[3])||n}return n}(t,null):function(t,n){var r=arguments.length>2&&void 0!==arguments[2]?arguments[2]:o;switch(t){case"linear":return o;case"steps":return c(n.steps||1,n.jump||0)||r;case"bezier":case"cubic-bezier":return l(n.x1||0,n.y1||0,n.x2||0,n.y2||0)||r}return r}(t.type,t.value,null):null}function At(t,n,r){var e=arguments.length>3&&void 0!==arguments[3]&&arguments[3],i=n.length-1;if(t<=n[0].t)return e?[0,0,n[0].v]:n[0].v;if(t>=n[i].t)return e?[i,1,n[i].v]:n[i].v;var u,o=n[0],a=null;for(u=1;u<=i;u++){if(!(t>n[u].t)){a=n[u];break}o=n[u]}return null==a?e?[i,1,n[i].v]:n[i].v:o.t===a.t?e?[u,1,a.v]:a.v:(t=(t-o.t)/(a.t-o.t),o.e&&(t=o.e(t)),e?[u,t,r(t,o.v,a.v)]:r(t,o.v,a.v))}function xt(t,n){var r=arguments.length>2&&void 0!==arguments[2]?arguments[2]:null;return t&&t.length?"function"!=typeof n?null:("function"!=typeof r&&(r=null),function(e){var i=At(e,t,n);return null!=i&&r&&(i=r(i)),i}):null}function kt(t,n){return t.t-n.t}function St(n,r,e,i,u){var o,a="@"===e[0],l="#"===e[0],f=dt[e],s=y;switch(a?(o=e.substr(1),e=o.replace(mt,pt)):l&&(e=e.substr(1)),t(f)){case"function":if(s=f(i,u,At,wt,e,a,r,n),l)return s;break;case"string":s=xt(i,bt(f));break;case"object":if((s=xt(i,bt(f.i),f.f))&&"function"==typeof f.u)return f.u(r,s,e,a,n)}return s?function(t,n,r){if(arguments.length>3&&void 0!==arguments[3]&&arguments[3])return t instanceof gt?function(e){return t.style(n,r(e))}:function(e){return t.style[n]=r(e)};if(Array.isArray(n)){var e=n.length;return function(i){var u=r(i);if(null==u)for(var o=0;o<e;o++)t[o].removeAttribute(n);else for(var a=0;a<e;a++)t[a].setAttribute(n,u)}}return function(e){var i=r(e);null==i?t.removeAttribute(n):t.setAttribute(n,i)}}(r,e,s,a):null}function _t(n,r,e,i){if(!i||"object"!==t(i))return null;var u=null,o=null;return Array.isArray(i)?o=function(t){if(!t||!t.length)return null;for(var n=0;n<t.length;n++)t[n].e&&(t[n].e=wt(t[n].e));return t.sort(kt)}(i):(o=i.keys,u=i.data||null),o?St(n,r,e,o,u):null}function Mt(t,n,r){if(!r)return null;var e=[];for(var i in r)if(r.hasOwnProperty(i)){var u=_t(t,n,i,r[i]);u&&e.push(u)}return e.length?e:null}function It(t,n){if(!n.duration||n.duration<0)return null;var r=function(t,n){if(!n)return null;var r=[];if(Array.isArray(n))for(var e=n.length,i=0;i<e;i++){var u=n[i];if(2===u.length){var o=null;if("string"==typeof u[0])o=t.getElementById(u[0]);else if(Array.isArray(u[0])){o=[];for(var a=0;a<u[0].length;a++)if("string"==typeof u[0][a]){var l=t.getElementById(u[0][a]);l&&o.push(l)}o=o.length?1===o.length?o[0]:new gt(o):null}if(o){var f=Mt(t,o,u[1]);f&&(r=r.concat(f))}}}else for(var s in n)if(n.hasOwnProperty(s)){var c=t.getElementById(s);if(c){var v=Mt(t,c,n[s]);v&&(r=r.concat(v))}}return r.length?r:null}(t,n.elements);return r?function(t,n){var r=arguments.length>2&&void 0!==arguments[2]?arguments[2]:1/0,e=arguments.length>3&&void 0!==arguments[3]?arguments[3]:1,i=arguments.length>4&&void 0!==arguments[4]&&arguments[4],u=arguments.length>5&&void 0!==arguments[5]?arguments[5]:1,o=t.length,a=e>0?n:0;i&&r%2==0&&(a=n-a);var l=null;return function(f,s){var c=f%n,v=1+(f-c)/n;s*=e,i&&v%2==0&&(s=-s);var h=!1;if(v>r)c=a,h=!0,-1===u&&(c=e>0?0:n);else if(s<0&&(c=n-c),c===l)return!1;l=c;for(var y=0;y<o;y++)t[y](c);return h}}(r,n.duration,n.iterations||1/0,n.direction||1,!!n.alternate,n.fill||1):null}var Et=function(){function t(r){var e=arguments.length>1&&void 0!==arguments[1]?arguments[1]:{};n(this,t),this._id=0,this._running=!1,this._animations=r,this.direction=e.direction||1,this.speed=e.speed||1,this.fps=e.fps||100,this.offset=e.offset||0}return e(t,[{key:"_start",value:function(){var t=this,n=arguments.length>0&&void 0!==arguments[0]?arguments[0]:0,r=-1/0,e=null,i={},u=function u(o){t._running=!0,null==e&&(e=o);var a=Math.round((o-e+n)*t.speed),l=t.fps?1e3/t.fps:0;if(a>r+l){t.offset=a,r=a;for(var f=t._animations,s=f.length,c=0,v=0;v<s;v++)i[v]?c++:(i[v]=f[v](a,t.direction),i[v]&&c++);if(c===s)return void t._stop()}t._id=window.requestAnimationFrame(u)};this._id=window.requestAnimationFrame(u)}},{key:"_stop",value:function(){this._id&&window.cancelAnimationFrame(this._id),this._running=!1}},{key:"play",value:function(){this._running||this._start(this.offset)}},{key:"stop",value:function(){this._stop(),this.offset=0;var t=this.direction,n=this._animations;requestAnimationFrame((function(){for(var r=0;r<n.length;r++)n[r](0,t)}))}},{key:"restart",value:function(){this._stop(),this.offset=0,this._start()}},{key:"pause",value:function(){this._stop()}},{key:"reverse",value:function(){this.direction=-this.direction}}],[{key:"build",value:function(n){if(!(n=function(t){if(!t||!t.root||!Array.isArray(t.animations))return null;var n=window.document.getElementById(t.root);if(!n)return null;var r=t.animations.map((function(t){return It(n,t)})).filter((function(t){return!!t}));return r.length?{element:n,animations:r,options:t.options||void 0}:null}(n)))return null;var r=n.element,e=n.options||{},i=new t(n.animations,n.options);return function(t,n,r){var e=arguments.length>3&&void 0!==arguments[3]?arguments[3]:null;if("click"===r){return void n.addEventListener("click",(function r(){n.removeEventListener("click",r),t.play()}))}if("hover"===r)return n.addEventListener("mouseenter",(function(){return t.play()})),void n.addEventListener("mouseleave","freeze"===e?function(){return t.pause()}:function(){return t.stop()});t.play()}(i,r,e.start,e.hover),i}}]),t}();return function(){for(var t=0,n=["ms","moz","webkit","o"],r=0;r<n.length&&!window.requestAnimationFrame;++r)window.requestAnimationFrame=window[n[r]+"RequestAnimationFrame"],window.cancelAnimationFrame=window[n[r]+"CancelAnimationFrame"]||window[n[r]+"CancelRequestAnimationFrame"];window.requestAnimationFrame||(window.requestAnimationFrame=function(n){var r=Date.now(),e=Math.max(0,16-(r-t)),i=window.setTimeout((function(){n(r+e)}),e);return t=r+e,i},window.cancelAnimationFrame=window.clearTimeout)}(),Et}));
__SVGATOR_PLAYER__.build({"root":"edi1ny4a8741","animations":[{"duration":4000,"direction":1,"iterations":0,"fill":1,"alternate":false,"elements":{"edi1ny4a87411":{"transform":{"data":{"o":{"x":185.63291729,"y":131,"type":"corner"},"t":{"x":-185.63291729,"y":-131}},"keys":{"r":[{"t":0,"v":0},{"t":1500,"v":-6.480780438881714},{"t":2600,"v":-6.480780438881714},{"t":4000,"v":0}]}}},"edi1ny4a87419":{"transform":{"data":{"o":{"x":160.32937949,"y":76.594,"type":"corner"},"t":{"x":-160.32937949,"y":-76.594}},"keys":{"r":[{"t":0,"v":13.256022301373205},{"t":1500,"v":0},{"t":2600,"v":0},{"t":4000,"v":13.256022301373205}]}}},"edi1ny4a87421":{"transform":{"data":{"o":{"x":170.548508995,"y":80.594,"type":"corner"},"t":{"x":0.013491005000020095,"y":0}},"keys":{"s":[{"t":1700,"v":{"x":1,"y":1}},{"t":1800,"v":{"x":1.9133201814144152,"y":0.2042445808260868}},{"t":1900,"v":{"x":1,"y":1}},{"t":2200,"v":{"x":1,"y":1}},{"t":2300,"v":{"x":1.9133201814144152,"y":0.2042445808260868}},{"t":2400,"v":{"x":1,"y":1}}]}}},"edi1ny4a87422":{"transform":{"data":{"o":{"x":200.54850899499965,"y":80.59400000000029,"type":"corner"},"t":{"x":0.013491005000020095,"y":0}},"keys":{"s":[{"t":1700,"v":{"x":1,"y":1}},{"t":1800,"v":{"x":1.9133201814144152,"y":0.2042445808260868}},{"t":1900,"v":{"x":1,"y":1}},{"t":2200,"v":{"x":1,"y":1}},{"t":2300,"v":{"x":1.9133201814144152,"y":0.2042445808260868}},{"t":2400,"v":{"x":1,"y":1}}]}}},"edi1ny4a87440":{"transform":{"keys":{"o":[{"t":0,"v":{"x":0,"y":0,"type":"corner"}},{"t":2000,"v":{"x":0,"y":5,"type":"corner"}},{"t":4000,"v":{"x":0,"y":0,"type":"corner"}}]}}},"edi1ny4a87444":{"opacity":[{"t":0,"v":0},{"t":1000,"v":1},{"t":3000,"v":1},{"t":4000,"v":0}]}}}],"options":{"start":"load","hover":"freeze"}})]]></script></svg>