<svg id="esho1hje807i1" xmlns="http://www.w3.org/2000/svg" xmlns:xlink="http://www.w3.org/1999/xlink" viewBox="0 0 370 290" shape-rendering="geometricPrecision" text-rendering="geometricPrecision" width="370" height="290"><g id="esho1hje807i2"><path id="esho1hje807i3" d="M185,291L121,291L121,193C121,148.339000,146,142,146,142C158.452000,141.344000,185,141,185,141C185,141,211.548000,141.344000,224,142C224,142,249,148.339000,249,193L249,291L185,291Z" fill="rgb(255,255,255)" fill-rule="evenodd" stroke="none" stroke-width="1"/><path id="esho1hje807i4" d="M235,203.500000C235,211.508129,228.508129,218,220.500000,218C212.491871,218,206,211.508129,206,203.500000L206,186L235,186L235,203.500000Z" fill="rgb(221,221,221)" fill-rule="evenodd" stroke="none" stroke-width="1"/><path id="esho1hje807i5" d="M235,201.500000C235,209.508129,228.508129,216,220.500000,216C212.491871,216,206,209.508129,206,201.500000L206,184L235,184L235,201.500000Z" fill="rgb(245,245,245)" fill-rule="evenodd" stroke="none" stroke-width="1"/><path id="esho1hje807i6" d="M223.221000,187C223.221000,187,215.521000,201.948000,215.321000,205.271000C215.121000,208.594000,216.853000,206.271000,217.096000,205.309000C217.339000,204.347000,218.006000,201.490000,218.963000,198.462000C219.963000,195.287000,223.224000,187,223.224000,187M225.924000,192.050000C225.924000,192.050000,220.594000,203.136000,220.515000,205.578000C220.436000,208.020000,221.659000,206.289000,221.815000,205.578000C221.971000,204.867000,222.401000,202.762000,223.038000,200.526000C223.708000,198.181000,225.921000,192.050000,225.921000,192.050000M227.528000,196.678000C227.528000,196.678000,223.896000,204.233000,223.842000,205.895000C223.788000,207.557000,224.622000,206.380000,224.730000,205.895000C224.838000,205.410000,225.130000,203.977000,225.564000,202.453000C226.020000,200.853000,227.528000,196.678000,227.528000,196.678000M230,199.948000L212,199.948000L212,199.809000L230,199.809000L230,199.948000Z" fill="rgb(88,89,91)" fill-rule="evenodd" stroke="none" stroke-width="1"/><rect id="esho1hje807i7" width="2" height="67" rx="0" ry="0" transform="matrix(1 0 0 1 184 224)" fill="rgb(221,221,221)" stroke="none" stroke-width="1"/></g><g id="esho1hje807i8"><path id="esho1hje807i9" d="M208,140L185,162L162,140C168.300000,134.248000,168,119,168,119L202,119C202,119,201.700000,134.248000,208,140Z" fill="rgb(249,161,123)" fill-rule="evenodd" stroke="none" stroke-width="1"/><path id="esho1hje807i10" d="M185,119L202,119C201.988005,123.423437,202.554474,127.829454,203.685000,132.106000C194.580000,140.500000,185,140,185,140C185,140,175.417000,140.500000,166.333000,132.043000C167.450595,127.785760,168.010941,123.401476,168,119L185,119Z" fill="rgb(235,152,116)" fill-rule="evenodd" stroke="none" stroke-width="1"/><g id="esho1hje807i11"><path id="esho1hje807i12" d="M219.152000,85.900000C214.445000,133.471000,184.999000,131.900000,184.999000,131.900000C184.999000,131.900000,155.686000,133.471000,150.999000,85.900000C150.999000,85.900000,141.618000,27.900000,184.999000,27.900000C228.575000,27.900000,219.152000,85.900000,219.152000,85.900000Z" fill="rgb(249,161,123)" fill-rule="evenodd" stroke="none" stroke-width="1"/><path id="esho1hje807i13" d="M218.640000,85.649000C214.390000,128.594000,190.269000,132.062000,185.006000,132.305000L185.006000,132.316000C185.006000,132.316000,184.828000,132.325000,184.499000,132.316000C184.170000,132.307000,183.992000,132.316000,183.992000,132.316000L183.992000,132.305000C178.730000,132.062000,154.608000,128.594000,150.359000,85.649000C149.832117,81.951772,149.545184,78.224308,149.500000,74.490000L152.400000,74.490000C152.400000,74.490000,158.180000,105.523000,170.743000,106.969000C170.743000,106.969000,174.643000,103.256000,183.995000,102.928000L183.995000,102.900000C184.170000,102.900000,184.330000,102.913000,184.502000,102.916000C184.674000,102.919000,184.834000,102.900000,185.009000,102.900000L185.009000,102.932000C194.363000,103.260000,198.262000,106.973000,198.262000,106.973000C210.822000,105.522000,216.600000,74.490000,216.600000,74.490000L219.500000,74.490000C219.454485,78.224330,219.167217,81.951794,218.640000,85.649000Z" opacity="0.15" fill="rgb(0,0,0)" fill-rule="evenodd" stroke="none" stroke-width="1"/><path id="esho1hje807i14" d="M151,70.900000C151,70.900000,164.456000,59.500000,170,55.900000C170,55.900000,195.572000,64.308000,215,67.900000L215,41.900000L150,41.900000Z" fill="rgb(235,152,116)" fill-rule="evenodd" stroke="none" stroke-width="1"/><path id="esho1hje807i15" d="M150,86.900000C150,86.900000,151.053000,88.955000,152,86.900000C152.947000,84.845000,151.523000,71.113000,152,69.900000C152.477000,68.687000,154.727000,60.723000,161,55.900000C163.969373,53.835179,165.815575,50.512015,166,46.900000C166.184425,43.287985,182.987000,55.487000,202,57.900000C202,57.900000,217.100000,68.430000,218,87.900000C218,87.900000,218.741000,91.180000,220,87.900000C223.866736,85.978606,227.276674,83.250656,230,79.900000C234.879000,73.700000,229.622000,64.800000,232,59.900000C234.378000,55,235.181000,44.346000,226,33.900000C216.819000,23.454000,210.626000,9.845000,185,17.900000C181.960093,19.698022,178.527641,20.727758,175,20.900000C171.472359,21.072242,155.656000,15.713000,148,23.900000C140.344000,32.087000,137.570000,37.085000,141,46.900000C144.430000,56.715000,140,62.100000,140,62.900000C140,63.700000,139.606000,76.585000,150,83.900000L150,86.900000Z" fill="rgb(55,64,72)" fill-rule="evenodd" stroke="none" stroke-width="1"/><path id="esho1hje807i16" d="M166,32.900000C166,32.900000,176.075000,17.577000,197,25.900000C217.925000,34.223000,212.280000,50.392000,221,62.900000C221,62.900000,211.912000,51.924000,209,45.900000C206.088000,39.876000,186.248000,27,172,36.900000C172,36.900000,164.564000,42.065000,166,32.900000Z" fill="rgb(75,83,91)" fill-rule="evenodd" stroke="none" stroke-width="1"/><path id="esho1hje807i17" d="M227.386000,91.606000C222.950000,107.792000,215,104.652000,215,104.652000L218.100000,86.589000C221.153000,83.549000,221.200000,78.561000,221.200000,78.561000C230.877000,74.350000,227.386000,91.606000,227.386000,91.606000ZM143,91.900000C143,91.900000,139.619000,74.700000,149,78.900000C149,78.900000,149.042000,83.871000,152,86.900000L155,104.900000C155,104.900000,147.300000,108.032000,143,91.900000Z" fill="rgb(249,161,123)" fill-rule="evenodd" stroke="none" stroke-width="1"/><g id="esho1hje807i18"><path id="esho1hje807i19" d="M178.650000,73.100000C178.650000,73.100000,168.893000,69.185000,164.190000,70.124000C159.487000,71.063000,157.652000,76.218000,160.005000,75.993000C162.358000,75.768000,176.310000,74.305000,177.419000,75.213000C177.419000,75.216000,179.905000,75.424000,178.650000,73.100000Z" fill="rgb(55,64,72)" fill-rule="evenodd" stroke="none" stroke-width="1"/><path id="esho1hje807i20" d="M191.350000,73.100000C191.350000,73.100000,201.107000,69.185000,205.810000,70.124000C210.513000,71.063000,212.348000,76.222000,210,76C207.652000,75.778000,193.695000,74.312000,192.586000,75.220000C192.581000,75.216000,190.100000,75.424000,191.350000,73.100000Z" fill="rgb(55,64,72)" fill-rule="evenodd" stroke="none" stroke-width="1"/><path id="esho1hje807i21" d="M184.622000,101C184.459821,100.999811,184.299920,100.961804,184.155000,100.889000C183.944000,100.783000,183.648000,100.671000,183.310000,100.539000C181.878000,99.984000,179.710000,99.147000,179.134000,97.408000C178.844434,96.402852,179.045660,95.320014,179.677000,94.486000C180.694000,92.920000,182.635000,84.086000,183.619000,78.892000C183.728719,78.344283,184.259303,77.987287,184.808000,78.092000C185.071151,78.136189,185.305728,78.283715,185.459541,78.501758C185.613354,78.719801,185.673645,78.990273,185.627000,79.253000C185.359000,80.668000,182.963000,93.147000,181.402000,95.553000C181.113553,95.896487,180.993956,96.351031,181.076000,96.792000C181.359000,97.639000,183.051000,98.292000,184.063000,98.686000C184.475000,98.846000,184.834000,98.986000,185.092000,99.117000C185.330768,99.234575,185.511934,99.443594,185.594401,99.696642C185.676867,99.949690,185.653644,100.225318,185.530000,100.461000C185.350279,100.794738,185.001047,101.002047,184.622000,101Z" fill="rgb(212,137,105)" fill-rule="evenodd" stroke="none" stroke-width="1"/><path id="esho1hje807i22" d="M195,109C195,115.627000,190.075000,121,184,121C177.925000,121,173,115.627000,173,109" fill="rgb(152,98,75)" fill-rule="evenodd" stroke="none" stroke-width="1"/><path id="esho1hje807i23" d="M173,109C172.966000,108.682000,195,109,195,109C194.858421,110.054018,194.519148,111.071838,194,112C193.480852,112.928162,183.194000,113.922000,174,112C174,112,173.379000,112.572000,173,109Z" fill="rgb(255,255,255)" fill-rule="evenodd" stroke="none" stroke-width="1"/><path id="esho1hje807i24" d="M175.900000,83.680000C174.481293,81.978393,172.399614,80.968696,170.185000,80.908000C168.058694,81.098831,166.079373,82.073700,164.632000,83.643000L163.200000,82.227000C164.993896,80.254055,167.471822,79.038334,170.130000,78.827000C172.630000,78.758000,175.042000,79.891000,177.252000,82.187000Z" fill="rgb(78,55,55)" fill-rule="evenodd" stroke="none" stroke-width="1"/><path id="esho1hje807i25" d="M204.900000,83.680000C203.481293,81.978393,201.399614,80.968696,199.185000,80.908000C197.058694,81.098831,195.079373,82.073700,193.632000,83.643000L192.200000,82.227000C193.993896,80.254055,196.471822,79.038334,199.130000,78.827000C201.630000,78.758000,204.042000,79.891000,206.252000,82.187000Z" fill="rgb(78,55,55)" fill-rule="evenodd" stroke="none" stroke-width="1"/></g></g></g><g id="esho1hje807i26"><path id="esho1hje807i27" d="M185,227L165,155L205,155Z" fill="rgb(79,152,163)" fill-rule="evenodd" stroke="none" stroke-width="1"/><path id="esho1hje807i28" d="M185,227L176.740000,197.264000L181,170L189,170L193.260000,197.264000Z" fill="rgb(10,59,105)" fill-rule="evenodd" stroke="none" stroke-width="1"/><path id="esho1hje807i29" d="M193,164C193,168.418278,189.418278,172,185,172C180.581722,172,177,168.418278,177,164L177,157L193,157L193,164Z" fill="rgb(12,72,129)" fill-rule="evenodd" stroke="none" stroke-width="1"/><path id="esho1hje807i30" d="M196,172C193.306446,166.059216,189.582298,160.642273,185,156L208,132C217.278000,134.859000,220,142,220,142C218.536000,144.333000,196,172,196,172ZM150,142C150,142,152.722000,134.859000,162,132L185,156C180.417702,160.642273,176.693554,166.059216,174,172C171.306446,177.940784,151.464000,144.333000,150,142Z" fill="rgb(92,178,191)" fill-rule="evenodd" stroke="none" stroke-width="1"/></g><g id="esho1hje807i31"><path id="esho1hje807i32" d="M234.017000,196.930000L225,142.872000C225,142.872000,255.071000,155.721000,257.062000,157.888000C259.053000,160.055000,282.056000,224.130000,280.106000,237.974000C280.106000,237.974000,285.314000,255.093000,271.089000,257.996000C271.089000,258,251.934000,263.100000,234.017000,196.930000Z" fill="rgb(255,255,255)" fill-rule="evenodd" stroke="none" stroke-width="1"/><path id="esho1hje807i33" d="M234.017000,196.930000C234.017000,196.930000,238.964000,222.839000,245.039000,236.973000L249.046000,262L249.046000,234.971000C249.046000,234.971000,234.600000,197.951000,234.017000,196.930000Z" fill="rgb(221,221,221)" fill-rule="evenodd" stroke="none" stroke-width="1"/><g id="esho1hje807i34"><path id="esho1hje807i35" d="M274.100000,202.936000C272.925000,203.066000,263.230000,212.043000,260.822000,222.288000L261.063000,236.862000C261.063000,236.862000,275.269000,202.807000,274.100000,202.936000Z" fill="rgb(221,221,221)" fill-rule="evenodd" stroke="none" stroke-width="1"/><g id="esho1hje807i36"><path id="esho1hje807i37" d="M293.986000,167.054000C293.986000,167.054000,301.320000,154.322000,302.402000,152.308000C303.484000,150.294000,305.664000,137.190000,309.267000,132.317000C312.870000,127.444000,319.186000,118.517000,319.829000,117.379000C320.472000,116.241000,323.910000,117.679000,323.429000,121.364000C322.948000,125.049000,318.052000,134.281000,317.064000,134.851000C316.076000,135.421000,334.652000,132.044000,337.451000,133.031000C337.451000,133.031000,349.846000,131.450000,351.495000,132.855000C351.495000,132.855000,357.766000,135.407000,351.973000,138.195000C351.973000,138.195000,358.438000,139.850000,352.450000,143.535000C352.450000,143.535000,353.683000,149.572000,346.680000,151.586000C338.968135,157.094850,329.952696,160.496838,320.524000,161.456000C311.095304,162.415162,314.075000,167.813000,312.990000,173.970000Z" fill="rgb(249,161,123)" fill-rule="evenodd" stroke="none" stroke-width="1"/><path id="esho1hje807i38" d="M322.907000,139.712000C322.907000,139.712000,330.041000,148.457000,328.536000,154.282000L338.980000,150.120000L331.469000,150.790000C331.469000,150.790000,328.362000,147.909000,328.845000,145.642000C328.845000,145.642000,330.255000,142.999000,327.486000,142.533000C326.664750,141.700266,326.180366,140.593307,326.126000,139.425000L326.126000,139.425000C325.989637,138.684001,325.525343,138.044479,324.863004,137.685339C324.200664,137.326200,323.411398,137.286005,322.716000,137.576000C322.361801,138.265135,322.436154,139.096640,322.907000,139.712000Z" fill="rgb(212,137,105)" fill-rule="evenodd" stroke="none" stroke-width="1"/></g><path id="esho1hje807i39" d="M315.091000,175.820000L318.912000,165.443000C318.912000,165.443000,299.740000,156.434000,294.527000,155.806000L290.707000,166.183000Z" fill="rgb(92,178,191)" fill-rule="evenodd" stroke="none" stroke-width="1"/><path id="esho1hje807i40" d="M291.916000,160.514000C291.916000,160.514000,314.027000,169.739000,317.096000,172.076000C316.535000,172.937000,311.213000,233.203000,275.655000,256.293000C275.655000,256.293000,262.046000,261.203000,259.666000,249.193000C259.666000,249.190000,250.268000,234.400000,291.916000,160.514000Z" fill="rgb(255,255,255)" fill-rule="evenodd" stroke="none" stroke-width="1"/></g><path id="esho1hje807i41" d="M255.058000,160.891000C255.058000,160.891000,250.558000,176.930000,239.027000,186.919000C239.027000,186.919000,254.479000,178.610000,255.058000,160.891000Z" fill="rgb(221,221,221)" fill-rule="evenodd" stroke="none" stroke-width="1"/><path id="esho1hje807i42" d="M136,197L145,143C145,143,114.987000,155.835000,113,158C111.013000,160.165000,88.053000,224.171000,90,238C90,238,84.800000,255.100000,99,258C99,258,118.118000,263.100000,136,197Z" fill="rgb(255,255,255)" fill-rule="evenodd" stroke="none" stroke-width="1"/><path id="esho1hje807i43" d="M136,197C136,197,131.063000,222.881000,125,237L121,262L121,235C121,235,135.416000,198.020000,136,197Z" fill="rgb(221,221,221)" fill-rule="evenodd" stroke="none" stroke-width="1"/><path id="esho1hje807i44" d="M106,178C107.100000,178.428000,115.327000,216.493000,115,227L111,241C111,241,104.900000,177.572000,106,178Z" fill="rgb(221,221,221)" fill-rule="evenodd" stroke="none" stroke-width="1"/><path id="esho1hje807i45" d="M72,155L71,144C71,144,91.811000,140.259000,97,141L98,152Z" fill="rgb(92,178,191)" fill-rule="evenodd" stroke="none" stroke-width="1"/><path id="esho1hje807i46" d="M98.749000,148.409000C98.749000,148.409000,75.049000,151.597000,71.484000,153.060000C71.802000,154.036000,63.593000,224.513000,91.904000,255.978000C91.904000,255.978000,103.755000,264.231000,109.155000,253.255000C109.154000,253.255000,119.800000,230.459000,98.749000,148.409000Z" fill="rgb(255,255,255)" fill-rule="evenodd" stroke="none" stroke-width="1"/><path id="esho1hje807i47" d="M115,161C115,161,119.488000,177.021000,131,187C131,187,115.578000,178.700000,115,161Z" fill="rgb(221,221,221)" fill-rule="evenodd" stroke="none" stroke-width="1"/><g id="esho1hje807i48"><rect id="esho1hje807i49" width="80" height="110" rx="8" ry="8" transform="matrix(1 0 0 1 35 118)" fill="rgb(235,235,235)" stroke="none" stroke-width="1"/><path id="esho1hje807i50" d="M50.137000,155.528000C50.449377,155.840172,50.955623,155.840172,51.268000,155.528000L60.468000,146.328000C60.780172,146.015623,60.780172,145.509377,60.468000,145.197000L59.337000,144.066000C59.024623,143.753828,58.518377,143.753828,58.206000,144.066000L50.706000,151.566000L47.206000,148.066000C46.893623,147.753828,46.387377,147.753828,46.075000,148.066000L44.938000,149.200000C44.625828,149.512377,44.625828,150.018623,44.938000,150.331000Z" transform="matrix(1 0 0 1 0 40.00299999500001)" opacity="0" fill="rgb(92,178,191)" fill-rule="evenodd" stroke="none" stroke-width="1"/><path id="esho1hje807i51" d="M50.137000,155.528000C50.449377,155.840172,50.955623,155.840172,51.268000,155.528000L60.468000,146.328000C60.780172,146.015623,60.780172,145.509377,60.468000,145.197000L59.337000,144.066000C59.024623,143.753828,58.518377,143.753828,58.206000,144.066000L50.706000,151.566000L47.206000,148.066000C46.893623,147.753828,46.387377,147.753828,46.075000,148.066000L44.938000,149.200000C44.625828,149.512377,44.625828,150.018623,44.938000,150.331000Z" transform="matrix(1 0 0 1 0 19.78112921499996)" opacity="0" fill="rgb(92,178,191)" fill-rule="evenodd" stroke="none" stroke-width="1"/><path id="esho1hje807i52" d="M50.137000,155.528000C50.449377,155.840172,50.955623,155.840172,51.268000,155.528000L60.468000,146.328000C60.780172,146.015623,60.780172,145.509377,60.468000,145.197000L59.337000,144.066000C59.024623,143.753828,58.518377,143.753828,58.206000,144.066000L50.706000,151.566000L47.206000,148.066000C46.893623,147.753828,46.387377,147.753828,46.075000,148.066000L44.938000,149.200000C44.625828,149.512377,44.625828,150.018623,44.938000,150.331000Z" opacity="0" fill="rgb(92,178,191)" fill-rule="evenodd" stroke="none" stroke-width="1"/><rect id="esho1hje807i53" width="3.272435" height="4" rx="2" ry="2" transform="matrix(1 0 0 1 66 187.00299999500004)" opacity="0" fill="rgb(204,204,204)" stroke="none" stroke-width="1"/><rect id="esho1hje807i54" width="3.272435" height="4" rx="2" ry="2" transform="matrix(1 0 0 1 66 166.78112921499999)" opacity="0" fill="rgb(204,204,204)" stroke="none" stroke-width="1"/><rect id="esho1hje807i55" width="3.272435" height="4" rx="2" ry="2" transform="matrix(1 0 0 1 66 147.00000000000003)" opacity="0" fill="rgb(204,204,204)" stroke="none" stroke-width="1"/><path id="esho1hje807i56" d="M97.900000,127.576000L94.119000,127.576000C92.918987,127.539537,91.975239,126.538064,92.010000,125.338000L92.010000,128.763000C92.044193,129.963057,91.100006,130.964073,89.900000,131L86.116000,131C84.916389,130.963534,83.972802,129.962678,84.007000,128.763000L84.007000,125.338000C84.041761,126.538064,83.098013,127.539537,81.898000,127.576000L78.112000,127.576000C76.910802,127.541158,75.965255,126.539201,76,125.338000L76,121.914000C76.034198,123.113678,75.090611,124.114534,73.891000,124.151000L70.109000,124.151000C68.909389,124.114534,67.965802,123.113678,68,121.914000L68,114.358000C68.001975,113.997848,68.087918,113.643120,68.251000,113.322000L68,113.100000C68,113.100000,70.535000,109.691000,73.273000,108.626000C76.011000,107.561000,80.048000,106.218000,81.710000,105.270000C83.372000,104.322000,89.269000,100.645000,94.365000,105.270000C96.124304,106.784234,97.608210,108.591583,98.751000,110.612000C99.532844,110.992220,100.024873,111.789673,100.014000,112.659000L100.014000,125.336000C100.030953,125.913443,99.817697,126.473948,99.421194,126.894083C99.024691,127.314218,98.477457,127.559531,97.900000,127.576000Z" fill="rgb(249,161,123)" fill-rule="evenodd" stroke="none" stroke-width="1"/></g></g><script><![CDATA[!function(t,n){"object"==typeof exports&&"undefined"!=typeof module?module.exports=n():"function"==typeof define&&define.amd?define(n):(t=t||self).__SVGATOR_PLAYER__=n()}(this,(function(){"use strict";function t(n){return(t="function"==typeof Symbol&&"symbol"==typeof Symbol.iterator?function(t){return typeof t}:function(t){return t&&"function"==typeof Symbol&&t.constructor===Symbol&&t!==Symbol.prototype?"symbol":typeof t})(n)}function n(t,n){if(!(t instanceof n))throw new TypeError("Cannot call a class as a function")}function r(t,n){for(var r=0;r<n.length;r++){var e=n[r];e.enumerable=e.enumerable||!1,e.configurable=!0,"value"in e&&(e.writable=!0),Object.defineProperty(t,e.key,e)}}function e(t,n,e){return n&&r(t.prototype,n),e&&r(t,e),t}var i=1e-5,u=Math.abs;function o(t){return t}function a(t,n,r){var e=1-r;return 3*r*e*(t*e+n*r)+r*r*r}function l(){var t=arguments.length>0&&void 0!==arguments[0]?arguments[0]:0,n=arguments.length>1&&void 0!==arguments[1]?arguments[1]:0,r=arguments.length>2&&void 0!==arguments[2]?arguments[2]:1,e=arguments.length>3&&void 0!==arguments[3]?arguments[3]:1;return t<0||t>1||r<0||r>1?null:u(t-n)<=i&&u(r-e)<=i?o:function(o){if(o<=0)return t>0?o*n/t:0===n&&r>0?o*e/r:0;if(o>=1)return r<1?1+(o-1)*(e-1)/(r-1):1===r&&t<1?1+(o-1)*(n-1)/(t-1):1;for(var l,f=0,s=1;f<s;){var c=a(t,r,l=(f+s)/2);if(u(o-c)<i)break;c<o?f=l:s=l}return a(n,e,l)}}function f(){return 1}function s(t){return 1===t?1:0}function c(){var t=arguments.length>0&&void 0!==arguments[0]?arguments[0]:1,n=arguments.length>1&&void 0!==arguments[1]?arguments[1]:0;if(1===t){if(0===n)return s;if(1===n)return f}var r=1/t;return function(t){return t>=1?1:(t+=n*r)-t%r}}function v(t){var n=arguments.length>1&&void 0!==arguments[1]?arguments[1]:2;if(Number.isInteger(t))return t;var r=Math.pow(10,n);return Math.round(t*r)/r}var h=Math.PI/180;function y(t,n,r){return t>=.5?r:n}function d(t,n,r){return 0===t||n===r?n:t*(r-n)+n}function g(t,n,r){var e=d(t,n,r);return e<=0?0:e}function m(t,n,r){return 0===t?n:1===t?r:{x:d(t,n.x,r.x),y:d(t,n.y,r.y)}}function p(t,n,r){return 0===t?n:1===t?r:{x:g(t,n.x,r.x),y:g(t,n.y,r.y)}}function b(t,n,r){var e=function(t,n,r){return Math.round(d(t,n,r))}(t,n,r);return e<=0?0:e>=255?255:e}function w(t,n,r){return 0===t?n:1===t?r:{r:b(t,n.r,r.r),g:b(t,n.g,r.g),b:b(t,n.b,r.b),a:d(t,null==n.a?1:n.a,null==r.a?1:r.a)}}function A(t,n,r){if(0===t)return n;if(1===t)return r;var e=n.length;if(e!==r.length)return y(t,n,r);for(var i=[],u=0;u<e;u++)i.push(w(t,n[u],r[u]));return i}function x(t,n,r){var e=n.length;if(e!==r.length)return y(t,n,r);for(var i=new Array(e),u=0;u<e;u++)i[u]=d(t,n[u],r[u]);return i}function k(t,n){for(var r=[],e=0;e<t;e++)r.push(n);return r}function S(t,n){if(--n<=0)return t;var r=(t=Object.assign([],t)).length;do{for(var e=0;e<r;e++)t.push(t[e])}while(--n>0);return t}var _=6,M=/\.0+$/g;function I(t){return Number.isInteger(t)?t+"":t.toFixed(_).replace(M,"")}function E(t){var n=arguments.length>1&&void 0!==arguments[1]?arguments[1]:" ";return t&&t.length?t.map(I).join(n):""}function F(t){return I(t.x)+","+I(t.y)}function B(t){return t?null==t.a||t.a>=1?"rgb("+t.r+","+t.g+","+t.b+")":"rgba("+t.r+","+t.g+","+t.b+","+t.a+")":"transparent"}var j={f:null,i:p,u:function(t,n){return function(r){var e=n(r);t.setAttribute("rx",I(e.x)),t.setAttribute("ry",I(e.y))}}},q={f:null,i:function(t,n,r){return 0===t?n:1===t?r:{width:g(t,n.width,r.width),height:g(t,n.height,r.height)}},u:function(t,n){return function(r){var e=n(r);t.setAttribute("width",I(e.width)),t.setAttribute("height",I(e.height))}}},P=Math.sin,O=Math.cos,z=Math.acos,L=Math.asin,C=Math.tan,R=Math.atan2,T=Math.PI/180,V=180/Math.PI,D=Math.sqrt,N=function(){function t(){var r=arguments.length>0&&void 0!==arguments[0]?arguments[0]:1,e=arguments.length>1&&void 0!==arguments[1]?arguments[1]:0,i=arguments.length>2&&void 0!==arguments[2]?arguments[2]:0,u=arguments.length>3&&void 0!==arguments[3]?arguments[3]:1,o=arguments.length>4&&void 0!==arguments[4]?arguments[4]:0,a=arguments.length>5&&void 0!==arguments[5]?arguments[5]:0;n(this,t),this.m=[r,e,i,u,o,a],this.i=null,this.w=null,this.s=null}return e(t,[{key:"point",value:function(t,n){var r=this.m;return{x:r[0]*t+r[2]*n+r[4],y:r[1]*t+r[3]*n+r[5]}}},{key:"translateSelf",value:function(){var t=arguments.length>0&&void 0!==arguments[0]?arguments[0]:0,n=arguments.length>1&&void 0!==arguments[1]?arguments[1]:0;if(!t&&!n)return this;var r=this.m;return r[4]+=r[0]*t+r[2]*n,r[5]+=r[1]*t+r[3]*n,this.w=this.s=this.i=null,this}},{key:"rotateSelf",value:function(){var t=arguments.length>0&&void 0!==arguments[0]?arguments[0]:0;if(t%=360){var n=P(t*=T),r=O(t),e=this.m,i=e[0],u=e[1];e[0]=i*r+e[2]*n,e[1]=u*r+e[3]*n,e[2]=e[2]*r-i*n,e[3]=e[3]*r-u*n,this.w=this.s=this.i=null}return this}},{key:"scaleSelf",value:function(){var t=arguments.length>0&&void 0!==arguments[0]?arguments[0]:1,n=arguments.length>1&&void 0!==arguments[1]?arguments[1]:1;if(1!==t||1!==n){var r=this.m;r[0]*=t,r[1]*=t,r[2]*=n,r[3]*=n,this.w=this.s=this.i=null}return this}},{key:"skewSelf",value:function(t,n){if(n%=360,(t%=360)||n){var r=this.m,e=r[0],i=r[1],u=r[2],o=r[3];t&&(t=C(t*T),r[2]+=e*t,r[3]+=i*t),n&&(n=C(n*T),r[0]+=u*n,r[1]+=o*n),this.w=this.s=this.i=null}return this}},{key:"resetSelf",value:function(){var t=arguments.length>0&&void 0!==arguments[0]?arguments[0]:1,n=arguments.length>1&&void 0!==arguments[1]?arguments[1]:0,r=arguments.length>2&&void 0!==arguments[2]?arguments[2]:0,e=arguments.length>3&&void 0!==arguments[3]?arguments[3]:1,i=arguments.length>4&&void 0!==arguments[4]?arguments[4]:0,u=arguments.length>5&&void 0!==arguments[5]?arguments[5]:0,o=this.m;return o[0]=t,o[1]=n,o[2]=r,o[3]=e,o[4]=i,o[5]=u,this.w=this.s=this.i=null,this}},{key:"recomposeSelf",value:function(){var t=arguments.length>0&&void 0!==arguments[0]?arguments[0]:null,n=arguments.length>1&&void 0!==arguments[1]?arguments[1]:null,r=arguments.length>2&&void 0!==arguments[2]?arguments[2]:null,e=arguments.length>3&&void 0!==arguments[3]?arguments[3]:null,i=arguments.length>4&&void 0!==arguments[4]?arguments[4]:null;return this.isIdentity||this.resetSelf(),t&&(t.x||t.y)&&this.translateSelf(t.x,t.y),n&&this.rotateSelf(n),r&&(r.x&&this.skewSelf(r.x,0),r.y&&this.skewSelf(0,r.y)),!e||1===e.x&&1===e.y||this.scaleSelf(e.x,e.y),i&&(i.x||i.y)&&this.translateSelf(i.x,i.y),this}},{key:"decompose",value:function(){var t=arguments.length>0&&void 0!==arguments[0]?arguments[0]:0,n=arguments.length>1&&void 0!==arguments[1]?arguments[1]:0,r=this.m,e=r[0]*r[0]+r[1]*r[1],i=[[r[0],r[1]],[r[2],r[3]]],u=D(e);if(0===u)return{origin:{x:r[4],y:r[5]},translate:{x:t,y:n},scale:{x:0,y:0},skew:{x:0,y:0},rotate:0};i[0][0]/=u,i[0][1]/=u;var o=r[0]*r[3]-r[1]*r[2]<0;o&&(u=-u);var a=i[0][0]*i[1][0]+i[0][1]*i[1][1];i[1][0]-=i[0][0]*a,i[1][1]-=i[0][1]*a;var l=D(i[1][0]*i[1][0]+i[1][1]*i[1][1]);if(0===l)return{origin:{x:r[4],y:r[5]},translate:{x:t,y:n},scale:{x:u,y:0},skew:{x:0,y:0},rotate:0};i[1][0]/=l,i[1][1]/=l,a/=l;var f=0;return i[1][1]<0?(f=z(i[1][1])*V,i[0][1]<0&&(f=360-f)):f=L(i[0][1])*V,o&&(f=-f),a=R(a,D(i[0][0]*i[0][0]+i[0][1]*i[0][1]))*V,{origin:{x:r[4],y:r[5]},translate:{x:t,y:n},scale:{x:u,y:l},skew:{x:a,y:0},rotate:f}}},{key:"toString",value:function(){return null===this.s&&(this.s="matrix("+this.m.map($).join(" ")+")"),this.s}},{key:"determinant",get:function(){var t=this.m;return t[0]*t[3]-t[1]*t[2]}},{key:"isIdentity",get:function(){if(null===this.i){var t=this.m;this.i=1===t[0]&&0===t[1]&&0===t[2]&&1===t[3]&&0===t[4]&&0===t[5]}return this.i}}]),t}(),G=/\.0+$/;function $(t){return Number.isInteger(t)?t:t.toFixed(14).replace(G,"")}Object.freeze({M:2,L:2,Z:0,H:1,V:1,C:6,Q:4,T:2,S:4,A:7});function H(t,n,r){return t+(n-t)*r}function Q(t,n,r){var e=arguments.length>3&&void 0!==arguments[3]&&arguments[3],i={x:H(t.x,n.x,r),y:H(t.y,n.y,r)};return e&&(i.a=function(t,n){return Math.atan2(n.y-t.y,n.x-t.x)}(t,n)),i}function U(t,n,r,e){var i=1-e;return i*i*t+2*i*e*n+e*e*r}function Y(t,n,r,e){return 2*(1-e)*(n-t)+2*e*(r-n)}function Z(t,n,r,e){var i=arguments.length>4&&void 0!==arguments[4]&&arguments[4],u={x:U(t.x,n.x,r.x,e),y:U(t.y,n.y,r.y,e)};return i&&(u.a=function(t,n,r,e){return Math.atan2(Y(t.y,n.y,r.y,e),Y(t.x,n.x,r.x,e))}(t,n,r,e)),u}function J(t,n,r,e,i){var u=i*i;return i*u*(e-t+3*(n-r))+3*u*(t+r-2*n)+3*i*(n-t)+t}function K(t,n,r,e,i){var u=1-i;return 3*(u*u*(n-t)+2*u*i*(r-n)+i*i*(e-r))}function W(t,n,r,e,i){var u=arguments.length>5&&void 0!==arguments[5]&&arguments[5],o={x:J(t.x,n.x,r.x,e.x,i),y:J(t.y,n.y,r.y,e.y,i)};return u&&(o.a=function(t,n,r,e,i){return Math.atan2(K(t.y,n.y,r.y,e.y,i),K(t.x,n.x,r.x,e.x,i))}(t,n,r,e,i)),o}function X(t,n,r){var e,i=arguments.length>3&&void 0!==arguments[3]&&arguments[3];if(nt(n)){if(null!=(e=r).start&&!nt(e))return Z(n,r.start,r,t,i)}else if(nt(r)){if(n.end)return Z(n,n.end,r,t,i)}else{if(n.end)return r.start?W(n,n.end,r.start,r,t,i):Z(n,n.end,r,t,i);if(r.start)return Z(n,r.start,r,t,i)}return Q(n,r,t,i)}function tt(t,n,r){var e=X(t,n,r,!0);return e.a=function(t){return arguments.length>1&&void 0!==arguments[1]&&arguments[1]?t+Math.PI:t}(e.a)/h,e}function nt(t){return!t.type||"corner"===t.type}var rt=new N;var et={f:function(t){return t?t.join(" "):""},i:function(n,r,e){if(0===n)return r;if(1===n)return e;var i=r.length;if(i!==e.length)return y(n,r,e);for(var u,o=new Array(i),a=0;a<i;a++){if((u=t(r[a]))!==t(e[a]))return y(n,r,e);if("number"===u)o[a]=d(n,r[a],e[a]);else{if(r[a]!==e[a])return y(n,r,e);o[a]=r[a]}}return o}},it={f:null,i:x,u:function(t,n){return function(r){var e=n(r);t.setAttribute("x1",I(e[0])),t.setAttribute("y1",I(e[1])),t.setAttribute("x2",I(e[2])),t.setAttribute("y2",I(e[3]))}}},ut={f:I,i:d},ot={f:I,i:function(t,n,r){var e=d(t,n,r);return e<=0?0:e>=1?1:e}},at={f:E,i:function(t,n,r){var e,i,u,o=n.length,a=r.length;if(o!==a)if(0===o)n=k(o=a,0);else if(0===a)a=o,r=k(o,0);else{var l=(u=(e=o)*(i=a)/function(t,n){for(var r;n;)r=n,n=t%n,t=r;return t||1}(e,i))<0?-u:u;n=S(n,Math.floor(l/o)),r=S(r,Math.floor(l/a)),o=a=l}for(var f=[],s=0;s<o;s++)f.push(v(g(t,n[s],r[s]),6));return f}};function lt(t,n,r,e,i,u,o,a){return n=function(t,n,r){for(var e,i,u,o=t.length-1,a={},l=0;l<=o;l++)(e=t[l]).e&&(e.e=n(e.e)),e.v&&"g"===(i=e.v).t&&i.r&&(u=r.getElementById(i.r))&&(a[i.r]=u.querySelectorAll("stop"));return a}(t,e,a),function(e){var i,u=r(e,t,ft);return u?"c"===u.t?B(u.v):"g"===u.t?(n[u.r]&&function(t,n){for(var r=0,e=t.length;r<e;r++)t[r].setAttribute("stop-color",B(n[r]))}(n[u.r],u.v),(i=u.r)?"url(#"+i+")":"none"):"none":"none"}}function ft(t,n,r){if(0===t)return n;if(1===t)return r;if(n&&r){var e=n.t;if(e===r.t)switch(n.t){case"c":return{t:e,v:w(t,n.v,r.v)};case"g":if(n.r===r.r)return{t:e,v:A(t,n.v,r.v),r:n.r}}}return y(t,n,r)}var st={blur:p,brightness:g,contrast:g,"drop-shadow":function(t,n,r){return 0===t?n:1===t?r:{blur:p(t,n.blur,r.blur),offset:m(t,n.offset,r.offset),color:w(t,n.color,r.color)}},grayscale:g,"hue-rotate":d,invert:g,opacity:g,saturate:g,sepia:g};function ct(t,n,r){if(0===t)return n;if(1===t)return r;var e=n.length;if(e!==r.length)return y(t,n,r);for(var i,u=[],o=0;o<e;o++){if(n[o].type!==r[o].type)return n;if(!(i=st[n[o].type]))return y(t,n,r);u.push({type:n.type,value:i(t,n[o].value,r[o].value)})}return u}var vt={blur:function(t){return t?function(n){t.setAttribute("stdDeviation",F(n))}:null},brightness:function(t,n,r){return(t=yt(r,n))?function(n){n=I(n),t.map((function(t){return t.setAttribute("slope",n)}))}:null},contrast:function(t,n,r){return(t=yt(r,n))?function(n){var r=I((1-n)/2);n=I(n),t.map((function(t){t.setAttribute("slope",n),t.setAttribute("intercept",r)}))}:null},"drop-shadow":function(t,n,r){var e=r.getElementById(n+"-blur");if(!e)return null;var i=r.getElementById(n+"-offset");if(!i)return null;var u=r.getElementById(n+"-flood");return u?function(t){e.setAttribute("stdDeviation",F(t.blur)),i.setAttribute("dx",I(t.offset.x)),i.setAttribute("dy",I(t.offset.y)),u.setAttribute("flood-color",B(t.color))}:null},grayscale:function(t){return t?function(n){t.setAttribute("values",E(function(t){return[.2126+.7874*(t=1-t),.7152-.7152*t,.0722-.0722*t,0,0,.2126-.2126*t,.7152+.2848*t,.0722-.0722*t,0,0,.2126-.2126*t,.7152-.7152*t,.0722+.9278*t,0,0,0,0,0,1,0]}(n)))}:null},"hue-rotate":function(t){return t?function(n){return t.setAttribute("values",I(n))}:null},invert:function(t,n,r){return(t=yt(r,n))?function(n){n=I(n)+" "+I(1-n),t.map((function(t){return t.setAttribute("tableValues",n)}))}:null},opacity:function(t,n,r){return(t=r.getElementById(n+"-A"))?function(n){return t.setAttribute("tableValues","0 "+I(n))}:null},saturate:function(t){return t?function(n){return t.setAttribute("values",I(n))}:null},sepia:function(t){return t?function(n){return t.setAttribute("values",E(function(t){return[.393+.607*(t=1-t),.769-.769*t,.189-.189*t,0,0,.349-.349*t,.686+.314*t,.168-.168*t,0,0,.272-.272*t,.534-.534*t,.131+.869*t,0,0,0,0,0,1,0]}(n)))}:null}};var ht=["R","G","B"];function yt(t,n){var r=ht.map((function(r){return t.getElementById(n+"-"+r)||null}));return-1!==r.indexOf(null)?null:r}var dt={fill:lt,"fill-opacity":ot,stroke:lt,"stroke-opacity":ot,"stroke-width":ut,"stroke-dashoffset":{f:I,i:d},"stroke-dasharray":at,opacity:ot,transform:function(n,r,e,i){if(!(n=function(n,r){if(!n||"object"!==t(n))return null;var e=!1;for(var i in n)n.hasOwnProperty(i)&&(n[i]&&n[i].length?(n[i].forEach((function(t){t.e&&(t.e=r(t.e))})),e=!0):delete n[i]);return e?n:null}(n,i)))return null;var u=function(t,i,u){var o=arguments.length>3&&void 0!==arguments[3]?arguments[3]:null;return n[t]?e(i,n[t],u):r&&r[t]?r[t]:o};return r&&r.a&&n.o?function(t){var r=e(t,n.o,tt);return rt.recomposeSelf(r,u("r",t,d,0)+r.a,u("k",t,m),u("s",t,m),u("t",t,m)).toString()}:function(t){return rt.recomposeSelf(u("o",t,X,null),u("r",t,d,0),u("k",t,m),u("s",t,m),u("t",t,m)).toString()}},"#filter":function(t,n,r,e,i,u,o,a){if(!n.items||!t||!t.length)return null;var l=function(t,n){var r=(t=t.map((function(t){return t&&vt[t[0]]?(n.getElementById(t[1]),vt[t[0]](n.getElementById(t[1]),t[1],n)):null}))).length;return function(n){for(var e=0;e<r;e++)t[e]&&t[e](n[e].value)}}(n.items,a);return l?(t=function(t,n){return t.map((function(t){return t.e=n(t.e),t}))}(t,e),function(n){l(r(n,t,ct))}):null},"#line":it,points:{f:E,i:x},d:et,r:ut,"#size":q,"#radius":j,_:function(t,n){if(Array.isArray(t))for(var r=0;r<t.length;r++)this[t[r]]=n;else this[t]=n}},gt=function(){function t(r){n(this,t),this.list=r,this.length=r.length}return e(t,[{key:"setAttribute",value:function(t,n){for(var r=this.list,e=0;e<this.length;e++)r[e].setAttribute(t,n)}},{key:"removeAttribute",value:function(t){for(var n=this.list,r=0;r<this.length;r++)n[r].removeAttribute(t)}},{key:"style",value:function(t,n){for(var r=this.list,e=0;e<this.length;e++)r[e].style[t]=n}}]),t}(),mt=/-./g,pt=function(t,n){return n.toUpperCase()};function bt(t){return"function"==typeof t?t:y}function wt(t){return t?"function"==typeof t?t:Array.isArray(t)?function(t){var n=arguments.length>1&&void 0!==arguments[1]?arguments[1]:o;if(!Array.isArray(t))return n;switch(t.length){case 1:return c(t[0])||n;case 2:return c(t[0],t[1])||n;case 4:return l(t[0],t[1],t[2],t[3])||n}return n}(t,null):function(t,n){var r=arguments.length>2&&void 0!==arguments[2]?arguments[2]:o;switch(t){case"linear":return o;case"steps":return c(n.steps||1,n.jump||0)||r;case"bezier":case"cubic-bezier":return l(n.x1||0,n.y1||0,n.x2||0,n.y2||0)||r}return r}(t.type,t.value,null):null}function At(t,n,r){var e=arguments.length>3&&void 0!==arguments[3]&&arguments[3],i=n.length-1;if(t<=n[0].t)return e?[0,0,n[0].v]:n[0].v;if(t>=n[i].t)return e?[i,1,n[i].v]:n[i].v;var u,o=n[0],a=null;for(u=1;u<=i;u++){if(!(t>n[u].t)){a=n[u];break}o=n[u]}return null==a?e?[i,1,n[i].v]:n[i].v:o.t===a.t?e?[u,1,a.v]:a.v:(t=(t-o.t)/(a.t-o.t),o.e&&(t=o.e(t)),e?[u,t,r(t,o.v,a.v)]:r(t,o.v,a.v))}function xt(t,n){var r=arguments.length>2&&void 0!==arguments[2]?arguments[2]:null;return t&&t.length?"function"!=typeof n?null:("function"!=typeof r&&(r=null),function(e){var i=At(e,t,n);return null!=i&&r&&(i=r(i)),i}):null}function kt(t,n){return t.t-n.t}function St(n,r,e,i,u){var o,a="@"===e[0],l="#"===e[0],f=dt[e],s=y;switch(a?(o=e.substr(1),e=o.replace(mt,pt)):l&&(e=e.substr(1)),t(f)){case"function":if(s=f(i,u,At,wt,e,a,r,n),l)return s;break;case"string":s=xt(i,bt(f));break;case"object":if((s=xt(i,bt(f.i),f.f))&&"function"==typeof f.u)return f.u(r,s,e,a,n)}return s?function(t,n,r){if(arguments.length>3&&void 0!==arguments[3]&&arguments[3])return t instanceof gt?function(e){return t.style(n,r(e))}:function(e){return t.style[n]=r(e)};if(Array.isArray(n)){var e=n.length;return function(i){var u=r(i);if(null==u)for(var o=0;o<e;o++)t[o].removeAttribute(n);else for(var a=0;a<e;a++)t[a].setAttribute(n,u)}}return function(e){var i=r(e);null==i?t.removeAttribute(n):t.setAttribute(n,i)}}(r,e,s,a):null}function _t(n,r,e,i){if(!i||"object"!==t(i))return null;var u=null,o=null;return Array.isArray(i)?o=function(t){if(!t||!t.length)return null;for(var n=0;n<t.length;n++)t[n].e&&(t[n].e=wt(t[n].e));return t.sort(kt)}(i):(o=i.keys,u=i.data||null),o?St(n,r,e,o,u):null}function Mt(t,n,r){if(!r)return null;var e=[];for(var i in r)if(r.hasOwnProperty(i)){var u=_t(t,n,i,r[i]);u&&e.push(u)}return e.length?e:null}function It(t,n){if(!n.duration||n.duration<0)return null;var r=function(t,n){if(!n)return null;var r=[];if(Array.isArray(n))for(var e=n.length,i=0;i<e;i++){var u=n[i];if(2===u.length){var o=null;if("string"==typeof u[0])o=t.getElementById(u[0]);else if(Array.isArray(u[0])){o=[];for(var a=0;a<u[0].length;a++)if("string"==typeof u[0][a]){var l=t.getElementById(u[0][a]);l&&o.push(l)}o=o.length?1===o.length?o[0]:new gt(o):null}if(o){var f=Mt(t,o,u[1]);f&&(r=r.concat(f))}}}else for(var s in n)if(n.hasOwnProperty(s)){var c=t.getElementById(s);if(c){var v=Mt(t,c,n[s]);v&&(r=r.concat(v))}}return r.length?r:null}(t,n.elements);return r?function(t,n){var r=arguments.length>2&&void 0!==arguments[2]?arguments[2]:1/0,e=arguments.length>3&&void 0!==arguments[3]?arguments[3]:1,i=arguments.length>4&&void 0!==arguments[4]&&arguments[4],u=arguments.length>5&&void 0!==arguments[5]?arguments[5]:1,o=t.length,a=e>0?n:0;i&&r%2==0&&(a=n-a);var l=null;return function(f,s){var c=f%n,v=1+(f-c)/n;s*=e,i&&v%2==0&&(s=-s);var h=!1;if(v>r)c=a,h=!0,-1===u&&(c=e>0?0:n);else if(s<0&&(c=n-c),c===l)return!1;l=c;for(var y=0;y<o;y++)t[y](c);return h}}(r,n.duration,n.iterations||1/0,n.direction||1,!!n.alternate,n.fill||1):null}var Et=function(){function t(r){var e=arguments.length>1&&void 0!==arguments[1]?arguments[1]:{};n(this,t),this._id=0,this._running=!1,this._animations=r,this.direction=e.direction||1,this.speed=e.speed||1,this.fps=e.fps||100,this.offset=e.offset||0}return e(t,[{key:"_start",value:function(){var t=this,n=arguments.length>0&&void 0!==arguments[0]?arguments[0]:0,r=-1/0,e=null,i={},u=function u(o){t._running=!0,null==e&&(e=o);var a=Math.round((o-e+n)*t.speed),l=t.fps?1e3/t.fps:0;if(a>r+l){t.offset=a,r=a;for(var f=t._animations,s=f.length,c=0,v=0;v<s;v++)i[v]?c++:(i[v]=f[v](a,t.direction),i[v]&&c++);if(c===s)return void t._stop()}t._id=window.requestAnimationFrame(u)};this._id=window.requestAnimationFrame(u)}},{key:"_stop",value:function(){this._id&&window.cancelAnimationFrame(this._id),this._running=!1}},{key:"play",value:function(){this._running||this._start(this.offset)}},{key:"stop",value:function(){this._stop(),this.offset=0;var t=this.direction,n=this._animations;requestAnimationFrame((function(){for(var r=0;r<n.length;r++)n[r](0,t)}))}},{key:"restart",value:function(){this._stop(),this.offset=0,this._start()}},{key:"pause",value:function(){this._stop()}},{key:"reverse",value:function(){this.direction=-this.direction}}],[{key:"build",value:function(n){if(!(n=function(t){if(!t||!t.root||!Array.isArray(t.animations))return null;var n=window.document.getElementById(t.root);if(!n)return null;var r=t.animations.map((function(t){return It(n,t)})).filter((function(t){return!!t}));return r.length?{element:n,animations:r,options:t.options||void 0}:null}(n)))return null;var r=n.element,e=n.options||{},i=new t(n.animations,n.options);return function(t,n,r){var e=arguments.length>3&&void 0!==arguments[3]?arguments[3]:null;if("click"===r){return void n.addEventListener("click",(function r(){n.removeEventListener("click",r),t.play()}))}if("hover"===r)return n.addEventListener("mouseenter",(function(){return t.play()})),void n.addEventListener("mouseleave","freeze"===e?function(){return t.pause()}:function(){return t.stop()});t.play()}(i,r,e.start,e.hover),i}}]),t}();return function(){for(var t=0,n=["ms","moz","webkit","o"],r=0;r<n.length&&!window.requestAnimationFrame;++r)window.requestAnimationFrame=window[n[r]+"RequestAnimationFrame"],window.cancelAnimationFrame=window[n[r]+"CancelAnimationFrame"]||window[n[r]+"CancelRequestAnimationFrame"];window.requestAnimationFrame||(window.requestAnimationFrame=function(n){var r=Date.now(),e=Math.max(0,16-(r-t)),i=window.setTimeout((function(){n(r+e)}),e);return t=r+e,i},window.cancelAnimationFrame=window.clearTimeout)}(),Et}));
__SVGATOR_PLAYER__.build({"root":"esho1hje807i1","animations":[{"duration":4000,"direction":1,"iterations":0,"fill":1,"alternate":false,"elements":{"esho1hje807i11":{"transform":{"keys":{"o":[{"t":0,"v":{"x":0,"y":0,"type":"corner"}},{"t":200,"v":{"x":0,"y":4,"type":"corner"}},{"t":400,"v":{"x":0,"y":0,"type":"corner"}},{"t":600,"v":{"x":0,"y":4,"type":"corner"}},{"t":800,"v":{"x":0,"y":0,"type":"corner"}},{"t":2000,"v":{"x":0,"y":0,"type":"corner"}},{"t":2200,"v":{"x":0,"y":4,"type":"corner"}},{"t":2400,"v":{"x":0,"y":0,"type":"corner"}},{"t":2600,"v":{"x":0,"y":4,"type":"corner"}},{"t":2800,"v":{"x":0,"y":0,"type":"corner"}}]}}},"esho1hje807i34":{"transform":{"data":{"o":{"x":267.49519153,"y":257.28656663,"type":"corner"},"t":{"x":-267.49519153,"y":-257.28656663}},"keys":{"r":[{"t":0,"v":0},{"t":1000,"v":4.7629717000413345},{"t":2000,"v":0}]}}},"esho1hje807i36":{"transform":{"data":{"o":{"x":303.7783405484192,"y":163.44433789089166,"type":"corner"},"t":{"x":-303.7783405484192,"y":-163.44433789089166}},"keys":{"r":[{"t":0,"v":0},{"t":1000,"v":8.30669022725647},{"t":2000,"v":0}]}}},"esho1hje807i48":{"transform":{"keys":{"o":[{"t":0,"v":{"x":0,"y":0,"type":"corner"}},{"t":500,"v":{"x":0,"y":5,"type":"corner"}},{"t":1000,"v":{"x":0,"y":0,"type":"corner"}},{"t":1500,"v":{"x":0,"y":5,"type":"corner"}},{"t":2000,"v":{"x":0,"y":0,"type":"corner"}},{"t":2500,"v":{"x":0,"y":5,"type":"corner"}},{"t":3000,"v":{"x":0,"y":0,"type":"corner"}},{"t":3500,"v":{"x":0,"y":5,"type":"corner"}},{"t":4000,"v":{"x":0,"y":0,"type":"corner"}}]}}},"esho1hje807i50":{"opacity":[{"t":400,"v":0},{"t":430,"v":1}]},"esho1hje807i51":{"opacity":[{"t":200,"v":0},{"t":230,"v":1}]},"esho1hje807i52":{"opacity":[{"t":0,"v":0},{"t":30,"v":1}]},"esho1hje807i53":{"#size":[{"t":400,"v":{"width":3.272434999389607,"height":4}},{"t":600,"v":{"width":39,"height":4}}],"opacity":[{"t":400,"v":0},{"t":430,"v":1}]},"esho1hje807i54":{"#size":[{"t":200,"v":{"width":3.272434999389607,"height":4}},{"t":400,"v":{"width":39,"height":4}}],"opacity":[{"t":200,"v":0},{"t":230,"v":1}]},"esho1hje807i55":{"#size":[{"t":0,"v":{"width":3.272434999389607,"height":4}},{"t":200,"v":{"width":39,"height":4}}],"opacity":[{"t":0,"v":0},{"t":30,"v":1}]}}}],"options":{"start":"load","hover":"freeze"}})]]></script></svg>