<svg id="eesolow3y1mm1" xmlns="http://www.w3.org/2000/svg" xmlns:xlink="http://www.w3.org/1999/xlink" viewBox="0 0 370 290" shape-rendering="geometricPrecision" text-rendering="geometricPrecision" width="370" height="290"><g id="eesolow3y1mm2"><path id="eesolow3y1mm3" d="M185,291L121,291L121,193C121,148.339000,146,142,146,142C158.452000,141.344000,185,141,185,141C185,141,211.548000,141.344000,224,142C224,142,249,148.339000,249,193L249,291L185,291Z" fill="rgb(255,255,255)" fill-rule="evenodd" stroke="none" stroke-width="1"/><path id="eesolow3y1mm4" d="M235,203.500000C235,211.508129,228.508129,218,220.500000,218C212.491871,218,206,211.508129,206,203.500000L206,186L235,186L235,203.500000Z" fill="rgb(221,221,221)" fill-rule="evenodd" stroke="none" stroke-width="1"/><path id="eesolow3y1mm5" d="M235,201.500000C235,209.508129,228.508129,216,220.500000,216C212.491871,216,206,209.508129,206,201.500000L206,184L235,184L235,201.500000Z" fill="rgb(245,245,245)" fill-rule="evenodd" stroke="none" stroke-width="1"/><path id="eesolow3y1mm6" d="M223.220000,187C223.220000,187,215.520000,201.948000,215.320000,205.271000C215.120000,208.594000,216.852000,206.271000,217.095000,205.309000C217.338000,204.347000,218.005000,201.490000,218.962000,198.462000C219.962000,195.287000,223.222000,187,223.222000,187M225.922000,192.050000C225.922000,192.050000,220.592000,203.136000,220.513000,205.578000C220.434000,208.020000,221.657000,206.289000,221.813000,205.578000C221.969000,204.867000,222.400000,202.762000,223.037000,200.526000C223.707000,198.181000,225.920000,192.050000,225.920000,192.050000M227.526000,196.678000C227.526000,196.678000,223.895000,204.233000,223.841000,205.895000C223.787000,207.557000,224.621000,206.380000,224.729000,205.895000C224.837000,205.410000,225.129000,203.977000,225.563000,202.453000C226.019000,200.853000,227.526000,196.678000,227.526000,196.678000M230,199.948000L212,199.948000L212,199.809000L230,199.809000L230,199.948000Z" fill="rgb(88,89,91)" fill-rule="evenodd" stroke="none" stroke-width="1"/><rect id="eesolow3y1mm7" width="2" height="67" rx="0" ry="0" transform="matrix(1 0 0 1 184 224)" fill="rgb(221,221,221)" stroke="none" stroke-width="1"/></g><g id="eesolow3y1mm8"><path id="eesolow3y1mm9" d="M208,140L185,162L162,140C168.300000,134.248000,168,119,168,119L202,119C202,119,201.700000,134.248000,208,140Z" fill="rgb(249,161,123)" fill-rule="evenodd" stroke="none" stroke-width="1"/><path id="eesolow3y1mm10" d="M185,119L202,119C201.988005,123.423437,202.554474,127.829454,203.685000,132.106000C194.580000,140.500000,185,140,185,140C185,140,175.417000,140.500000,166.333000,132.043000C167.450595,127.785760,168.010941,123.401476,168,119L185,119Z" fill="rgb(235,152,116)" fill-rule="evenodd" stroke="none" stroke-width="1"/><g id="eesolow3y1mm11"><path id="eesolow3y1mm12" d="M219.152000,86C214.445000,133.571000,185,132,185,132C185,132,155.686000,133.571000,151,86C151,86,141.618000,28,185,28C228.576000,28,219.152000,86,219.152000,86Z" fill="rgb(249,161,123)" fill-rule="evenodd" stroke="none" stroke-width="1"/><path id="eesolow3y1mm13" d="M218.640000,85.746000C214.391000,128.692000,190.269000,132.159000,185.007000,132.402000L185.007000,132.413000C185.007000,132.413000,184.829000,132.423000,184.500000,132.413000C184.171000,132.403000,183.993000,132.413000,183.993000,132.413000L183.993000,132.400000C178.731000,132.157000,154.609000,128.690000,150.359000,85.744000C149.833199,82.046713,149.547601,78.319233,149.504000,74.585000L152.400000,74.585000C152.400000,74.585000,158.180000,106.618000,170.742000,108.063000C170.742000,108.063000,174.642000,105.351000,183.995000,105.023000L183.995000,104.991000C184.170000,104.991000,184.330000,105.004000,184.502000,105.007000C184.674000,105.010000,184.834000,104.991000,185.009000,104.991000L185.009000,105.023000C194.363000,105.351000,198.261000,108.063000,198.261000,108.063000C210.822000,106.620000,216.600000,74.587000,216.600000,74.587000L219.500000,74.587000C219.455088,78.321357,219.167817,82.048860,218.640000,85.746000Z" opacity="0.15" fill="rgb(0,0,0)" fill-rule="evenodd" stroke="none" stroke-width="1"/><path id="eesolow3y1mm14" d="M151,71C151,71,164.455000,59.600000,170,56C170,56,195.572000,64.408000,215,68L215,42L150,42Z" fill="rgb(235,152,116)" fill-rule="evenodd" stroke="none" stroke-width="1"/><path id="eesolow3y1mm15" d="M150,87C150,87,151.053000,89.055000,152,87C152.947000,84.945000,151.522000,71.212000,152,70C152.478000,68.788000,154.726000,60.823000,161,56C163.969373,53.935179,165.815575,50.612015,166,47C166.184425,43.387985,182.986000,55.587000,202,58C202,58,217.100000,68.530000,218,88C218,88,218.741000,91.280000,220,88C223.866736,86.078606,227.276674,83.350656,230,80C234.878000,73.800000,229.621000,64.900000,232,60C234.379000,55.100000,235.181000,44.446000,226,34C216.819000,23.554000,210.626000,9.945000,185,18C181.959979,19.797762,178.527593,20.827478,175,21C171.472407,21.172522,155.656000,15.813000,148,24C140.344000,32.187000,137.570000,37.185000,141,47C144.430000,56.815000,140,62.200000,140,63C140,63.800000,139.606000,76.686000,150,84L150,87Z" fill="rgb(55,64,72)" fill-rule="evenodd" stroke="none" stroke-width="1"/><path id="eesolow3y1mm16" d="M166,33C166,33,176.074000,17.676000,197,26C217.926000,34.324000,212.280000,50.492000,221,63C221,63,211.912000,52.023000,209,46C206.088000,39.977000,186.247000,27.100000,172,37C172,37,164.565000,42.162000,166,33Z" fill="rgb(75,83,91)" fill-rule="evenodd" stroke="none" stroke-width="1"/><path id="eesolow3y1mm17" d="M227.387000,91.700000C222.950000,107.890000,215,104.749000,215,104.749000L218.100000,86.686000C221.153000,83.646000,221.200000,78.658000,221.200000,78.658000C230.877000,74.448000,227.387000,91.700000,227.387000,91.700000ZM143,92C143,92,139.619000,74.800000,149,79C149,79,149.042000,83.971000,152,87L155,105C155,105,147.300000,108.130000,143,92Z" fill="rgb(249,161,123)" fill-rule="evenodd" stroke="none" stroke-width="1"/><g id="eesolow3y1mm18"><path id="eesolow3y1mm19" d="M178.650000,73.100000C178.650000,73.100000,168.893000,69.185000,164.190000,70.124000C159.487000,71.063000,157.652000,76.218000,160.005000,75.993000C162.358000,75.768000,176.310000,74.305000,177.419000,75.213000C177.419000,75.216000,179.905000,75.424000,178.650000,73.100000Z" fill="rgb(55,64,72)" fill-rule="evenodd" stroke="none" stroke-width="1"/><path id="eesolow3y1mm20" d="M192.652000,72.600000C192.652000,72.600000,203.089000,71.343000,207.390000,73.468000C211.691000,75.593000,212.127000,81.047000,209.913000,80.220000C207.699000,79.393000,194.601000,74.370000,193.294000,74.960000C193.294000,74.962000,190.839000,74.519000,192.652000,72.600000Z" transform="matrix(1 0 0 1 -1 -2)" fill="rgb(55,64,72)" fill-rule="evenodd" stroke="none" stroke-width="1"/><ellipse id="eesolow3y1mm21" rx="3" ry="4" transform="matrix(1 0 0 1 170 82)" fill="rgb(78,55,55)" stroke="none" stroke-width="1"/><ellipse id="eesolow3y1mm22" rx="3" ry="4" transform="matrix(1 0 0 1 200.14465876499997 81.99999999999997)" fill="rgb(78,55,55)" stroke="none" stroke-width="1"/><path id="eesolow3y1mm23" d="M184.622000,101C184.459504,100.999783,184.299285,100.961782,184.154000,100.889000C183.944000,100.783000,183.648000,100.671000,183.310000,100.539000C181.877000,99.984000,179.710000,99.147000,179.134000,97.408000C178.844434,96.402852,179.045660,95.320014,179.677000,94.486000C180.693000,92.920000,182.634000,84.086000,183.619000,78.892000C183.728719,78.344283,184.259303,77.987287,184.808000,78.092000C185.071151,78.136189,185.305728,78.283715,185.459541,78.501758C185.613354,78.719801,185.673645,78.990273,185.627000,79.253000C185.359000,80.668000,182.963000,93.147000,181.402000,95.553000C181.113553,95.896487,180.993956,96.351031,181.076000,96.792000C181.358000,97.639000,183.051000,98.292000,184.063000,98.686000C184.474000,98.846000,184.834000,98.986000,185.092000,99.117000C185.330768,99.234575,185.511934,99.443594,185.594401,99.696642C185.676867,99.949690,185.653644,100.225318,185.530000,100.461000C185.350279,100.794738,185.001047,101.002047,184.622000,101Z" fill="rgb(212,137,105)" fill-rule="evenodd" stroke="none" stroke-width="1"/><path id="eesolow3y1mm24" d="M195.569000,113.313000C189.370580,109.270105,181.465215,108.913538,174.928000,112.382000C173.044000,113.341000,174.380000,116.695000,176.390000,115.875000C182.237757,113.401113,188.783947,113.130398,194.816000,115.113000C195.286667,115.223836,195.768467,114.978093,195.955078,114.532012C196.141688,114.085931,195.978387,113.570320,195.569000,113.313000L195.569000,113.313000Z" fill="rgb(152,98,75)" fill-rule="evenodd" stroke="none" stroke-width="1"/></g></g></g><g id="eesolow3y1mm25"><path id="eesolow3y1mm26" d="M185,227L165,155L205,155Z" fill="rgb(79,152,163)" fill-rule="evenodd" stroke="none" stroke-width="1"/><path id="eesolow3y1mm27" d="M185,227L176.740000,197.264000L181,170L189,170L193.260000,197.264000Z" fill="rgb(10,59,105)" fill-rule="evenodd" stroke="none" stroke-width="1"/><path id="eesolow3y1mm28" d="M193,164C193,168.418278,189.418278,172,185,172C180.581722,172,177,168.418278,177,164L177,157L193,157L193,164Z" fill="rgb(12,72,129)" fill-rule="evenodd" stroke="none" stroke-width="1"/><path id="eesolow3y1mm29" d="M196,172C193.306446,166.059216,189.582298,160.642273,185,156L208,132C217.278000,134.859000,220,142,220,142C218.536000,144.333000,196,172,196,172ZM150,142C150,142,152.722000,134.859000,162,132L185,156C180.417702,160.642273,176.693554,166.059216,174,172C171.306446,177.940784,151.463000,144.333000,150,142Z" fill="rgb(92,178,191)" fill-rule="evenodd" stroke="none" stroke-width="1"/></g><g id="eesolow3y1mm30"><path id="eesolow3y1mm31" d="M208,233L208,238C208,238,163.629000,265,121,265L121,255C121,255,175.908000,252.115000,208,233Z" fill="rgb(221,221,221)" fill-rule="evenodd" stroke="none" stroke-width="1"/><path id="eesolow3y1mm32" d="M136,195C136,195,136.100000,207.836000,135,213C134.284356,217.295414,133.949721,221.645669,134,226L127,226Z" fill="rgb(221,221,221)" fill-rule="evenodd" stroke="none" stroke-width="1"/><path id="eesolow3y1mm33" d="M232.910000,197L223.900000,143C223.900000,143,253.950000,155.835000,255.940000,158C257.930000,160.165000,275.918000,216.171000,273.968000,230C273.968000,230,279.173000,247.100000,264.957000,250C264.956000,250,250.814000,263.100000,232.910000,197Z" fill="rgb(255,255,255)" fill-rule="evenodd" stroke="none" stroke-width="1"/><path id="eesolow3y1mm34" d="M236.855000,160.954000C236.855000,160.954000,229.541000,148.247000,228.461000,146.237000C227.381000,144.227000,225.208000,131.149000,221.614000,126.286000C218.020000,121.423000,211.721000,112.516000,211.079000,111.378000C210.437000,110.240000,207.010000,111.678000,207.488000,115.355000C207.966000,119.032000,212.851000,128.246000,213.837000,128.815000C214.823000,129.384000,196.294000,126.015000,193.503000,126.999000C193.503000,126.999000,181.140000,125.421000,179.495000,126.823000C179.495000,126.823000,173.240000,129.370000,179.018000,132.152000C179.018000,132.152000,172.570000,133.804000,178.542000,137.482000C178.542000,137.482000,177.313000,143.506000,184.297000,145.516000C191.987933,151.013979,200.980603,154.409540,210.386000,155.367000C219.791397,156.324460,216.818000,161.711000,217.900000,167.856000Z" fill="rgb(249,161,123)" fill-rule="evenodd" stroke="none" stroke-width="1"/><path id="eesolow3y1mm35" d="M215.805000,169.700000L212,159.346000C212,159.346000,231.121000,150.355000,236.321000,149.728000L240.131000,160.084000Z" fill="rgb(92,178,191)" fill-rule="evenodd" stroke="none" stroke-width="1"/><path id="eesolow3y1mm36" d="M249,253L249,243L236,230C236,230,226.484000,234.191000,217,231C217,231,220.766000,235.982000,236,237Z" fill="rgb(221,221,221)" fill-rule="evenodd" stroke="none" stroke-width="1"/><path id="eesolow3y1mm37" d="M238.921000,154.427000C238.921000,154.427000,216.866000,163.633000,213.806000,165.966000C214.365000,166.825000,219.673000,226.966000,255.139000,250.014000C255.139000,250.014000,268.712000,254.914000,271.086000,242.925000C271.086000,242.925000,280.460000,228.165000,238.921000,154.427000Z" fill="rgb(255,255,255)" fill-rule="evenodd" stroke="none" stroke-width="1"/><path id="eesolow3y1mm38" d="M215.408000,202.046000C210.551000,205.670000,207.652000,209.806000,206.034000,211.422000L201.916000,211.222000L204.090000,231.722000C207.125000,229.722000,217.773000,233.191000,217.773000,233.191000C227.077657,234.994623,236.691872,234.339727,245.666000,231.291000C252.951000,231.384000,253.514000,225.249000,253.514000,225.249000C260.314000,223.449000,254.599000,219.998000,254.599000,219.998000C260.950000,218.998000,255.683000,214.748000,255.683000,214.748000C254.510000,212.927000,242.183000,210.862000,242.183000,210.862000C239.789000,209.109000,222.883000,207.255000,223.997000,206.995000L220.997000,198.995000C220.997000,198.995000,220.265000,198.421000,215.408000,202.046000Z" fill="rgb(249,161,123)" fill-rule="evenodd" stroke="none" stroke-width="1"/><path id="eesolow3y1mm39" d="M194,210C194,210,201.727000,207.939000,204,209C209.000839,216.689062,211.125772,225.897104,210,235L200,239C200,239,200.222000,226.034000,194,210Z" fill="rgb(92,178,191)" fill-rule="evenodd" stroke="none" stroke-width="1"/><path id="eesolow3y1mm40" d="M145,143C145,143,114.987000,155.835000,113,158C111.013000,160.165000,91.053000,221.171000,93,235C93,235,87.800000,252.100000,102,255C116.200000,257.900000,147.114000,262.965000,203,239C203,239,203.061000,218.309000,195,208C195,208,135.777000,224.412000,128,225C128,225,135.400000,211.779000,136,197Z" fill="rgb(255,255,255)" fill-rule="evenodd" stroke="none" stroke-width="1"/><path id="eesolow3y1mm41" d="M130,223.750000C130,223.750000,110.500000,232.550000,104,240C104,240,118.158000,224.376000,130,220L130,223.750000ZM115,161C115,161,119.488000,177.021000,131,187C131,187,115.577000,178.700000,115,161Z" fill="rgb(221,221,221)" fill-rule="evenodd" stroke="none" stroke-width="1"/></g><script><![CDATA[!function(t,n){"object"==typeof exports&&"undefined"!=typeof module?module.exports=n():"function"==typeof define&&define.amd?define(n):(t=t||self).__SVGATOR_PLAYER__=n()}(this,(function(){"use strict";function t(n){return(t="function"==typeof Symbol&&"symbol"==typeof Symbol.iterator?function(t){return typeof t}:function(t){return t&&"function"==typeof Symbol&&t.constructor===Symbol&&t!==Symbol.prototype?"symbol":typeof t})(n)}function n(t,n){if(!(t instanceof n))throw new TypeError("Cannot call a class as a function")}function r(t,n){for(var r=0;r<n.length;r++){var e=n[r];e.enumerable=e.enumerable||!1,e.configurable=!0,"value"in e&&(e.writable=!0),Object.defineProperty(t,e.key,e)}}function e(t,n,e){return n&&r(t.prototype,n),e&&r(t,e),t}var i=1e-5,u=Math.abs;function o(t){return t}function a(t,n,r){var e=1-r;return 3*r*e*(t*e+n*r)+r*r*r}function l(){var t=arguments.length>0&&void 0!==arguments[0]?arguments[0]:0,n=arguments.length>1&&void 0!==arguments[1]?arguments[1]:0,r=arguments.length>2&&void 0!==arguments[2]?arguments[2]:1,e=arguments.length>3&&void 0!==arguments[3]?arguments[3]:1;return t<0||t>1||r<0||r>1?null:u(t-n)<=i&&u(r-e)<=i?o:function(o){if(o<=0)return t>0?o*n/t:0===n&&r>0?o*e/r:0;if(o>=1)return r<1?1+(o-1)*(e-1)/(r-1):1===r&&t<1?1+(o-1)*(n-1)/(t-1):1;for(var l,f=0,s=1;f<s;){var c=a(t,r,l=(f+s)/2);if(u(o-c)<i)break;c<o?f=l:s=l}return a(n,e,l)}}function f(){return 1}function s(t){return 1===t?1:0}function c(){var t=arguments.length>0&&void 0!==arguments[0]?arguments[0]:1,n=arguments.length>1&&void 0!==arguments[1]?arguments[1]:0;if(1===t){if(0===n)return s;if(1===n)return f}var r=1/t;return function(t){return t>=1?1:(t+=n*r)-t%r}}function v(t){var n=arguments.length>1&&void 0!==arguments[1]?arguments[1]:2;if(Number.isInteger(t))return t;var r=Math.pow(10,n);return Math.round(t*r)/r}var h=Math.PI/180;function y(t,n,r){return t>=.5?r:n}function d(t,n,r){return 0===t||n===r?n:t*(r-n)+n}function g(t,n,r){var e=d(t,n,r);return e<=0?0:e}function m(t,n,r){return 0===t?n:1===t?r:{x:d(t,n.x,r.x),y:d(t,n.y,r.y)}}function p(t,n,r){return 0===t?n:1===t?r:{x:g(t,n.x,r.x),y:g(t,n.y,r.y)}}function b(t,n,r){var e=function(t,n,r){return Math.round(d(t,n,r))}(t,n,r);return e<=0?0:e>=255?255:e}function w(t,n,r){return 0===t?n:1===t?r:{r:b(t,n.r,r.r),g:b(t,n.g,r.g),b:b(t,n.b,r.b),a:d(t,null==n.a?1:n.a,null==r.a?1:r.a)}}function A(t,n,r){if(0===t)return n;if(1===t)return r;var e=n.length;if(e!==r.length)return y(t,n,r);for(var i=[],u=0;u<e;u++)i.push(w(t,n[u],r[u]));return i}function x(t,n,r){var e=n.length;if(e!==r.length)return y(t,n,r);for(var i=new Array(e),u=0;u<e;u++)i[u]=d(t,n[u],r[u]);return i}function k(t,n){for(var r=[],e=0;e<t;e++)r.push(n);return r}function S(t,n){if(--n<=0)return t;var r=(t=Object.assign([],t)).length;do{for(var e=0;e<r;e++)t.push(t[e])}while(--n>0);return t}var _=6,M=/\.0+$/g;function I(t){return Number.isInteger(t)?t+"":t.toFixed(_).replace(M,"")}function E(t){var n=arguments.length>1&&void 0!==arguments[1]?arguments[1]:" ";return t&&t.length?t.map(I).join(n):""}function F(t){return I(t.x)+","+I(t.y)}function B(t){return t?null==t.a||t.a>=1?"rgb("+t.r+","+t.g+","+t.b+")":"rgba("+t.r+","+t.g+","+t.b+","+t.a+")":"transparent"}var j={f:null,i:p,u:function(t,n){return function(r){var e=n(r);t.setAttribute("rx",I(e.x)),t.setAttribute("ry",I(e.y))}}},q={f:null,i:function(t,n,r){return 0===t?n:1===t?r:{width:g(t,n.width,r.width),height:g(t,n.height,r.height)}},u:function(t,n){return function(r){var e=n(r);t.setAttribute("width",I(e.width)),t.setAttribute("height",I(e.height))}}},P=Math.sin,O=Math.cos,z=Math.acos,L=Math.asin,C=Math.tan,R=Math.atan2,T=Math.PI/180,V=180/Math.PI,D=Math.sqrt,N=function(){function t(){var r=arguments.length>0&&void 0!==arguments[0]?arguments[0]:1,e=arguments.length>1&&void 0!==arguments[1]?arguments[1]:0,i=arguments.length>2&&void 0!==arguments[2]?arguments[2]:0,u=arguments.length>3&&void 0!==arguments[3]?arguments[3]:1,o=arguments.length>4&&void 0!==arguments[4]?arguments[4]:0,a=arguments.length>5&&void 0!==arguments[5]?arguments[5]:0;n(this,t),this.m=[r,e,i,u,o,a],this.i=null,this.w=null,this.s=null}return e(t,[{key:"point",value:function(t,n){var r=this.m;return{x:r[0]*t+r[2]*n+r[4],y:r[1]*t+r[3]*n+r[5]}}},{key:"translateSelf",value:function(){var t=arguments.length>0&&void 0!==arguments[0]?arguments[0]:0,n=arguments.length>1&&void 0!==arguments[1]?arguments[1]:0;if(!t&&!n)return this;var r=this.m;return r[4]+=r[0]*t+r[2]*n,r[5]+=r[1]*t+r[3]*n,this.w=this.s=this.i=null,this}},{key:"rotateSelf",value:function(){var t=arguments.length>0&&void 0!==arguments[0]?arguments[0]:0;if(t%=360){var n=P(t*=T),r=O(t),e=this.m,i=e[0],u=e[1];e[0]=i*r+e[2]*n,e[1]=u*r+e[3]*n,e[2]=e[2]*r-i*n,e[3]=e[3]*r-u*n,this.w=this.s=this.i=null}return this}},{key:"scaleSelf",value:function(){var t=arguments.length>0&&void 0!==arguments[0]?arguments[0]:1,n=arguments.length>1&&void 0!==arguments[1]?arguments[1]:1;if(1!==t||1!==n){var r=this.m;r[0]*=t,r[1]*=t,r[2]*=n,r[3]*=n,this.w=this.s=this.i=null}return this}},{key:"skewSelf",value:function(t,n){if(n%=360,(t%=360)||n){var r=this.m,e=r[0],i=r[1],u=r[2],o=r[3];t&&(t=C(t*T),r[2]+=e*t,r[3]+=i*t),n&&(n=C(n*T),r[0]+=u*n,r[1]+=o*n),this.w=this.s=this.i=null}return this}},{key:"resetSelf",value:function(){var t=arguments.length>0&&void 0!==arguments[0]?arguments[0]:1,n=arguments.length>1&&void 0!==arguments[1]?arguments[1]:0,r=arguments.length>2&&void 0!==arguments[2]?arguments[2]:0,e=arguments.length>3&&void 0!==arguments[3]?arguments[3]:1,i=arguments.length>4&&void 0!==arguments[4]?arguments[4]:0,u=arguments.length>5&&void 0!==arguments[5]?arguments[5]:0,o=this.m;return o[0]=t,o[1]=n,o[2]=r,o[3]=e,o[4]=i,o[5]=u,this.w=this.s=this.i=null,this}},{key:"recomposeSelf",value:function(){var t=arguments.length>0&&void 0!==arguments[0]?arguments[0]:null,n=arguments.length>1&&void 0!==arguments[1]?arguments[1]:null,r=arguments.length>2&&void 0!==arguments[2]?arguments[2]:null,e=arguments.length>3&&void 0!==arguments[3]?arguments[3]:null,i=arguments.length>4&&void 0!==arguments[4]?arguments[4]:null;return this.isIdentity||this.resetSelf(),t&&(t.x||t.y)&&this.translateSelf(t.x,t.y),n&&this.rotateSelf(n),r&&(r.x&&this.skewSelf(r.x,0),r.y&&this.skewSelf(0,r.y)),!e||1===e.x&&1===e.y||this.scaleSelf(e.x,e.y),i&&(i.x||i.y)&&this.translateSelf(i.x,i.y),this}},{key:"decompose",value:function(){var t=arguments.length>0&&void 0!==arguments[0]?arguments[0]:0,n=arguments.length>1&&void 0!==arguments[1]?arguments[1]:0,r=this.m,e=r[0]*r[0]+r[1]*r[1],i=[[r[0],r[1]],[r[2],r[3]]],u=D(e);if(0===u)return{origin:{x:r[4],y:r[5]},translate:{x:t,y:n},scale:{x:0,y:0},skew:{x:0,y:0},rotate:0};i[0][0]/=u,i[0][1]/=u;var o=r[0]*r[3]-r[1]*r[2]<0;o&&(u=-u);var a=i[0][0]*i[1][0]+i[0][1]*i[1][1];i[1][0]-=i[0][0]*a,i[1][1]-=i[0][1]*a;var l=D(i[1][0]*i[1][0]+i[1][1]*i[1][1]);if(0===l)return{origin:{x:r[4],y:r[5]},translate:{x:t,y:n},scale:{x:u,y:0},skew:{x:0,y:0},rotate:0};i[1][0]/=l,i[1][1]/=l,a/=l;var f=0;return i[1][1]<0?(f=z(i[1][1])*V,i[0][1]<0&&(f=360-f)):f=L(i[0][1])*V,o&&(f=-f),a=R(a,D(i[0][0]*i[0][0]+i[0][1]*i[0][1]))*V,{origin:{x:r[4],y:r[5]},translate:{x:t,y:n},scale:{x:u,y:l},skew:{x:a,y:0},rotate:f}}},{key:"toString",value:function(){return null===this.s&&(this.s="matrix("+this.m.map($).join(" ")+")"),this.s}},{key:"determinant",get:function(){var t=this.m;return t[0]*t[3]-t[1]*t[2]}},{key:"isIdentity",get:function(){if(null===this.i){var t=this.m;this.i=1===t[0]&&0===t[1]&&0===t[2]&&1===t[3]&&0===t[4]&&0===t[5]}return this.i}}]),t}(),G=/\.0+$/;function $(t){return Number.isInteger(t)?t:t.toFixed(14).replace(G,"")}Object.freeze({M:2,L:2,Z:0,H:1,V:1,C:6,Q:4,T:2,S:4,A:7});function H(t,n,r){return t+(n-t)*r}function Q(t,n,r){var e=arguments.length>3&&void 0!==arguments[3]&&arguments[3],i={x:H(t.x,n.x,r),y:H(t.y,n.y,r)};return e&&(i.a=function(t,n){return Math.atan2(n.y-t.y,n.x-t.x)}(t,n)),i}function U(t,n,r,e){var i=1-e;return i*i*t+2*i*e*n+e*e*r}function Y(t,n,r,e){return 2*(1-e)*(n-t)+2*e*(r-n)}function Z(t,n,r,e){var i=arguments.length>4&&void 0!==arguments[4]&&arguments[4],u={x:U(t.x,n.x,r.x,e),y:U(t.y,n.y,r.y,e)};return i&&(u.a=function(t,n,r,e){return Math.atan2(Y(t.y,n.y,r.y,e),Y(t.x,n.x,r.x,e))}(t,n,r,e)),u}function J(t,n,r,e,i){var u=i*i;return i*u*(e-t+3*(n-r))+3*u*(t+r-2*n)+3*i*(n-t)+t}function K(t,n,r,e,i){var u=1-i;return 3*(u*u*(n-t)+2*u*i*(r-n)+i*i*(e-r))}function W(t,n,r,e,i){var u=arguments.length>5&&void 0!==arguments[5]&&arguments[5],o={x:J(t.x,n.x,r.x,e.x,i),y:J(t.y,n.y,r.y,e.y,i)};return u&&(o.a=function(t,n,r,e,i){return Math.atan2(K(t.y,n.y,r.y,e.y,i),K(t.x,n.x,r.x,e.x,i))}(t,n,r,e,i)),o}function X(t,n,r){var e,i=arguments.length>3&&void 0!==arguments[3]&&arguments[3];if(nt(n)){if(null!=(e=r).start&&!nt(e))return Z(n,r.start,r,t,i)}else if(nt(r)){if(n.end)return Z(n,n.end,r,t,i)}else{if(n.end)return r.start?W(n,n.end,r.start,r,t,i):Z(n,n.end,r,t,i);if(r.start)return Z(n,r.start,r,t,i)}return Q(n,r,t,i)}function tt(t,n,r){var e=X(t,n,r,!0);return e.a=function(t){return arguments.length>1&&void 0!==arguments[1]&&arguments[1]?t+Math.PI:t}(e.a)/h,e}function nt(t){return!t.type||"corner"===t.type}var rt=new N;var et={f:function(t){return t?t.join(" "):""},i:function(n,r,e){if(0===n)return r;if(1===n)return e;var i=r.length;if(i!==e.length)return y(n,r,e);for(var u,o=new Array(i),a=0;a<i;a++){if((u=t(r[a]))!==t(e[a]))return y(n,r,e);if("number"===u)o[a]=d(n,r[a],e[a]);else{if(r[a]!==e[a])return y(n,r,e);o[a]=r[a]}}return o}},it={f:null,i:x,u:function(t,n){return function(r){var e=n(r);t.setAttribute("x1",I(e[0])),t.setAttribute("y1",I(e[1])),t.setAttribute("x2",I(e[2])),t.setAttribute("y2",I(e[3]))}}},ut={f:I,i:d},ot={f:I,i:function(t,n,r){var e=d(t,n,r);return e<=0?0:e>=1?1:e}},at={f:E,i:function(t,n,r){var e,i,u,o=n.length,a=r.length;if(o!==a)if(0===o)n=k(o=a,0);else if(0===a)a=o,r=k(o,0);else{var l=(u=(e=o)*(i=a)/function(t,n){for(var r;n;)r=n,n=t%n,t=r;return t||1}(e,i))<0?-u:u;n=S(n,Math.floor(l/o)),r=S(r,Math.floor(l/a)),o=a=l}for(var f=[],s=0;s<o;s++)f.push(v(g(t,n[s],r[s]),6));return f}};function lt(t,n,r,e,i,u,o,a){return n=function(t,n,r){for(var e,i,u,o=t.length-1,a={},l=0;l<=o;l++)(e=t[l]).e&&(e.e=n(e.e)),e.v&&"g"===(i=e.v).t&&i.r&&(u=r.getElementById(i.r))&&(a[i.r]=u.querySelectorAll("stop"));return a}(t,e,a),function(e){var i,u=r(e,t,ft);return u?"c"===u.t?B(u.v):"g"===u.t?(n[u.r]&&function(t,n){for(var r=0,e=t.length;r<e;r++)t[r].setAttribute("stop-color",B(n[r]))}(n[u.r],u.v),(i=u.r)?"url(#"+i+")":"none"):"none":"none"}}function ft(t,n,r){if(0===t)return n;if(1===t)return r;if(n&&r){var e=n.t;if(e===r.t)switch(n.t){case"c":return{t:e,v:w(t,n.v,r.v)};case"g":if(n.r===r.r)return{t:e,v:A(t,n.v,r.v),r:n.r}}}return y(t,n,r)}var st={blur:p,brightness:g,contrast:g,"drop-shadow":function(t,n,r){return 0===t?n:1===t?r:{blur:p(t,n.blur,r.blur),offset:m(t,n.offset,r.offset),color:w(t,n.color,r.color)}},grayscale:g,"hue-rotate":d,invert:g,opacity:g,saturate:g,sepia:g};function ct(t,n,r){if(0===t)return n;if(1===t)return r;var e=n.length;if(e!==r.length)return y(t,n,r);for(var i,u=[],o=0;o<e;o++){if(n[o].type!==r[o].type)return n;if(!(i=st[n[o].type]))return y(t,n,r);u.push({type:n.type,value:i(t,n[o].value,r[o].value)})}return u}var vt={blur:function(t){return t?function(n){t.setAttribute("stdDeviation",F(n))}:null},brightness:function(t,n,r){return(t=yt(r,n))?function(n){n=I(n),t.map((function(t){return t.setAttribute("slope",n)}))}:null},contrast:function(t,n,r){return(t=yt(r,n))?function(n){var r=I((1-n)/2);n=I(n),t.map((function(t){t.setAttribute("slope",n),t.setAttribute("intercept",r)}))}:null},"drop-shadow":function(t,n,r){var e=r.getElementById(n+"-blur");if(!e)return null;var i=r.getElementById(n+"-offset");if(!i)return null;var u=r.getElementById(n+"-flood");return u?function(t){e.setAttribute("stdDeviation",F(t.blur)),i.setAttribute("dx",I(t.offset.x)),i.setAttribute("dy",I(t.offset.y)),u.setAttribute("flood-color",B(t.color))}:null},grayscale:function(t){return t?function(n){t.setAttribute("values",E(function(t){return[.2126+.7874*(t=1-t),.7152-.7152*t,.0722-.0722*t,0,0,.2126-.2126*t,.7152+.2848*t,.0722-.0722*t,0,0,.2126-.2126*t,.7152-.7152*t,.0722+.9278*t,0,0,0,0,0,1,0]}(n)))}:null},"hue-rotate":function(t){return t?function(n){return t.setAttribute("values",I(n))}:null},invert:function(t,n,r){return(t=yt(r,n))?function(n){n=I(n)+" "+I(1-n),t.map((function(t){return t.setAttribute("tableValues",n)}))}:null},opacity:function(t,n,r){return(t=r.getElementById(n+"-A"))?function(n){return t.setAttribute("tableValues","0 "+I(n))}:null},saturate:function(t){return t?function(n){return t.setAttribute("values",I(n))}:null},sepia:function(t){return t?function(n){return t.setAttribute("values",E(function(t){return[.393+.607*(t=1-t),.769-.769*t,.189-.189*t,0,0,.349-.349*t,.686+.314*t,.168-.168*t,0,0,.272-.272*t,.534-.534*t,.131+.869*t,0,0,0,0,0,1,0]}(n)))}:null}};var ht=["R","G","B"];function yt(t,n){var r=ht.map((function(r){return t.getElementById(n+"-"+r)||null}));return-1!==r.indexOf(null)?null:r}var dt={fill:lt,"fill-opacity":ot,stroke:lt,"stroke-opacity":ot,"stroke-width":ut,"stroke-dashoffset":{f:I,i:d},"stroke-dasharray":at,opacity:ot,transform:function(n,r,e,i){if(!(n=function(n,r){if(!n||"object"!==t(n))return null;var e=!1;for(var i in n)n.hasOwnProperty(i)&&(n[i]&&n[i].length?(n[i].forEach((function(t){t.e&&(t.e=r(t.e))})),e=!0):delete n[i]);return e?n:null}(n,i)))return null;var u=function(t,i,u){var o=arguments.length>3&&void 0!==arguments[3]?arguments[3]:null;return n[t]?e(i,n[t],u):r&&r[t]?r[t]:o};return r&&r.a&&n.o?function(t){var r=e(t,n.o,tt);return rt.recomposeSelf(r,u("r",t,d,0)+r.a,u("k",t,m),u("s",t,m),u("t",t,m)).toString()}:function(t){return rt.recomposeSelf(u("o",t,X,null),u("r",t,d,0),u("k",t,m),u("s",t,m),u("t",t,m)).toString()}},"#filter":function(t,n,r,e,i,u,o,a){if(!n.items||!t||!t.length)return null;var l=function(t,n){var r=(t=t.map((function(t){return t&&vt[t[0]]?(n.getElementById(t[1]),vt[t[0]](n.getElementById(t[1]),t[1],n)):null}))).length;return function(n){for(var e=0;e<r;e++)t[e]&&t[e](n[e].value)}}(n.items,a);return l?(t=function(t,n){return t.map((function(t){return t.e=n(t.e),t}))}(t,e),function(n){l(r(n,t,ct))}):null},"#line":it,points:{f:E,i:x},d:et,r:ut,"#size":q,"#radius":j,_:function(t,n){if(Array.isArray(t))for(var r=0;r<t.length;r++)this[t[r]]=n;else this[t]=n}},gt=function(){function t(r){n(this,t),this.list=r,this.length=r.length}return e(t,[{key:"setAttribute",value:function(t,n){for(var r=this.list,e=0;e<this.length;e++)r[e].setAttribute(t,n)}},{key:"removeAttribute",value:function(t){for(var n=this.list,r=0;r<this.length;r++)n[r].removeAttribute(t)}},{key:"style",value:function(t,n){for(var r=this.list,e=0;e<this.length;e++)r[e].style[t]=n}}]),t}(),mt=/-./g,pt=function(t,n){return n.toUpperCase()};function bt(t){return"function"==typeof t?t:y}function wt(t){return t?"function"==typeof t?t:Array.isArray(t)?function(t){var n=arguments.length>1&&void 0!==arguments[1]?arguments[1]:o;if(!Array.isArray(t))return n;switch(t.length){case 1:return c(t[0])||n;case 2:return c(t[0],t[1])||n;case 4:return l(t[0],t[1],t[2],t[3])||n}return n}(t,null):function(t,n){var r=arguments.length>2&&void 0!==arguments[2]?arguments[2]:o;switch(t){case"linear":return o;case"steps":return c(n.steps||1,n.jump||0)||r;case"bezier":case"cubic-bezier":return l(n.x1||0,n.y1||0,n.x2||0,n.y2||0)||r}return r}(t.type,t.value,null):null}function At(t,n,r){var e=arguments.length>3&&void 0!==arguments[3]&&arguments[3],i=n.length-1;if(t<=n[0].t)return e?[0,0,n[0].v]:n[0].v;if(t>=n[i].t)return e?[i,1,n[i].v]:n[i].v;var u,o=n[0],a=null;for(u=1;u<=i;u++){if(!(t>n[u].t)){a=n[u];break}o=n[u]}return null==a?e?[i,1,n[i].v]:n[i].v:o.t===a.t?e?[u,1,a.v]:a.v:(t=(t-o.t)/(a.t-o.t),o.e&&(t=o.e(t)),e?[u,t,r(t,o.v,a.v)]:r(t,o.v,a.v))}function xt(t,n){var r=arguments.length>2&&void 0!==arguments[2]?arguments[2]:null;return t&&t.length?"function"!=typeof n?null:("function"!=typeof r&&(r=null),function(e){var i=At(e,t,n);return null!=i&&r&&(i=r(i)),i}):null}function kt(t,n){return t.t-n.t}function St(n,r,e,i,u){var o,a="@"===e[0],l="#"===e[0],f=dt[e],s=y;switch(a?(o=e.substr(1),e=o.replace(mt,pt)):l&&(e=e.substr(1)),t(f)){case"function":if(s=f(i,u,At,wt,e,a,r,n),l)return s;break;case"string":s=xt(i,bt(f));break;case"object":if((s=xt(i,bt(f.i),f.f))&&"function"==typeof f.u)return f.u(r,s,e,a,n)}return s?function(t,n,r){if(arguments.length>3&&void 0!==arguments[3]&&arguments[3])return t instanceof gt?function(e){return t.style(n,r(e))}:function(e){return t.style[n]=r(e)};if(Array.isArray(n)){var e=n.length;return function(i){var u=r(i);if(null==u)for(var o=0;o<e;o++)t[o].removeAttribute(n);else for(var a=0;a<e;a++)t[a].setAttribute(n,u)}}return function(e){var i=r(e);null==i?t.removeAttribute(n):t.setAttribute(n,i)}}(r,e,s,a):null}function _t(n,r,e,i){if(!i||"object"!==t(i))return null;var u=null,o=null;return Array.isArray(i)?o=function(t){if(!t||!t.length)return null;for(var n=0;n<t.length;n++)t[n].e&&(t[n].e=wt(t[n].e));return t.sort(kt)}(i):(o=i.keys,u=i.data||null),o?St(n,r,e,o,u):null}function Mt(t,n,r){if(!r)return null;var e=[];for(var i in r)if(r.hasOwnProperty(i)){var u=_t(t,n,i,r[i]);u&&e.push(u)}return e.length?e:null}function It(t,n){if(!n.duration||n.duration<0)return null;var r=function(t,n){if(!n)return null;var r=[];if(Array.isArray(n))for(var e=n.length,i=0;i<e;i++){var u=n[i];if(2===u.length){var o=null;if("string"==typeof u[0])o=t.getElementById(u[0]);else if(Array.isArray(u[0])){o=[];for(var a=0;a<u[0].length;a++)if("string"==typeof u[0][a]){var l=t.getElementById(u[0][a]);l&&o.push(l)}o=o.length?1===o.length?o[0]:new gt(o):null}if(o){var f=Mt(t,o,u[1]);f&&(r=r.concat(f))}}}else for(var s in n)if(n.hasOwnProperty(s)){var c=t.getElementById(s);if(c){var v=Mt(t,c,n[s]);v&&(r=r.concat(v))}}return r.length?r:null}(t,n.elements);return r?function(t,n){var r=arguments.length>2&&void 0!==arguments[2]?arguments[2]:1/0,e=arguments.length>3&&void 0!==arguments[3]?arguments[3]:1,i=arguments.length>4&&void 0!==arguments[4]&&arguments[4],u=arguments.length>5&&void 0!==arguments[5]?arguments[5]:1,o=t.length,a=e>0?n:0;i&&r%2==0&&(a=n-a);var l=null;return function(f,s){var c=f%n,v=1+(f-c)/n;s*=e,i&&v%2==0&&(s=-s);var h=!1;if(v>r)c=a,h=!0,-1===u&&(c=e>0?0:n);else if(s<0&&(c=n-c),c===l)return!1;l=c;for(var y=0;y<o;y++)t[y](c);return h}}(r,n.duration,n.iterations||1/0,n.direction||1,!!n.alternate,n.fill||1):null}var Et=function(){function t(r){var e=arguments.length>1&&void 0!==arguments[1]?arguments[1]:{};n(this,t),this._id=0,this._running=!1,this._animations=r,this.direction=e.direction||1,this.speed=e.speed||1,this.fps=e.fps||100,this.offset=e.offset||0}return e(t,[{key:"_start",value:function(){var t=this,n=arguments.length>0&&void 0!==arguments[0]?arguments[0]:0,r=-1/0,e=null,i={},u=function u(o){t._running=!0,null==e&&(e=o);var a=Math.round((o-e+n)*t.speed),l=t.fps?1e3/t.fps:0;if(a>r+l){t.offset=a,r=a;for(var f=t._animations,s=f.length,c=0,v=0;v<s;v++)i[v]?c++:(i[v]=f[v](a,t.direction),i[v]&&c++);if(c===s)return void t._stop()}t._id=window.requestAnimationFrame(u)};this._id=window.requestAnimationFrame(u)}},{key:"_stop",value:function(){this._id&&window.cancelAnimationFrame(this._id),this._running=!1}},{key:"play",value:function(){this._running||this._start(this.offset)}},{key:"stop",value:function(){this._stop(),this.offset=0;var t=this.direction,n=this._animations;requestAnimationFrame((function(){for(var r=0;r<n.length;r++)n[r](0,t)}))}},{key:"restart",value:function(){this._stop(),this.offset=0,this._start()}},{key:"pause",value:function(){this._stop()}},{key:"reverse",value:function(){this.direction=-this.direction}}],[{key:"build",value:function(n){if(!(n=function(t){if(!t||!t.root||!Array.isArray(t.animations))return null;var n=window.document.getElementById(t.root);if(!n)return null;var r=t.animations.map((function(t){return It(n,t)})).filter((function(t){return!!t}));return r.length?{element:n,animations:r,options:t.options||void 0}:null}(n)))return null;var r=n.element,e=n.options||{},i=new t(n.animations,n.options);return function(t,n,r){var e=arguments.length>3&&void 0!==arguments[3]?arguments[3]:null;if("click"===r){return void n.addEventListener("click",(function r(){n.removeEventListener("click",r),t.play()}))}if("hover"===r)return n.addEventListener("mouseenter",(function(){return t.play()})),void n.addEventListener("mouseleave","freeze"===e?function(){return t.pause()}:function(){return t.stop()});t.play()}(i,r,e.start,e.hover),i}}]),t}();return function(){for(var t=0,n=["ms","moz","webkit","o"],r=0;r<n.length&&!window.requestAnimationFrame;++r)window.requestAnimationFrame=window[n[r]+"RequestAnimationFrame"],window.cancelAnimationFrame=window[n[r]+"CancelAnimationFrame"]||window[n[r]+"CancelRequestAnimationFrame"];window.requestAnimationFrame||(window.requestAnimationFrame=function(n){var r=Date.now(),e=Math.max(0,16-(r-t)),i=window.setTimeout((function(){n(r+e)}),e);return t=r+e,i},window.cancelAnimationFrame=window.clearTimeout)}(),Et}));
__SVGATOR_PLAYER__.build({"root":"eesolow3y1mm1","animations":[{"duration":4000,"direction":1,"iterations":0,"fill":1,"alternate":false,"elements":{"eesolow3y1mm11":{"transform":{"keys":{"o":[{"t":0,"v":{"x":0,"y":0,"type":"corner"}},{"t":1000,"v":{"x":0,"y":5,"type":"corner"}},{"t":2000,"v":{"x":0,"y":0,"type":"corner"}},{"t":3000,"v":{"x":0,"y":5,"type":"corner"}},{"t":4000,"v":{"x":0,"y":0,"type":"corner"}}]}}},"eesolow3y1mm20":{"transform":{"data":{"o":{"x":210.22245576,"y":78.003015225,"type":"corner"},"t":{"x":-211.22245576,"y":-80.003015225}},"keys":{"r":[{"t":0,"v":0},{"t":2000,"v":-9.795895960760841},{"t":4000,"v":0}]}}},"eesolow3y1mm21":{"transform":{"data":{"o":{"x":170,"y":82,"type":"corner"}},"keys":{"s":[{"t":0,"v":{"x":1,"y":1}},{"t":200,"v":{"x":1.5043662814497487,"y":0.19630244220055235}},{"t":400,"v":{"x":1,"y":1}},{"t":1000,"v":{"x":1,"y":1}},{"t":1200,"v":{"x":1.5043662814497487,"y":0.19630244220055235}},{"t":1400,"v":{"x":1,"y":1}}]}}},"eesolow3y1mm22":{"transform":{"data":{"o":{"x":200.14465876499997,"y":81.99999999999997,"type":"corner"}},"keys":{"s":[{"t":0,"v":{"x":1,"y":1}},{"t":200,"v":{"x":1.5043662814497487,"y":0.19630244220055235}},{"t":400,"v":{"x":1,"y":1}},{"t":1000,"v":{"x":1,"y":1}},{"t":1200,"v":{"x":1.5043662814497487,"y":0.19630244220055235}},{"t":1400,"v":{"x":1,"y":1}}]}}},"eesolow3y1mm34":{"transform":{"data":{"o":{"x":226.0655,"y":157,"type":"corner"},"t":{"x":-226.0655,"y":-157}},"keys":{"r":[{"t":0,"v":0},{"t":2000,"v":7.723794900432807},{"t":4000,"v":0}]}}}}}],"options":{"start":"load","hover":"freeze"}})]]></script></svg>