<svg id="e9i519vmdsuv1" xmlns="http://www.w3.org/2000/svg" xmlns:xlink="http://www.w3.org/1999/xlink" viewBox="0 0 259 295" shape-rendering="geometricPrecision" text-rendering="geometricPrecision"><circle id="e9i519vmdsuv2" r="125" transform="matrix(1 0 0 1 130 170)" opacity="0" fill="rgb(238,238,238)" stroke="none" stroke-width="1"/><g id="e9i519vmdsuv3" transform="matrix(1 0 0 1 -0.03081130999999 26.85887700000000)" opacity="0"><g id="e9i519vmdsuv4"><path id="e9i519vmdsuv5" d="M66,177C66,132.339000,91,126,91,126C103.452000,125.344000,130,125,130,125C130,125,156.548000,125.344000,169,126C169,126,194,132.339000,194,177L194,277.386000C154.565144,300.871366,105.434856,300.871366,66,277.386000L66,177Z" fill="rgb(255,255,255)" fill-rule="evenodd" stroke="none" stroke-width="1"/><path id="e9i519vmdsuv6" d="M180,187.500000C180,195.508129,173.508129,202,165.500000,202C157.491871,202,151,195.508129,151,187.500000L151,170L180,170L180,187.500000Z" fill="rgb(221,221,221)" fill-rule="evenodd" stroke="none" stroke-width="1"/><path id="e9i519vmdsuv7" d="M180,185.500000C180,193.508129,173.508129,200,165.500000,200C157.491871,200,151,193.508129,151,185.500000L151,168L180,168L180,185.500000Z" fill="rgb(245,245,245)" fill-rule="evenodd" stroke="none" stroke-width="1"/><path id="e9i519vmdsuv8" d="M168.220000,171C168.220000,171,160.520000,185.948000,160.320000,189.271000C160.120000,192.594000,161.852000,190.271000,162.095000,189.309000C162.338000,188.347000,163.005000,185.490000,163.962000,182.462000C164.962000,179.287000,168.222000,171,168.222000,171M170.922000,176.050000C170.922000,176.050000,165.592000,187.136000,165.513000,189.578000C165.434000,192.020000,166.658000,190.289000,166.813000,189.578000C166.968000,188.867000,167.399000,186.762000,168.036000,184.526000C168.706000,182.181000,170.919000,176.050000,170.919000,176.050000M172.525000,180.678000C172.525000,180.678000,168.894000,188.233000,168.840000,189.895000C168.786000,191.557000,169.620000,190.380000,169.728000,189.895000C169.836000,189.410000,170.128000,187.977000,170.562000,186.453000C171.018000,184.853000,172.525000,180.678000,172.525000,180.678000M175,183.948000L157,183.948000L157,183.809000L175,183.809000L175,183.948000Z" fill="rgb(88,89,91)" fill-rule="evenodd" stroke="none" stroke-width="1"/><rect id="e9i519vmdsuv9" width="2" height="87" rx="0" ry="0" transform="matrix(1 0 0 1 129 208)" fill="rgb(221,221,221)" stroke="none" stroke-width="1"/></g><g id="e9i519vmdsuv10"><g id="e9i519vmdsuv11"><path id="e9i519vmdsuv12" d="M153,124L130,146L107,124C113.300000,118.248000,113,103,113,103L147,103C147,103,146.700000,118.248000,153,124Z" fill="rgb(249,161,123)" fill-rule="evenodd" stroke="none" stroke-width="1"/><path id="e9i519vmdsuv13" d="M130,103L147,103C146.988005,107.423437,147.554474,111.829454,148.685000,116.106000C139.580000,124.500000,130,124,130,124C130,124,120.417000,124.500000,111.333000,116.043000C112.450595,111.785760,113.010941,107.401476,113,103L130,103Z" fill="rgb(235,152,116)" fill-rule="evenodd" stroke="none" stroke-width="1"/><g id="e9i519vmdsuv14"><path id="e9i519vmdsuv15" d="M172.387000,75.700000C168.507000,89.855000,161.940000,89.229000,160.353000,88.849000C150.981000,117.118000,130,116,130,116C130,116,109.214000,117.108000,99.851000,89.050000C98.777000,89.380000,91.952000,90.831000,88,76C88,76,84.619000,58.800000,94,63C94.083944,65.351104,94.754262,67.643933,95.950000,69.670000C95.279000,65.024000,88.519000,12,130,12C170.600000,12,165.194000,62.335000,164.265000,69.216000C165.441542,67.224005,166.104420,64.970768,166.194000,62.659000C175.878000,58.448000,172.387000,75.700000,172.387000,75.700000Z" fill="rgb(249,161,123)" fill-rule="evenodd" stroke="none" stroke-width="1"/><path id="e9i519vmdsuv16" d="M163.640000,69.746000C159.391000,112.692000,135.269000,116.159000,130.007000,116.402000L130.007000,116.413000C130.007000,116.413000,129.829000,116.423000,129.500000,116.418000C129.171000,116.413000,128.993000,116.413000,128.993000,116.413000L128.993000,116.400000C123.731000,116.157000,99.609000,112.690000,95.360000,69.744000C94.832660,66.047478,94.545391,62.320671,94.500000,58.587000L97.400000,58.587000C97.400000,58.587000,103.180000,90.620000,115.743000,92.065000C115.743000,92.065000,119.643000,89.353000,128.995000,89.024000L128.995000,88.993000C129.170000,88.993000,129.330000,89.006000,129.502000,89.009000C129.674000,89.012000,129.834000,88.993000,130.009000,88.993000L130.009000,89.025000C139.363000,89.354000,143.261000,92.066000,143.261000,92.066000C155.822000,90.620000,161.600000,58.587000,161.600000,58.587000L164.500000,58.587000C164.455088,62.321357,164.167817,66.048860,163.640000,69.746000Z" opacity="0.15" fill="rgb(0,0,0)" fill-rule="evenodd" stroke="none" stroke-width="1"/><path id="e9i519vmdsuv17" d="M96,55C96,55,109.455000,43.600000,115,40C115,40,140.572000,48.408000,160,52L160,26L95,26Z" fill="rgb(235,152,116)" fill-rule="evenodd" stroke="none" stroke-width="1"/><path id="e9i519vmdsuv18" d="M95,71C95,71,96.053000,73.055000,97,71C97.947000,68.945000,96.522000,55.213000,97,54C97.478000,52.787000,99.727000,44.823000,106,40C108.969373,37.935179,110.815575,34.612015,111,31C111.184425,27.387985,127.986000,39.587000,147,42C147,42,162.100000,52.530000,163,72C163,72,163.741000,75.280000,165,72C168.866736,70.078606,172.276674,67.350656,175,64C179.878000,57.800000,174.621000,48.900000,177,44C179.379000,39.100000,180.181000,28.446000,171,18C161.819000,7.554000,155.626000,-6.055000,130,2C126.959979,3.797762,123.527593,4.827478,120,5C116.472407,5.172522,100.656000,-0.187000,93,8C85.344000,16.187000,82.570000,21.185000,86,31C89.430000,40.815000,85,46.200000,85,47C85,47.800000,84.606000,60.686000,95,68L95,71Z" fill="rgb(55,64,72)" fill-rule="evenodd" stroke="none" stroke-width="1"/><path id="e9i519vmdsuv19" d="M111,17C111,17,121.074000,1.677000,142,10C162.926000,18.323000,157.280000,34.492000,166,47C166,47,156.912000,36.023000,154,30C151.088000,23.977000,131.247000,11.100000,117,21C117,21,109.565000,26.162000,111,17Z" fill="rgb(75,83,91)" fill-rule="evenodd" stroke="none" stroke-width="1"/><g id="e9i519vmdsuv20"><path id="e9i519vmdsuv21" d="M123.650000,57.100000C123.650000,57.100000,113.893000,53.185000,109.190000,54.124000C104.487000,55.063000,102.652000,60.218000,105.005000,59.993000C107.358000,59.768000,121.310000,58.305000,122.419000,59.213000C122.419000,59.216000,124.905000,59.424000,123.650000,57.100000Z" fill="rgb(55,64,72)" fill-rule="evenodd" stroke="none" stroke-width="1"/><path id="e9i519vmdsuv22" d="M136.350000,57.100000C136.350000,57.100000,146.107000,53.185000,150.810000,54.124000C155.513000,55.063000,157.348000,60.222000,155,60C152.652000,59.778000,138.695000,58.312000,137.586000,59.220000C137.581000,59.216000,135.100000,59.424000,136.350000,57.100000Z" fill="rgb(55,64,72)" fill-rule="evenodd" stroke="none" stroke-width="1"/><ellipse id="e9i519vmdsuv23" rx="3" ry="4" transform="matrix(1 0 0 1 145 66)" fill="rgb(78,55,55)" stroke="none" stroke-width="1"/><ellipse id="e9i519vmdsuv24" rx="3" ry="4" transform="matrix(1 0 0 1 115.00000000000003 65.99999999999999)" fill="rgb(78,55,55)" stroke="none" stroke-width="1"/><path id="e9i519vmdsuv25" d="M129.622000,85C129.459821,84.999811,129.299920,84.961804,129.155000,84.889000C128.944000,84.783000,128.648000,84.671000,128.310000,84.540000C126.877000,83.985000,124.710000,83.147000,124.134000,81.409000C123.844434,80.403852,124.045660,79.321014,124.677000,78.487000C125.694000,76.921000,127.635000,68.087000,128.619000,62.893000C128.728719,62.345283,129.259303,61.988287,129.808000,62.093000C130.071151,62.137189,130.305728,62.284715,130.459541,62.502758C130.613354,62.720801,130.673645,62.991273,130.627000,63.254000C130.359000,64.669000,127.963000,77.148000,126.402000,79.554000C126.113553,79.897487,125.993956,80.352031,126.076000,80.793000C126.358000,81.640000,128.051000,82.293000,129.063000,82.687000C129.475000,82.847000,129.834000,82.987000,130.092000,83.118000C130.330700,83.235373,130.511853,83.444209,130.594328,83.697097C130.676804,83.949984,130.653605,84.225467,130.530000,84.461000C130.350446,84.794898,130.001107,85.002270,129.622000,85Z" fill="rgb(212,137,105)" fill-rule="evenodd" stroke="none" stroke-width="1"/><path id="e9i519vmdsuv26" d="M119.431000,96.687000C125.629042,100.729928,133.534143,101.086500,140.071000,97.618000C141.956000,96.659000,140.620000,93.306000,138.610000,94.125000C132.762243,96.598887,126.216053,96.869602,120.184000,94.887000C119.713333,94.776164,119.231533,95.021907,119.044922,95.467988C118.858312,95.914069,119.021613,96.429680,119.431000,96.687000L119.431000,96.687000Z" fill="rgb(152,98,75)" fill-rule="evenodd" stroke="none" stroke-width="1"/></g></g></g></g><g id="e9i519vmdsuv27"><path id="e9i519vmdsuv28" d="M130,211L110,139L150,139Z" transform="matrix(1 0 0 1 0.50000000000000 0)" fill="rgb(79,152,163)" fill-rule="evenodd" stroke="none" stroke-width="1"/><path id="e9i519vmdsuv29" d="M130,211L121.740000,181.264000L126,154L134,154L138.260000,181.264000Z" fill="rgb(10,59,105)" fill-rule="evenodd" stroke="none" stroke-width="1"/><path id="e9i519vmdsuv30" d="M138,148C138,152.418278,134.418278,156,130,156C125.581722,156,122,152.418278,122,148L122,141L138,141L138,148Z" fill="rgb(12,72,129)" fill-rule="evenodd" stroke="none" stroke-width="1"/><path id="e9i519vmdsuv31" d="M141,156C138.306446,150.059216,134.582298,144.642273,130,140L153,116C162.278000,118.859000,165,126,165,126C163.536000,128.333000,141,156,141,156ZM95,126C95,126,97.722000,118.859000,107,116L130,140C125.417702,144.642273,121.693554,150.059216,119,156C116.306446,161.940784,96.464000,128.333000,95,126Z" fill="rgb(92,178,191)" fill-rule="evenodd" stroke="none" stroke-width="1"/></g><g id="e9i519vmdsuv32"><path id="e9i519vmdsuv33" d="M107,216L107,221C107,221,151.371000,248,194,248L194,238C194,238,139.092000,235.115000,107,216Z" fill="rgb(221,221,221)" fill-rule="evenodd" stroke="none" stroke-width="1"/><path id="e9i519vmdsuv34" d="M186.042000,209.313000C186.042000,209.313000,181.606000,182.835000,181,168L169.033000,127C169.033000,127,199.063000,139.884000,201.051000,142.057000C203.039000,144.230000,223.010000,205.470000,221.062000,219.351000C221.062000,219.351000,226.262000,236.517000,212.057000,239.428000C197.852000,242.339000,166.917000,247.428000,111,223.367000L130,201C130,201,167.114000,203.959000,186.042000,209.313000Z" fill="rgb(255,255,255)" fill-rule="evenodd" stroke="none" stroke-width="1"/><path id="e9i519vmdsuv35" d="M153,217L153,222C153,222,108.629000,249,66,249L66,239C66,239,120.908000,236.115000,153,217ZM179,207.750000C179,207.750000,189.500000,211.550000,196,219C192.278005,212.152923,186.257232,206.840475,179,204L179,207.750000Z" fill="rgb(221,221,221)" fill-rule="evenodd" stroke="none" stroke-width="1"/><path id="e9i519vmdsuv36" d="M149,194C152.039008,193.522913,155.044956,192.854925,158,192C166.679950,189.316900,176.123501,192.071269,182,199C187.876499,205.928731,185.734000,208.438000,186,210C186,210,172.900000,204.441000,165,208C165,208,156.882000,213.281000,153,210Z" fill="rgb(249,161,123)" fill-rule="evenodd" stroke="none" stroke-width="1"/><path id="e9i519vmdsuv37" d="M139,194C139,194,146.728000,191.938000,149,193C154.000839,200.689062,156.125772,209.897104,155,219L145,223C145,223,145.222000,210.034000,139,194Z" fill="rgb(92,178,191)" fill-rule="evenodd" stroke="none" stroke-width="1"/><path id="e9i519vmdsuv38" d="M90,127C90,127,59.987000,139.835000,58,142C56.013000,144.165000,36.053000,205.171000,38,219C38,219,32.800000,236.100000,47,239C61.200000,241.900000,92.114000,246.965000,148,223C148,223,148.061000,202.309000,140,192C140,192,80.777000,208.412000,73,209C73,209,80.394000,195.779000,81,181Z" fill="rgb(255,255,255)" fill-rule="evenodd" stroke="none" stroke-width="1"/><path id="e9i519vmdsuv39" d="M66,212.750000C66,212.750000,55.500000,216.550000,49,224C52.721995,217.152923,58.742768,211.840475,66,209L66,212.750000ZM81.969000,198C82.303000,197.323000,79.985000,174,79.985000,174L78,198L81.969000,198ZM60,145C60,145,64.488000,161.021000,76,171C76,171,60.578000,162.700000,60,145ZM196,145C196,145,191.512000,161.021000,180,171C180,171,195.422000,162.700000,196,145Z" fill="rgb(221,221,221)" fill-rule="evenodd" stroke="none" stroke-width="1"/><path id="e9i519vmdsuv40" d="M108,200C108,200,98.665000,197.936000,92,194C85.335000,190.064000,67.832000,194.427000,64,203C60.168000,211.573000,56.251000,219.994000,59,222C59,222,59.129000,229.054000,65,224C65,224,66.032000,228.235000,70,225L73,221C73,221,74.676000,224.800000,78,221C78,221,83.980000,206.470000,90,207Z" fill="rgb(249,161,123)" fill-rule="evenodd" stroke="none" stroke-width="1"/></g></g><script><![CDATA[!function(t,n){"object"==typeof exports&&"undefined"!=typeof module?module.exports=n():"function"==typeof define&&define.amd?define(n):(t=t||self).__SVGATOR_PLAYER__=n()}(this,(function(){"use strict";function t(n){return(t="function"==typeof Symbol&&"symbol"==typeof Symbol.iterator?function(t){return typeof t}:function(t){return t&&"function"==typeof Symbol&&t.constructor===Symbol&&t!==Symbol.prototype?"symbol":typeof t})(n)}function n(t,n){if(!(t instanceof n))throw new TypeError("Cannot call a class as a function")}function r(t,n){for(var r=0;r<n.length;r++){var e=n[r];e.enumerable=e.enumerable||!1,e.configurable=!0,"value"in e&&(e.writable=!0),Object.defineProperty(t,e.key,e)}}function e(t,n,e){return n&&r(t.prototype,n),e&&r(t,e),t}var i=1e-5,u=Math.abs;function o(t){return t}function a(t,n,r){var e=1-r;return 3*r*e*(t*e+n*r)+r*r*r}function l(){var t=arguments.length>0&&void 0!==arguments[0]?arguments[0]:0,n=arguments.length>1&&void 0!==arguments[1]?arguments[1]:0,r=arguments.length>2&&void 0!==arguments[2]?arguments[2]:1,e=arguments.length>3&&void 0!==arguments[3]?arguments[3]:1;return t<0||t>1||r<0||r>1?null:u(t-n)<=i&&u(r-e)<=i?o:function(o){if(o<=0)return t>0?o*n/t:0===n&&r>0?o*e/r:0;if(o>=1)return r<1?1+(o-1)*(e-1)/(r-1):1===r&&t<1?1+(o-1)*(n-1)/(t-1):1;for(var l,f=0,s=1;f<s;){var c=a(t,r,l=(f+s)/2);if(u(o-c)<i)break;c<o?f=l:s=l}return a(n,e,l)}}function f(){return 1}function s(t){return 1===t?1:0}function c(){var t=arguments.length>0&&void 0!==arguments[0]?arguments[0]:1,n=arguments.length>1&&void 0!==arguments[1]?arguments[1]:0;if(1===t){if(0===n)return s;if(1===n)return f}var r=1/t;return function(t){return t>=1?1:(t+=n*r)-t%r}}function v(t){var n=arguments.length>1&&void 0!==arguments[1]?arguments[1]:2;if(Number.isInteger(t))return t;var r=Math.pow(10,n);return Math.round(t*r)/r}var h=Math.PI/180;function y(t,n,r){return t>=.5?r:n}function d(t,n,r){return 0===t||n===r?n:t*(r-n)+n}function g(t,n,r){var e=d(t,n,r);return e<=0?0:e}function m(t,n,r){return 0===t?n:1===t?r:{x:d(t,n.x,r.x),y:d(t,n.y,r.y)}}function p(t,n,r){return 0===t?n:1===t?r:{x:g(t,n.x,r.x),y:g(t,n.y,r.y)}}function b(t,n,r){var e=function(t,n,r){return Math.round(d(t,n,r))}(t,n,r);return e<=0?0:e>=255?255:e}function w(t,n,r){return 0===t?n:1===t?r:{r:b(t,n.r,r.r),g:b(t,n.g,r.g),b:b(t,n.b,r.b),a:d(t,null==n.a?1:n.a,null==r.a?1:r.a)}}function A(t,n,r){if(0===t)return n;if(1===t)return r;var e=n.length;if(e!==r.length)return y(t,n,r);for(var i=[],u=0;u<e;u++)i.push(w(t,n[u],r[u]));return i}function x(t,n,r){var e=n.length;if(e!==r.length)return y(t,n,r);for(var i=new Array(e),u=0;u<e;u++)i[u]=d(t,n[u],r[u]);return i}function k(t,n){for(var r=[],e=0;e<t;e++)r.push(n);return r}function S(t,n){if(--n<=0)return t;var r=(t=Object.assign([],t)).length;do{for(var e=0;e<r;e++)t.push(t[e])}while(--n>0);return t}var _=6,M=/\.0+$/g;function I(t){return Number.isInteger(t)?t+"":t.toFixed(_).replace(M,"")}function E(t){var n=arguments.length>1&&void 0!==arguments[1]?arguments[1]:" ";return t&&t.length?t.map(I).join(n):""}function F(t){return I(t.x)+","+I(t.y)}function B(t){return t?null==t.a||t.a>=1?"rgb("+t.r+","+t.g+","+t.b+")":"rgba("+t.r+","+t.g+","+t.b+","+t.a+")":"transparent"}var j={f:null,i:p,u:function(t,n){return function(r){var e=n(r);t.setAttribute("rx",I(e.x)),t.setAttribute("ry",I(e.y))}}},q={f:null,i:function(t,n,r){return 0===t?n:1===t?r:{width:g(t,n.width,r.width),height:g(t,n.height,r.height)}},u:function(t,n){return function(r){var e=n(r);t.setAttribute("width",I(e.width)),t.setAttribute("height",I(e.height))}}},P=Math.sin,O=Math.cos,z=Math.acos,L=Math.asin,C=Math.tan,R=Math.atan2,T=Math.PI/180,V=180/Math.PI,D=Math.sqrt,N=function(){function t(){var r=arguments.length>0&&void 0!==arguments[0]?arguments[0]:1,e=arguments.length>1&&void 0!==arguments[1]?arguments[1]:0,i=arguments.length>2&&void 0!==arguments[2]?arguments[2]:0,u=arguments.length>3&&void 0!==arguments[3]?arguments[3]:1,o=arguments.length>4&&void 0!==arguments[4]?arguments[4]:0,a=arguments.length>5&&void 0!==arguments[5]?arguments[5]:0;n(this,t),this.m=[r,e,i,u,o,a],this.i=null,this.w=null,this.s=null}return e(t,[{key:"point",value:function(t,n){var r=this.m;return{x:r[0]*t+r[2]*n+r[4],y:r[1]*t+r[3]*n+r[5]}}},{key:"translateSelf",value:function(){var t=arguments.length>0&&void 0!==arguments[0]?arguments[0]:0,n=arguments.length>1&&void 0!==arguments[1]?arguments[1]:0;if(!t&&!n)return this;var r=this.m;return r[4]+=r[0]*t+r[2]*n,r[5]+=r[1]*t+r[3]*n,this.w=this.s=this.i=null,this}},{key:"rotateSelf",value:function(){var t=arguments.length>0&&void 0!==arguments[0]?arguments[0]:0;if(t%=360){var n=P(t*=T),r=O(t),e=this.m,i=e[0],u=e[1];e[0]=i*r+e[2]*n,e[1]=u*r+e[3]*n,e[2]=e[2]*r-i*n,e[3]=e[3]*r-u*n,this.w=this.s=this.i=null}return this}},{key:"scaleSelf",value:function(){var t=arguments.length>0&&void 0!==arguments[0]?arguments[0]:1,n=arguments.length>1&&void 0!==arguments[1]?arguments[1]:1;if(1!==t||1!==n){var r=this.m;r[0]*=t,r[1]*=t,r[2]*=n,r[3]*=n,this.w=this.s=this.i=null}return this}},{key:"skewSelf",value:function(t,n){if(n%=360,(t%=360)||n){var r=this.m,e=r[0],i=r[1],u=r[2],o=r[3];t&&(t=C(t*T),r[2]+=e*t,r[3]+=i*t),n&&(n=C(n*T),r[0]+=u*n,r[1]+=o*n),this.w=this.s=this.i=null}return this}},{key:"resetSelf",value:function(){var t=arguments.length>0&&void 0!==arguments[0]?arguments[0]:1,n=arguments.length>1&&void 0!==arguments[1]?arguments[1]:0,r=arguments.length>2&&void 0!==arguments[2]?arguments[2]:0,e=arguments.length>3&&void 0!==arguments[3]?arguments[3]:1,i=arguments.length>4&&void 0!==arguments[4]?arguments[4]:0,u=arguments.length>5&&void 0!==arguments[5]?arguments[5]:0,o=this.m;return o[0]=t,o[1]=n,o[2]=r,o[3]=e,o[4]=i,o[5]=u,this.w=this.s=this.i=null,this}},{key:"recomposeSelf",value:function(){var t=arguments.length>0&&void 0!==arguments[0]?arguments[0]:null,n=arguments.length>1&&void 0!==arguments[1]?arguments[1]:null,r=arguments.length>2&&void 0!==arguments[2]?arguments[2]:null,e=arguments.length>3&&void 0!==arguments[3]?arguments[3]:null,i=arguments.length>4&&void 0!==arguments[4]?arguments[4]:null;return this.isIdentity||this.resetSelf(),t&&(t.x||t.y)&&this.translateSelf(t.x,t.y),n&&this.rotateSelf(n),r&&(r.x&&this.skewSelf(r.x,0),r.y&&this.skewSelf(0,r.y)),!e||1===e.x&&1===e.y||this.scaleSelf(e.x,e.y),i&&(i.x||i.y)&&this.translateSelf(i.x,i.y),this}},{key:"decompose",value:function(){var t=arguments.length>0&&void 0!==arguments[0]?arguments[0]:0,n=arguments.length>1&&void 0!==arguments[1]?arguments[1]:0,r=this.m,e=r[0]*r[0]+r[1]*r[1],i=[[r[0],r[1]],[r[2],r[3]]],u=D(e);if(0===u)return{origin:{x:r[4],y:r[5]},translate:{x:t,y:n},scale:{x:0,y:0},skew:{x:0,y:0},rotate:0};i[0][0]/=u,i[0][1]/=u;var o=r[0]*r[3]-r[1]*r[2]<0;o&&(u=-u);var a=i[0][0]*i[1][0]+i[0][1]*i[1][1];i[1][0]-=i[0][0]*a,i[1][1]-=i[0][1]*a;var l=D(i[1][0]*i[1][0]+i[1][1]*i[1][1]);if(0===l)return{origin:{x:r[4],y:r[5]},translate:{x:t,y:n},scale:{x:u,y:0},skew:{x:0,y:0},rotate:0};i[1][0]/=l,i[1][1]/=l,a/=l;var f=0;return i[1][1]<0?(f=z(i[1][1])*V,i[0][1]<0&&(f=360-f)):f=L(i[0][1])*V,o&&(f=-f),a=R(a,D(i[0][0]*i[0][0]+i[0][1]*i[0][1]))*V,{origin:{x:r[4],y:r[5]},translate:{x:t,y:n},scale:{x:u,y:l},skew:{x:a,y:0},rotate:f}}},{key:"toString",value:function(){return null===this.s&&(this.s="matrix("+this.m.map($).join(" ")+")"),this.s}},{key:"determinant",get:function(){var t=this.m;return t[0]*t[3]-t[1]*t[2]}},{key:"isIdentity",get:function(){if(null===this.i){var t=this.m;this.i=1===t[0]&&0===t[1]&&0===t[2]&&1===t[3]&&0===t[4]&&0===t[5]}return this.i}}]),t}(),G=/\.0+$/;function $(t){return Number.isInteger(t)?t:t.toFixed(14).replace(G,"")}Object.freeze({M:2,L:2,Z:0,H:1,V:1,C:6,Q:4,T:2,S:4,A:7});function H(t,n,r){return t+(n-t)*r}function Q(t,n,r){var e=arguments.length>3&&void 0!==arguments[3]&&arguments[3],i={x:H(t.x,n.x,r),y:H(t.y,n.y,r)};return e&&(i.a=function(t,n){return Math.atan2(n.y-t.y,n.x-t.x)}(t,n)),i}function U(t,n,r,e){var i=1-e;return i*i*t+2*i*e*n+e*e*r}function Y(t,n,r,e){return 2*(1-e)*(n-t)+2*e*(r-n)}function Z(t,n,r,e){var i=arguments.length>4&&void 0!==arguments[4]&&arguments[4],u={x:U(t.x,n.x,r.x,e),y:U(t.y,n.y,r.y,e)};return i&&(u.a=function(t,n,r,e){return Math.atan2(Y(t.y,n.y,r.y,e),Y(t.x,n.x,r.x,e))}(t,n,r,e)),u}function J(t,n,r,e,i){var u=i*i;return i*u*(e-t+3*(n-r))+3*u*(t+r-2*n)+3*i*(n-t)+t}function K(t,n,r,e,i){var u=1-i;return 3*(u*u*(n-t)+2*u*i*(r-n)+i*i*(e-r))}function W(t,n,r,e,i){var u=arguments.length>5&&void 0!==arguments[5]&&arguments[5],o={x:J(t.x,n.x,r.x,e.x,i),y:J(t.y,n.y,r.y,e.y,i)};return u&&(o.a=function(t,n,r,e,i){return Math.atan2(K(t.y,n.y,r.y,e.y,i),K(t.x,n.x,r.x,e.x,i))}(t,n,r,e,i)),o}function X(t,n,r){var e,i=arguments.length>3&&void 0!==arguments[3]&&arguments[3];if(nt(n)){if(null!=(e=r).start&&!nt(e))return Z(n,r.start,r,t,i)}else if(nt(r)){if(n.end)return Z(n,n.end,r,t,i)}else{if(n.end)return r.start?W(n,n.end,r.start,r,t,i):Z(n,n.end,r,t,i);if(r.start)return Z(n,r.start,r,t,i)}return Q(n,r,t,i)}function tt(t,n,r){var e=X(t,n,r,!0);return e.a=function(t){return arguments.length>1&&void 0!==arguments[1]&&arguments[1]?t+Math.PI:t}(e.a)/h,e}function nt(t){return!t.type||"corner"===t.type}var rt=new N;var et={f:function(t){return t?t.join(" "):""},i:function(n,r,e){if(0===n)return r;if(1===n)return e;var i=r.length;if(i!==e.length)return y(n,r,e);for(var u,o=new Array(i),a=0;a<i;a++){if((u=t(r[a]))!==t(e[a]))return y(n,r,e);if("number"===u)o[a]=d(n,r[a],e[a]);else{if(r[a]!==e[a])return y(n,r,e);o[a]=r[a]}}return o}},it={f:null,i:x,u:function(t,n){return function(r){var e=n(r);t.setAttribute("x1",I(e[0])),t.setAttribute("y1",I(e[1])),t.setAttribute("x2",I(e[2])),t.setAttribute("y2",I(e[3]))}}},ut={f:I,i:d},ot={f:I,i:function(t,n,r){var e=d(t,n,r);return e<=0?0:e>=1?1:e}},at={f:E,i:function(t,n,r){var e,i,u,o=n.length,a=r.length;if(o!==a)if(0===o)n=k(o=a,0);else if(0===a)a=o,r=k(o,0);else{var l=(u=(e=o)*(i=a)/function(t,n){for(var r;n;)r=n,n=t%n,t=r;return t||1}(e,i))<0?-u:u;n=S(n,Math.floor(l/o)),r=S(r,Math.floor(l/a)),o=a=l}for(var f=[],s=0;s<o;s++)f.push(v(g(t,n[s],r[s]),6));return f}};function lt(t,n,r,e,i,u,o,a){return n=function(t,n,r){for(var e,i,u,o=t.length-1,a={},l=0;l<=o;l++)(e=t[l]).e&&(e.e=n(e.e)),e.v&&"g"===(i=e.v).t&&i.r&&(u=r.getElementById(i.r))&&(a[i.r]=u.querySelectorAll("stop"));return a}(t,e,a),function(e){var i,u=r(e,t,ft);return u?"c"===u.t?B(u.v):"g"===u.t?(n[u.r]&&function(t,n){for(var r=0,e=t.length;r<e;r++)t[r].setAttribute("stop-color",B(n[r]))}(n[u.r],u.v),(i=u.r)?"url(#"+i+")":"none"):"none":"none"}}function ft(t,n,r){if(0===t)return n;if(1===t)return r;if(n&&r){var e=n.t;if(e===r.t)switch(n.t){case"c":return{t:e,v:w(t,n.v,r.v)};case"g":if(n.r===r.r)return{t:e,v:A(t,n.v,r.v),r:n.r}}}return y(t,n,r)}var st={blur:p,brightness:g,contrast:g,"drop-shadow":function(t,n,r){return 0===t?n:1===t?r:{blur:p(t,n.blur,r.blur),offset:m(t,n.offset,r.offset),color:w(t,n.color,r.color)}},grayscale:g,"hue-rotate":d,invert:g,opacity:g,saturate:g,sepia:g};function ct(t,n,r){if(0===t)return n;if(1===t)return r;var e=n.length;if(e!==r.length)return y(t,n,r);for(var i,u=[],o=0;o<e;o++){if(n[o].type!==r[o].type)return n;if(!(i=st[n[o].type]))return y(t,n,r);u.push({type:n.type,value:i(t,n[o].value,r[o].value)})}return u}var vt={blur:function(t){return t?function(n){t.setAttribute("stdDeviation",F(n))}:null},brightness:function(t,n,r){return(t=yt(r,n))?function(n){n=I(n),t.map((function(t){return t.setAttribute("slope",n)}))}:null},contrast:function(t,n,r){return(t=yt(r,n))?function(n){var r=I((1-n)/2);n=I(n),t.map((function(t){t.setAttribute("slope",n),t.setAttribute("intercept",r)}))}:null},"drop-shadow":function(t,n,r){var e=r.getElementById(n+"-blur");if(!e)return null;var i=r.getElementById(n+"-offset");if(!i)return null;var u=r.getElementById(n+"-flood");return u?function(t){e.setAttribute("stdDeviation",F(t.blur)),i.setAttribute("dx",I(t.offset.x)),i.setAttribute("dy",I(t.offset.y)),u.setAttribute("flood-color",B(t.color))}:null},grayscale:function(t){return t?function(n){t.setAttribute("values",E(function(t){return[.2126+.7874*(t=1-t),.7152-.7152*t,.0722-.0722*t,0,0,.2126-.2126*t,.7152+.2848*t,.0722-.0722*t,0,0,.2126-.2126*t,.7152-.7152*t,.0722+.9278*t,0,0,0,0,0,1,0]}(n)))}:null},"hue-rotate":function(t){return t?function(n){return t.setAttribute("values",I(n))}:null},invert:function(t,n,r){return(t=yt(r,n))?function(n){n=I(n)+" "+I(1-n),t.map((function(t){return t.setAttribute("tableValues",n)}))}:null},opacity:function(t,n,r){return(t=r.getElementById(n+"-A"))?function(n){return t.setAttribute("tableValues","0 "+I(n))}:null},saturate:function(t){return t?function(n){return t.setAttribute("values",I(n))}:null},sepia:function(t){return t?function(n){return t.setAttribute("values",E(function(t){return[.393+.607*(t=1-t),.769-.769*t,.189-.189*t,0,0,.349-.349*t,.686+.314*t,.168-.168*t,0,0,.272-.272*t,.534-.534*t,.131+.869*t,0,0,0,0,0,1,0]}(n)))}:null}};var ht=["R","G","B"];function yt(t,n){var r=ht.map((function(r){return t.getElementById(n+"-"+r)||null}));return-1!==r.indexOf(null)?null:r}var dt={fill:lt,"fill-opacity":ot,stroke:lt,"stroke-opacity":ot,"stroke-width":ut,"stroke-dashoffset":{f:I,i:d},"stroke-dasharray":at,opacity:ot,transform:function(n,r,e,i){if(!(n=function(n,r){if(!n||"object"!==t(n))return null;var e=!1;for(var i in n)n.hasOwnProperty(i)&&(n[i]&&n[i].length?(n[i].forEach((function(t){t.e&&(t.e=r(t.e))})),e=!0):delete n[i]);return e?n:null}(n,i)))return null;var u=function(t,i,u){var o=arguments.length>3&&void 0!==arguments[3]?arguments[3]:null;return n[t]?e(i,n[t],u):r&&r[t]?r[t]:o};return r&&r.a&&n.o?function(t){var r=e(t,n.o,tt);return rt.recomposeSelf(r,u("r",t,d,0)+r.a,u("k",t,m),u("s",t,m),u("t",t,m)).toString()}:function(t){return rt.recomposeSelf(u("o",t,X,null),u("r",t,d,0),u("k",t,m),u("s",t,m),u("t",t,m)).toString()}},"#filter":function(t,n,r,e,i,u,o,a){if(!n.items||!t||!t.length)return null;var l=function(t,n){var r=(t=t.map((function(t){return t&&vt[t[0]]?(n.getElementById(t[1]),vt[t[0]](n.getElementById(t[1]),t[1],n)):null}))).length;return function(n){for(var e=0;e<r;e++)t[e]&&t[e](n[e].value)}}(n.items,a);return l?(t=function(t,n){return t.map((function(t){return t.e=n(t.e),t}))}(t,e),function(n){l(r(n,t,ct))}):null},"#line":it,points:{f:E,i:x},d:et,r:ut,"#size":q,"#radius":j,_:function(t,n){if(Array.isArray(t))for(var r=0;r<t.length;r++)this[t[r]]=n;else this[t]=n}},gt=function(){function t(r){n(this,t),this.list=r,this.length=r.length}return e(t,[{key:"setAttribute",value:function(t,n){for(var r=this.list,e=0;e<this.length;e++)r[e].setAttribute(t,n)}},{key:"removeAttribute",value:function(t){for(var n=this.list,r=0;r<this.length;r++)n[r].removeAttribute(t)}},{key:"style",value:function(t,n){for(var r=this.list,e=0;e<this.length;e++)r[e].style[t]=n}}]),t}(),mt=/-./g,pt=function(t,n){return n.toUpperCase()};function bt(t){return"function"==typeof t?t:y}function wt(t){return t?"function"==typeof t?t:Array.isArray(t)?function(t){var n=arguments.length>1&&void 0!==arguments[1]?arguments[1]:o;if(!Array.isArray(t))return n;switch(t.length){case 1:return c(t[0])||n;case 2:return c(t[0],t[1])||n;case 4:return l(t[0],t[1],t[2],t[3])||n}return n}(t,null):function(t,n){var r=arguments.length>2&&void 0!==arguments[2]?arguments[2]:o;switch(t){case"linear":return o;case"steps":return c(n.steps||1,n.jump||0)||r;case"bezier":case"cubic-bezier":return l(n.x1||0,n.y1||0,n.x2||0,n.y2||0)||r}return r}(t.type,t.value,null):null}function At(t,n,r){var e=arguments.length>3&&void 0!==arguments[3]&&arguments[3],i=n.length-1;if(t<=n[0].t)return e?[0,0,n[0].v]:n[0].v;if(t>=n[i].t)return e?[i,1,n[i].v]:n[i].v;var u,o=n[0],a=null;for(u=1;u<=i;u++){if(!(t>n[u].t)){a=n[u];break}o=n[u]}return null==a?e?[i,1,n[i].v]:n[i].v:o.t===a.t?e?[u,1,a.v]:a.v:(t=(t-o.t)/(a.t-o.t),o.e&&(t=o.e(t)),e?[u,t,r(t,o.v,a.v)]:r(t,o.v,a.v))}function xt(t,n){var r=arguments.length>2&&void 0!==arguments[2]?arguments[2]:null;return t&&t.length?"function"!=typeof n?null:("function"!=typeof r&&(r=null),function(e){var i=At(e,t,n);return null!=i&&r&&(i=r(i)),i}):null}function kt(t,n){return t.t-n.t}function St(n,r,e,i,u){var o,a="@"===e[0],l="#"===e[0],f=dt[e],s=y;switch(a?(o=e.substr(1),e=o.replace(mt,pt)):l&&(e=e.substr(1)),t(f)){case"function":if(s=f(i,u,At,wt,e,a,r,n),l)return s;break;case"string":s=xt(i,bt(f));break;case"object":if((s=xt(i,bt(f.i),f.f))&&"function"==typeof f.u)return f.u(r,s,e,a,n)}return s?function(t,n,r){if(arguments.length>3&&void 0!==arguments[3]&&arguments[3])return t instanceof gt?function(e){return t.style(n,r(e))}:function(e){return t.style[n]=r(e)};if(Array.isArray(n)){var e=n.length;return function(i){var u=r(i);if(null==u)for(var o=0;o<e;o++)t[o].removeAttribute(n);else for(var a=0;a<e;a++)t[a].setAttribute(n,u)}}return function(e){var i=r(e);null==i?t.removeAttribute(n):t.setAttribute(n,i)}}(r,e,s,a):null}function _t(n,r,e,i){if(!i||"object"!==t(i))return null;var u=null,o=null;return Array.isArray(i)?o=function(t){if(!t||!t.length)return null;for(var n=0;n<t.length;n++)t[n].e&&(t[n].e=wt(t[n].e));return t.sort(kt)}(i):(o=i.keys,u=i.data||null),o?St(n,r,e,o,u):null}function Mt(t,n,r){if(!r)return null;var e=[];for(var i in r)if(r.hasOwnProperty(i)){var u=_t(t,n,i,r[i]);u&&e.push(u)}return e.length?e:null}function It(t,n){if(!n.duration||n.duration<0)return null;var r=function(t,n){if(!n)return null;var r=[];if(Array.isArray(n))for(var e=n.length,i=0;i<e;i++){var u=n[i];if(2===u.length){var o=null;if("string"==typeof u[0])o=t.getElementById(u[0]);else if(Array.isArray(u[0])){o=[];for(var a=0;a<u[0].length;a++)if("string"==typeof u[0][a]){var l=t.getElementById(u[0][a]);l&&o.push(l)}o=o.length?1===o.length?o[0]:new gt(o):null}if(o){var f=Mt(t,o,u[1]);f&&(r=r.concat(f))}}}else for(var s in n)if(n.hasOwnProperty(s)){var c=t.getElementById(s);if(c){var v=Mt(t,c,n[s]);v&&(r=r.concat(v))}}return r.length?r:null}(t,n.elements);return r?function(t,n){var r=arguments.length>2&&void 0!==arguments[2]?arguments[2]:1/0,e=arguments.length>3&&void 0!==arguments[3]?arguments[3]:1,i=arguments.length>4&&void 0!==arguments[4]&&arguments[4],u=arguments.length>5&&void 0!==arguments[5]?arguments[5]:1,o=t.length,a=e>0?n:0;i&&r%2==0&&(a=n-a);var l=null;return function(f,s){var c=f%n,v=1+(f-c)/n;s*=e,i&&v%2==0&&(s=-s);var h=!1;if(v>r)c=a,h=!0,-1===u&&(c=e>0?0:n);else if(s<0&&(c=n-c),c===l)return!1;l=c;for(var y=0;y<o;y++)t[y](c);return h}}(r,n.duration,n.iterations||1/0,n.direction||1,!!n.alternate,n.fill||1):null}var Et=function(){function t(r){var e=arguments.length>1&&void 0!==arguments[1]?arguments[1]:{};n(this,t),this._id=0,this._running=!1,this._animations=r,this.direction=e.direction||1,this.speed=e.speed||1,this.fps=e.fps||100,this.offset=e.offset||0}return e(t,[{key:"_start",value:function(){var t=this,n=arguments.length>0&&void 0!==arguments[0]?arguments[0]:0,r=-1/0,e=null,i={},u=function u(o){t._running=!0,null==e&&(e=o);var a=Math.round((o-e+n)*t.speed),l=t.fps?1e3/t.fps:0;if(a>r+l){t.offset=a,r=a;for(var f=t._animations,s=f.length,c=0,v=0;v<s;v++)i[v]?c++:(i[v]=f[v](a,t.direction),i[v]&&c++);if(c===s)return void t._stop()}t._id=window.requestAnimationFrame(u)};this._id=window.requestAnimationFrame(u)}},{key:"_stop",value:function(){this._id&&window.cancelAnimationFrame(this._id),this._running=!1}},{key:"play",value:function(){this._running||this._start(this.offset)}},{key:"stop",value:function(){this._stop(),this.offset=0;var t=this.direction,n=this._animations;requestAnimationFrame((function(){for(var r=0;r<n.length;r++)n[r](0,t)}))}},{key:"restart",value:function(){this._stop(),this.offset=0,this._start()}},{key:"pause",value:function(){this._stop()}},{key:"reverse",value:function(){this.direction=-this.direction}}],[{key:"build",value:function(n){if(!(n=function(t){if(!t||!t.root||!Array.isArray(t.animations))return null;var n=window.document.getElementById(t.root);if(!n)return null;var r=t.animations.map((function(t){return It(n,t)})).filter((function(t){return!!t}));return r.length?{element:n,animations:r,options:t.options||void 0}:null}(n)))return null;var r=n.element,e=n.options||{},i=new t(n.animations,n.options);return function(t,n,r){var e=arguments.length>3&&void 0!==arguments[3]?arguments[3]:null;if("click"===r){return void n.addEventListener("click",(function r(){n.removeEventListener("click",r),t.play()}))}if("hover"===r)return n.addEventListener("mouseenter",(function(){return t.play()})),void n.addEventListener("mouseleave","freeze"===e?function(){return t.pause()}:function(){return t.stop()});t.play()}(i,r,e.start,e.hover),i}}]),t}();return function(){for(var t=0,n=["ms","moz","webkit","o"],r=0;r<n.length&&!window.requestAnimationFrame;++r)window.requestAnimationFrame=window[n[r]+"RequestAnimationFrame"],window.cancelAnimationFrame=window[n[r]+"CancelAnimationFrame"]||window[n[r]+"CancelRequestAnimationFrame"];window.requestAnimationFrame||(window.requestAnimationFrame=function(n){var r=Date.now(),e=Math.max(0,16-(r-t)),i=window.setTimeout((function(){n(r+e)}),e);return t=r+e,i},window.cancelAnimationFrame=window.clearTimeout)}(),Et}));
__SVGATOR_PLAYER__.build({"root":"e9i519vmdsuv1","animations":[{"duration":9000,"direction":1,"iterations":0,"fill":1,"alternate":false,"elements":{"e9i519vmdsuv2":{"transform":{"data":{"t":{"x":130,"y":170}},"keys":{"s":[{"t":0,"v":{"x":1,"y":1}},{"t":500,"v":{"x":1,"y":1}}]}},"opacity":[{"t":0,"v":0},{"t":500,"v":1}]},"e9i519vmdsuv3":{"transform":{"keys":{"o":[{"t":500,"v":{"x":-0.030811309999990044,"y":26.858877,"type":"corner"},"e":[0.165,0.84,0.44,1]},{"t":1000,"v":{"x":0,"y":-0.0014509600000000011,"type":"corner"},"e":[0.165,0.84,0.44,1]}]}},"opacity":[{"t":500,"v":0},{"t":1000,"v":1}]},"e9i519vmdsuv10":{"transform":{"keys":{"o":[{"t":0,"v":{"x":0,"y":0,"type":"corner"}},{"t":1500,"v":{"x":0,"y":2,"type":"corner"}},{"t":3000,"v":{"x":0,"y":0,"type":"corner"}},{"t":4500,"v":{"x":0,"y":2,"type":"corner"}},{"t":6000,"v":{"x":0,"y":0,"type":"corner"}},{"t":7500,"v":{"x":0,"y":2,"type":"corner"}},{"t":9000,"v":{"x":0,"y":0,"type":"corner"}}]}}},"e9i519vmdsuv14":{"transform":{"data":{"o":{"x":131.55816556,"y":114.53333333333333,"type":"corner"},"t":{"x":-131.55816556,"y":-114.53333333333333}},"keys":{"r":[{"t":1000,"v":0},{"t":1200,"v":-7.8118694746771125},{"t":1400,"v":0}]}}},"e9i519vmdsuv24":{"transform":{"data":{"o":{"x":115.01559631686926,"y":65.88631926257031,"type":"corner"},"t":{"x":-0.015596316869235238,"y":0.1136807374296751}},"keys":{"s":[{"t":1000,"v":{"x":1,"y":1}},{"t":1200,"v":{"x":1.5382900399813944,"y":0.1448842153367972}},{"t":1400,"v":{"x":1,"y":1}}]}}},"e9i519vmdsuv32":{"transform":{"keys":{"o":[{"t":0,"v":{"x":0,"y":0,"type":"corner"}},{"t":1500,"v":{"x":-0.030811309999990044,"y":-2,"type":"corner"}},{"t":3000,"v":{"x":0,"y":0,"type":"corner"}},{"t":4500,"v":{"x":-0.030811309999990044,"y":-2,"type":"corner"}},{"t":6000,"v":{"x":0,"y":0,"type":"corner"}},{"t":7500,"v":{"x":-0.030811309999990044,"y":-2,"type":"corner"}},{"t":9000,"v":{"x":0,"y":0,"type":"corner"}}]}}}}}],"options":{"start":"load","hover":"freeze"}})]]></script></svg>