<svg id="e5lnhn3hohx1" xmlns="http://www.w3.org/2000/svg" xmlns:xlink="http://www.w3.org/1999/xlink" viewBox="0 0 370 290" shape-rendering="geometricPrecision" text-rendering="geometricPrecision" width="370" height="290"><g id="e5lnhn3hohx2"><path id="e5lnhn3hohx3" d="M185,290L121,290L121,192C121,147.339000,146,141,146,141C158.452000,140.344000,185,140,185,140C185,140,211.548000,140.344000,224,141C224,141,249,147.339000,249,192L249,290L185,290Z" fill="rgb(255,255,255)" fill-rule="evenodd" stroke="none" stroke-width="1"/><path id="e5lnhn3hohx4" d="M235,202.500000C235,210.508129,228.508129,217,220.500000,217C212.491871,217,206,210.508129,206,202.500000L206,185L235,185L235,202.500000Z" fill="rgb(221,221,221)" fill-rule="evenodd" stroke="none" stroke-width="1"/><path id="e5lnhn3hohx5" d="M235,200.500000C235,208.508129,228.508129,215,220.500000,215C212.491871,215,206,208.508129,206,200.500000L206,183L235,183L235,200.500000Z" fill="rgb(245,245,245)" fill-rule="evenodd" stroke="none" stroke-width="1"/><path id="e5lnhn3hohx6" d="M223.220000,186C223.220000,186,215.520000,200.948000,215.320000,204.271000C215.120000,207.594000,216.852000,205.271000,217.095000,204.309000C217.338000,203.347000,218.005000,200.490000,218.962000,197.462000C219.962000,194.287000,223.222000,186,223.222000,186M225.922000,191.050000C225.922000,191.050000,220.592000,202.136000,220.513000,204.578000C220.434000,207.020000,221.657000,205.289000,221.813000,204.578000C221.969000,203.867000,222.399000,201.762000,223.036000,199.526000C223.706000,197.181000,225.919000,191.050000,225.919000,191.050000M227.525000,195.678000C227.525000,195.678000,223.894000,203.232000,223.840000,204.895000C223.786000,206.558000,224.620000,205.380000,224.728000,204.895000C224.836000,204.410000,225.128000,202.977000,225.562000,201.453000C226.018000,199.853000,227.525000,195.678000,227.525000,195.678000M230,198.948000L212,198.948000L212,198.809000L230,198.809000L230,198.948000Z" fill="rgb(88,89,91)" fill-rule="evenodd" stroke="none" stroke-width="1"/><rect id="e5lnhn3hohx7" width="2" height="67" rx="0" ry="0" transform="matrix(1 0 0 1 184 223)" fill="rgb(221,221,221)" stroke="none" stroke-width="1"/></g><g id="e5lnhn3hohx8"><path id="e5lnhn3hohx9" d="M208,139L185,161L162,139C168.300000,133.248000,168,118,168,118L202,118C202,118,201.700000,133.248000,208,139Z" fill="rgb(249,161,123)" fill-rule="evenodd" stroke="none" stroke-width="1"/><path id="e5lnhn3hohx10" d="M185,118L202,118C201.988005,122.423437,202.554474,126.829454,203.685000,131.106000C194.580000,139.500000,185,139,185,139C185,139,175.417000,139.500000,166.333000,131.043000C167.450595,126.785760,168.010941,122.401476,168,118L185,118Z" fill="rgb(235,152,116)" fill-rule="evenodd" stroke="none" stroke-width="1"/><g id="e5lnhn3hohx11"><path id="e5lnhn3hohx12" d="M219.152000,85C214.445000,132.571000,185,131,185,131C185,131,155.686000,132.571000,151,85C151,85,141.619000,27,185,27C228.576000,27,219.152000,85,219.152000,85Z" fill="rgb(249,161,123)" fill-rule="evenodd" stroke="none" stroke-width="1"/><path id="e5lnhn3hohx13" d="M218.641000,84.746000C214.391000,127.692000,190.269000,131.159000,185.007000,131.402000L185.007000,131.413000C185.007000,131.413000,184.829000,131.423000,184.500000,131.413000C184.171000,131.403000,183.993000,131.413000,183.993000,131.413000L183.993000,131.400000C178.731000,131.157000,154.609000,127.690000,150.360000,84.744000C149.833521,81.046773,149.547587,77.319270,149.504000,73.585000L152.400000,73.585000C152.400000,73.585000,158.180000,104.618000,170.743000,106.063000C170.743000,106.063000,174.643000,102.351000,183.995000,102.023000L183.995000,101.991000C184.170000,101.991000,184.330000,102.004000,184.502000,102.007000C184.674000,102.010000,184.834000,101.991000,185.009000,101.991000L185.009000,102.023000C194.363000,102.351000,198.261000,106.063000,198.261000,106.063000C210.822000,104.620000,216.600000,73.587000,216.600000,73.587000L219.500000,73.587000C219.455074,77.321320,219.168139,81.048800,218.641000,84.746000Z" opacity="0.15" fill="rgb(0,0,0)" fill-rule="evenodd" stroke="none" stroke-width="1"/><path id="e5lnhn3hohx14" d="M151,70C151,70,164.455000,58.600000,170,55C170,55,195.572000,63.408000,215,67L215,41L150,41Z" fill="rgb(235,152,116)" fill-rule="evenodd" stroke="none" stroke-width="1"/><path id="e5lnhn3hohx15" d="M150,86C150,86,151.053000,88.055000,152,86C152.947000,83.945000,151.523000,70.213000,152,69C152.477000,67.787000,154.727000,59.823000,161,55C163.969373,52.935179,165.815575,49.612015,166,46C166.184425,42.387985,182.986000,54.587000,202,57C202,57,217.100000,67.530000,218,87C218,87,218.741000,90.280000,220,87C223.866736,85.078606,227.276674,82.350656,230,79C234.878000,72.800000,229.622000,63.900000,232,59C234.378000,54.100000,235.181000,43.446000,226,33C216.819000,22.554000,210.626000,8.945000,185,17C181.959979,18.797762,178.527593,19.827478,175,20C171.472407,20.172522,155.656000,14.813000,148,23C140.344000,31.187000,137.570000,36.185000,141,46C144.430000,55.815000,140,61.200000,140,62C140,62.800000,139.606000,75.686000,150,83L150,86Z" fill="rgb(55,64,72)" fill-rule="evenodd" stroke="none" stroke-width="1"/><path id="e5lnhn3hohx16" d="M166,32C166,32,176.074000,16.677000,197,25C217.926000,33.323000,212.280000,49.492000,221,62C221,62,211.912000,51.023000,209,45C206.088000,38.977000,186.247000,26.100000,172,36C172,36,164.565000,41.162000,166,32Z" fill="rgb(75,83,91)" fill-rule="evenodd" stroke="none" stroke-width="1"/><path id="e5lnhn3hohx17" d="M227.387000,90.700000C222.950000,106.890000,215,103.749000,215,103.749000L218.100000,85.686000C221.153000,82.646000,221.200000,77.658000,221.200000,77.658000C230.877000,73.448000,227.387000,90.700000,227.387000,90.700000ZM143,91C143,91,139.619000,73.800000,149,78C149,78,149.042000,82.971000,152,86L155,104C155,104,147.300000,107.130000,143,91Z" fill="rgb(249,161,123)" fill-rule="evenodd" stroke="none" stroke-width="1"/><g id="e5lnhn3hohx18"><path id="e5lnhn3hohx19" d="M180.650000,72.100000C180.650000,72.100000,170.893000,68.185000,166.190000,69.124000C161.487000,70.063000,159.652000,75.218000,162.005000,74.993000C164.358000,74.768000,178.310000,73.305000,179.419000,74.213000C179.419000,74.216000,181.905000,74.424000,180.650000,72.100000Z" fill="rgb(55,64,72)" fill-rule="evenodd" stroke="none" stroke-width="1"/><path id="e5lnhn3hohx20" d="M193.350000,72.100000C193.350000,72.100000,203.107000,68.185000,207.810000,69.124000C212.513000,70.063000,214.348000,75.222000,212,75C209.652000,74.778000,195.695000,73.312000,194.586000,74.220000C194.581000,74.216000,192.100000,74.424000,193.350000,72.100000Z" fill="rgb(55,64,72)" fill-rule="evenodd" stroke="none" stroke-width="1"/><path id="e5lnhn3hohx21" d="M177.900000,82.680000C176.481211,80.978497,174.399582,79.968825,172.185000,79.908000C170.058694,80.098831,168.079373,81.073700,166.632000,82.643000L165.200000,81.227000C166.993957,79.254137,169.471849,78.038432,172.130000,77.827000C174.630000,77.758000,177.042000,78.891000,179.252000,81.187000Z" fill="rgb(78,55,55)" fill-rule="evenodd" stroke="none" stroke-width="1"/><path id="e5lnhn3hohx22" d="M206.900000,82.680000C205.481211,80.978497,203.399582,79.968825,201.185000,79.908000C199.058694,80.098831,197.079373,81.073700,195.632000,82.643000L194.200000,81.227000C195.993957,79.254137,198.471849,78.038432,201.130000,77.827000C203.630000,77.758000,206.042000,78.891000,208.252000,81.187000Z" fill="rgb(78,55,55)" fill-rule="evenodd" stroke="none" stroke-width="1"/><path id="e5lnhn3hohx23" d="M187.060000,100C187.230929,99.999713,187.399660,99.961458,187.554000,99.888000C187.776000,99.781000,188.089000,99.669000,188.446000,99.537000C189.960000,98.980000,192.246000,98.137000,192.858000,96.393000C193.163634,95.380405,192.949158,94.282198,192.285000,93.459000C191.211000,91.886000,189.160000,83.020000,188.119000,77.801000C187.983178,77.240257,187.428586,76.887014,186.863000,77.001000C186.591980,77.036608,186.347042,77.180757,186.184333,77.400405C186.021623,77.620053,185.955096,77.896364,186,78.166000C186.283000,79.587000,188.814000,92.117000,190.464000,94.532000C190.766933,94.870035,190.894224,95.330353,190.808000,95.776000C190.508000,96.626000,188.721000,97.285000,187.653000,97.676000C187.218000,97.836000,186.837000,97.976000,186.566000,98.109000C186.317403,98.217372,186.125666,98.425056,186.037459,98.681502C185.949252,98.937948,185.972666,99.219636,186.102000,99.458000C186.300577,99.797852,186.666415,100.004830,187.060000,100Z" fill="rgb(212,137,105)" fill-rule="evenodd" stroke="none" stroke-width="1"/><path id="e5lnhn3hohx24" d="M195.569000,110.687000C189.370580,114.729895,181.465215,115.086462,174.928000,111.618000C173.044000,110.659000,174.380000,107.305000,176.390000,108.125000C182.237757,110.598887,188.783947,110.869602,194.816000,108.887000C195.286667,108.776164,195.768467,109.021907,195.955078,109.467988C196.141688,109.914069,195.978387,110.429680,195.569000,110.687000L195.569000,110.687000Z" fill="rgb(152,98,75)" fill-rule="evenodd" stroke="none" stroke-width="1"/></g></g></g><g id="e5lnhn3hohx25"><path id="e5lnhn3hohx26" d="M185,226L165,154L205,154Z" fill="rgb(79,152,163)" fill-rule="evenodd" stroke="none" stroke-width="1"/><path id="e5lnhn3hohx27" d="M185,226L176.740000,196.264000L181,169L189,169L193.260000,196.264000Z" fill="rgb(10,59,105)" fill-rule="evenodd" stroke="none" stroke-width="1"/><path id="e5lnhn3hohx28" d="M193,163C193,167.418278,189.418278,171,185,171C180.581722,171,177,167.418278,177,163L177,156L193,156L193,163Z" fill="rgb(12,72,129)" fill-rule="evenodd" stroke="none" stroke-width="1"/><path id="e5lnhn3hohx29" d="M196,171C193.306446,165.059216,189.582298,159.642273,185,155L208,131C217.278000,133.859000,220,141,220,141C218.536000,143.333000,196,171,196,171ZM150,141C150,141,152.722000,133.859000,162,131L185,155C180.417702,159.642273,176.693554,165.059216,174,171C171.306446,176.940784,151.463000,143.333000,150,141Z" fill="rgb(92,178,191)" fill-rule="evenodd" stroke="none" stroke-width="1"/></g><g id="e5lnhn3hohx30"><path id="e5lnhn3hohx31" d="M234.015000,196.078000L225,142.144000C225,142.144000,255.062000,154.963000,257.052000,157.125000C259.042000,159.287000,282.039000,223.217000,280.090000,237.025000C280.090000,237.025000,285.296000,254.104000,271.075000,257.001000C271.075000,257.005000,251.926000,262.100000,234.015000,196.078000Z" fill="rgb(255,255,255)" fill-rule="evenodd" stroke="none" stroke-width="1"/><path id="e5lnhn3hohx32" d="M234.015000,196.078000C234.015000,196.078000,238.960000,221.928000,245.033000,236.030000L249.039000,261L249.039000,234.033000C249.039000,234.033000,234.600000,197.100000,234.015000,196.078000Z" fill="rgb(221,221,221)" fill-rule="evenodd" stroke="none" stroke-width="1"/><path id="e5lnhn3hohx33" d="M264.063000,177.100000C262.963000,177.528000,254.721000,215.547000,255.049000,226.041000L259.055000,240.024000C259.055000,240.024000,265.164000,176.674000,264.063000,177.100000Z" fill="rgb(221,221,221)" fill-rule="evenodd" stroke="none" stroke-width="1"/><g id="e5lnhn3hohx34"><g id="e5lnhn3hohx35" transform="matrix(0.19658280572816 0.98048722607286 -0.98048722607286 0.19658280572816 351.18301734368254 -176.24137962063617)"><path id="e5lnhn3hohx36" d="M239.200000,105.432000L243.820000,97.367000C244.022340,97.012330,244.357733,96.752968,244.751898,96.646355C245.146063,96.539743,245.566467,96.594681,245.920000,96.799000L277.267000,115.037000C278.004496,115.469476,278.256102,116.415229,277.831000,117.157000L273.210000,125.223000C273.007469,125.577466,272.672078,125.836651,272.277993,125.943241C271.883908,126.049832,271.463595,125.995047,271.110000,125.791000L239.763000,107.553000C239.025271,107.120152,238.774054,106.173735,239.200000,105.432000Z" fill="rgb(255,255,255)" fill-rule="evenodd" stroke="none" stroke-width="1"/><path id="e5lnhn3hohx37" d="M243.400000,104.300000L244.940000,101.612000C245.142171,101.257160,245.477491,100.997585,245.871670,100.890781C246.265849,100.783977,246.686345,100.838763,247.040000,101.043000L258.378000,107.643000C259.115624,108.075864,259.367194,109.021928,258.942000,109.764000L257.402000,112.452000C257.199660,112.806670,256.864267,113.066032,256.470102,113.172645C256.075937,113.279257,255.655533,113.224319,255.302000,113.020000L243.964000,106.420000C243.226036,105.987880,242.974316,105.041695,243.400000,104.300000Z" fill="rgb(255,216,110)" fill-rule="evenodd" stroke="none" stroke-width="1"/></g><g id="e5lnhn3hohx38" transform="matrix(0.64668999443788 0.76275294236989 -0.76275294236989 0.64668999443788 202.18809094402627 -168.24759117354191)"><path id="e5lnhn3hohx39" d="M249.448000,90.379000L257.448000,85.723000C257.801533,85.518681,258.221937,85.463743,258.616102,85.570355C259.010267,85.676968,259.345660,85.936330,259.548000,86.291000L277.648000,117.880000C278.073194,118.622072,277.821624,119.568136,277.084000,120.001000L269.084000,124.657000C268.730467,124.861319,268.310063,124.916257,267.915898,124.809645C267.521733,124.703032,267.186340,124.443670,266.984000,124.089000L248.884000,92.500000C248.457640,91.758081,248.709440,90.811152,249.448000,90.379000Z" fill="rgb(255,255,255)" fill-rule="evenodd" stroke="none" stroke-width="1"/><path id="e5lnhn3hohx40" d="M253.656000,91.516000L256.323000,89.964000C256.676533,89.759681,257.096937,89.704743,257.491102,89.811355C257.885267,89.917968,258.220660,90.177330,258.423000,90.532000L264.969000,101.958000C265.394946,102.699735,265.143729,103.646152,264.406000,104.079000L261.738000,105.631000C261.384467,105.835319,260.964063,105.890257,260.569898,105.783645C260.175733,105.677032,259.840340,105.417670,259.638000,105.063000L253.092000,93.637000C252.665640,92.895081,252.917440,91.948152,253.656000,91.516000Z" fill="rgb(160,85,13)" fill-rule="evenodd" stroke="none" stroke-width="1"/></g><g id="e5lnhn3hohx41" transform="matrix(0.81929047349777 0.57337868815975 -0.57337868815975 0.81929047349777 125.61595980342838 -137.75336344284506)"><path id="e5lnhn3hohx42" d="M263.339000,81.468000L272.266000,79.058000C272.662021,78.952416,273.083799,79.009158,273.437837,79.215649C273.791874,79.422139,274.048922,79.761319,274.152000,80.158000L283.520000,115.391000C283.741318,116.216049,283.254765,117.064948,282.431000,117.291000L273.505000,119.701000C273.108840,119.806888,272.686803,119.750295,272.332535,119.543779C271.978266,119.337264,271.721065,118.997904,271.618000,118.601000L262.250000,83.369000C262.028633,82.543703,262.515099,81.694508,263.339000,81.468000Z" fill="rgb(255,255,255)" fill-rule="evenodd" stroke="none" stroke-width="1"/><path id="e5lnhn3hohx43" d="M267.112000,83.664000L270.088000,82.864000C270.484021,82.758416,270.905799,82.815158,271.259837,83.021649C271.613874,83.228139,271.870922,83.567319,271.974000,83.964000L275.362000,96.700000C275.583318,97.525049,275.096765,98.373948,274.273000,98.600000L271.298000,99.400000C270.901851,99.505608,270.479943,99.448892,270.125746,99.242418C269.771548,99.035943,269.514303,98.696756,269.411000,98.300000L266.023000,85.556000C265.806751,84.733544,266.292205,83.890128,267.112000,83.664000Z" fill="rgb(202,25,17)" fill-rule="evenodd" stroke="none" stroke-width="1"/></g><g id="e5lnhn3hohx44" transform="matrix(0.93519288124899 0.35413877909826 -0.35413877909826 0.93519288124899 60.65600338415902 -93.15099132550488)"><path id="e5lnhn3hohx45" d="M280.220000,79.574000L289.461000,79.574000C290.314605,79.578408,291.003322,80.273390,291,81.127000L291,117.600000C291.002767,118.453997,290.312995,119.148692,289.459000,119.152000L280.220000,119.152000C279.809974,119.150412,279.417374,118.986005,279.128567,118.694948C278.839760,118.403891,278.678406,118.010026,278.680000,117.600000L278.680000,81.127000C278.678140,80.716801,278.839377,80.322679,279.128212,80.031406C279.417047,79.740132,279.809800,79.575588,280.220000,79.574000Z" fill="rgb(255,255,255)" fill-rule="evenodd" stroke="none" stroke-width="1"/><path id="e5lnhn3hohx46" d="M283.300000,82.679000L286.380000,82.679000C286.790026,82.680588,287.182626,82.844995,287.471433,83.136052C287.760240,83.427109,287.921594,83.820974,287.920000,84.231000L287.920000,97.425000C287.921594,97.835026,287.760240,98.228891,287.471433,98.519948C287.182626,98.811005,286.790026,98.975412,286.380000,98.977000L283.300000,98.977000C282.446005,98.973692,281.756233,98.278997,281.759000,97.425000L281.759000,84.231000C281.756233,83.377003,282.446005,82.682308,283.300000,82.679000Z" fill="rgb(56,37,36)" fill-rule="evenodd" stroke="none" stroke-width="1"/></g><path id="e5lnhn3hohx47" d="M297,137C297,137,295.070000,141.107000,295,144L276.055000,141.784000C276.606849,139.409556,275.689351,136.934829,273.723000,135.494000L269.747000,135.061000C267.547000,134.821000,266.761000,133.196000,267,131C267.130000,129.806000,266.987000,128.456000,267.900000,127.818000L267.523000,127.777000C265.323000,127.537000,264.761000,126.196000,265,124C265.130000,122.806000,264.763000,121.172000,265.677000,120.534000L265.299000,120.493000C263.099000,120.254000,262.761000,118.193000,262.999000,116C263.237000,113.807000,263.969000,112.300000,266.165000,112.540000L267.711000,112.709000C267.433000,112.084000,267.920000,110.728000,267.999000,110C268.238000,107.800000,269.590000,106.878000,271.786000,107.117000L287,110C288.272971,109.316389,289.316389,108.272971,290,107C290.683611,105.727029,305.400000,107.084000,297,137Z" fill="rgb(249,161,123)" fill-rule="evenodd" stroke="none" stroke-width="1"/><path id="e5lnhn3hohx48" d="M265,120C265.500000,119.710000,282,123,282,123L265,122C265,122,264.500000,120.290000,265,120ZM268,127C268.500000,126.710000,281,130,281,130L268,129C268,129,267.500000,127.290000,268,127ZM269,112C269.500000,111.710000,282,116,282,116L269,114C269,114,268.500000,112.290000,269,112Z" fill="rgb(212,137,105)" fill-rule="evenodd" stroke="none" stroke-width="1"/></g><path id="e5lnhn3hohx49" d="M298.119000,154.129000L299.119000,143.142000C299.119000,143.142000,278.274000,139.406000,273.077000,140.142000L272.077000,151.129000Z" fill="rgb(92,178,191)" fill-rule="evenodd" stroke="none" stroke-width="1"/><path id="e5lnhn3hohx50" d="M271.327000,147.546000C271.327000,147.546000,295.067000,150.730000,298.636000,152.192000C298.317000,153.166000,306.536000,223.558000,278.183000,254.985000C278.183000,254.985000,266.313000,263.228000,260.904000,252.265000C260.900000,252.265000,250.244000,229.500000,271.327000,147.546000Z" fill="rgb(255,255,255)" fill-rule="evenodd" stroke="none" stroke-width="1"/><path id="e5lnhn3hohx51" d="M255.049000,160.122000C255.049000,160.122000,250.549000,176.122000,239.023000,186.090000C239.023000,186.090000,254.470000,177.800000,255.049000,160.122000Z" fill="rgb(221,221,221)" fill-rule="evenodd" stroke="none" stroke-width="1"/><path id="e5lnhn3hohx52" d="M128.068000,187C128.068000,187,125.715000,224.913000,127.068000,228C128.421000,231.087000,131.483000,285.425000,136.048000,290L124.077000,290L120.087000,217Z" fill="rgb(221,221,221)" fill-rule="evenodd" stroke="none" stroke-width="1"/><path id="e5lnhn3hohx53" d="M144,142C144,142,114.039000,154.884000,112.055000,157.057000C110.071000,159.230000,87.915000,213.342000,90.156000,232C90.156000,232,93.294000,267.910000,99.135000,290L128.068000,290C128.068000,290,126.192000,227.430000,124.077000,222L131.061000,178Z" fill="rgb(255,255,255)" fill-rule="evenodd" stroke="none" stroke-width="1"/><path id="e5lnhn3hohx54" d="M114.100000,160C114.100000,160,118.578000,176.021000,130.064000,186C130.064000,186,114.677000,177.700000,114.100000,160Z" fill="rgb(221,221,221)" fill-rule="evenodd" stroke="none" stroke-width="1"/></g><script><![CDATA[!function(t,n){"object"==typeof exports&&"undefined"!=typeof module?module.exports=n():"function"==typeof define&&define.amd?define(n):(t=t||self).__SVGATOR_PLAYER__=n()}(this,(function(){"use strict";function t(n){return(t="function"==typeof Symbol&&"symbol"==typeof Symbol.iterator?function(t){return typeof t}:function(t){return t&&"function"==typeof Symbol&&t.constructor===Symbol&&t!==Symbol.prototype?"symbol":typeof t})(n)}function n(t,n){if(!(t instanceof n))throw new TypeError("Cannot call a class as a function")}function r(t,n){for(var r=0;r<n.length;r++){var e=n[r];e.enumerable=e.enumerable||!1,e.configurable=!0,"value"in e&&(e.writable=!0),Object.defineProperty(t,e.key,e)}}function e(t,n,e){return n&&r(t.prototype,n),e&&r(t,e),t}var i=1e-5,u=Math.abs;function o(t){return t}function a(t,n,r){var e=1-r;return 3*r*e*(t*e+n*r)+r*r*r}function l(){var t=arguments.length>0&&void 0!==arguments[0]?arguments[0]:0,n=arguments.length>1&&void 0!==arguments[1]?arguments[1]:0,r=arguments.length>2&&void 0!==arguments[2]?arguments[2]:1,e=arguments.length>3&&void 0!==arguments[3]?arguments[3]:1;return t<0||t>1||r<0||r>1?null:u(t-n)<=i&&u(r-e)<=i?o:function(o){if(o<=0)return t>0?o*n/t:0===n&&r>0?o*e/r:0;if(o>=1)return r<1?1+(o-1)*(e-1)/(r-1):1===r&&t<1?1+(o-1)*(n-1)/(t-1):1;for(var l,f=0,s=1;f<s;){var c=a(t,r,l=(f+s)/2);if(u(o-c)<i)break;c<o?f=l:s=l}return a(n,e,l)}}function f(){return 1}function s(t){return 1===t?1:0}function c(){var t=arguments.length>0&&void 0!==arguments[0]?arguments[0]:1,n=arguments.length>1&&void 0!==arguments[1]?arguments[1]:0;if(1===t){if(0===n)return s;if(1===n)return f}var r=1/t;return function(t){return t>=1?1:(t+=n*r)-t%r}}function v(t){var n=arguments.length>1&&void 0!==arguments[1]?arguments[1]:2;if(Number.isInteger(t))return t;var r=Math.pow(10,n);return Math.round(t*r)/r}var h=Math.PI/180;function y(t,n,r){return t>=.5?r:n}function d(t,n,r){return 0===t||n===r?n:t*(r-n)+n}function g(t,n,r){var e=d(t,n,r);return e<=0?0:e}function m(t,n,r){return 0===t?n:1===t?r:{x:d(t,n.x,r.x),y:d(t,n.y,r.y)}}function p(t,n,r){return 0===t?n:1===t?r:{x:g(t,n.x,r.x),y:g(t,n.y,r.y)}}function b(t,n,r){var e=function(t,n,r){return Math.round(d(t,n,r))}(t,n,r);return e<=0?0:e>=255?255:e}function w(t,n,r){return 0===t?n:1===t?r:{r:b(t,n.r,r.r),g:b(t,n.g,r.g),b:b(t,n.b,r.b),a:d(t,null==n.a?1:n.a,null==r.a?1:r.a)}}function A(t,n,r){if(0===t)return n;if(1===t)return r;var e=n.length;if(e!==r.length)return y(t,n,r);for(var i=[],u=0;u<e;u++)i.push(w(t,n[u],r[u]));return i}function x(t,n,r){var e=n.length;if(e!==r.length)return y(t,n,r);for(var i=new Array(e),u=0;u<e;u++)i[u]=d(t,n[u],r[u]);return i}function k(t,n){for(var r=[],e=0;e<t;e++)r.push(n);return r}function S(t,n){if(--n<=0)return t;var r=(t=Object.assign([],t)).length;do{for(var e=0;e<r;e++)t.push(t[e])}while(--n>0);return t}var _=6,M=/\.0+$/g;function I(t){return Number.isInteger(t)?t+"":t.toFixed(_).replace(M,"")}function E(t){var n=arguments.length>1&&void 0!==arguments[1]?arguments[1]:" ";return t&&t.length?t.map(I).join(n):""}function F(t){return I(t.x)+","+I(t.y)}function B(t){return t?null==t.a||t.a>=1?"rgb("+t.r+","+t.g+","+t.b+")":"rgba("+t.r+","+t.g+","+t.b+","+t.a+")":"transparent"}var j={f:null,i:p,u:function(t,n){return function(r){var e=n(r);t.setAttribute("rx",I(e.x)),t.setAttribute("ry",I(e.y))}}},q={f:null,i:function(t,n,r){return 0===t?n:1===t?r:{width:g(t,n.width,r.width),height:g(t,n.height,r.height)}},u:function(t,n){return function(r){var e=n(r);t.setAttribute("width",I(e.width)),t.setAttribute("height",I(e.height))}}},P=Math.sin,O=Math.cos,z=Math.acos,L=Math.asin,C=Math.tan,R=Math.atan2,T=Math.PI/180,V=180/Math.PI,D=Math.sqrt,N=function(){function t(){var r=arguments.length>0&&void 0!==arguments[0]?arguments[0]:1,e=arguments.length>1&&void 0!==arguments[1]?arguments[1]:0,i=arguments.length>2&&void 0!==arguments[2]?arguments[2]:0,u=arguments.length>3&&void 0!==arguments[3]?arguments[3]:1,o=arguments.length>4&&void 0!==arguments[4]?arguments[4]:0,a=arguments.length>5&&void 0!==arguments[5]?arguments[5]:0;n(this,t),this.m=[r,e,i,u,o,a],this.i=null,this.w=null,this.s=null}return e(t,[{key:"point",value:function(t,n){var r=this.m;return{x:r[0]*t+r[2]*n+r[4],y:r[1]*t+r[3]*n+r[5]}}},{key:"translateSelf",value:function(){var t=arguments.length>0&&void 0!==arguments[0]?arguments[0]:0,n=arguments.length>1&&void 0!==arguments[1]?arguments[1]:0;if(!t&&!n)return this;var r=this.m;return r[4]+=r[0]*t+r[2]*n,r[5]+=r[1]*t+r[3]*n,this.w=this.s=this.i=null,this}},{key:"rotateSelf",value:function(){var t=arguments.length>0&&void 0!==arguments[0]?arguments[0]:0;if(t%=360){var n=P(t*=T),r=O(t),e=this.m,i=e[0],u=e[1];e[0]=i*r+e[2]*n,e[1]=u*r+e[3]*n,e[2]=e[2]*r-i*n,e[3]=e[3]*r-u*n,this.w=this.s=this.i=null}return this}},{key:"scaleSelf",value:function(){var t=arguments.length>0&&void 0!==arguments[0]?arguments[0]:1,n=arguments.length>1&&void 0!==arguments[1]?arguments[1]:1;if(1!==t||1!==n){var r=this.m;r[0]*=t,r[1]*=t,r[2]*=n,r[3]*=n,this.w=this.s=this.i=null}return this}},{key:"skewSelf",value:function(t,n){if(n%=360,(t%=360)||n){var r=this.m,e=r[0],i=r[1],u=r[2],o=r[3];t&&(t=C(t*T),r[2]+=e*t,r[3]+=i*t),n&&(n=C(n*T),r[0]+=u*n,r[1]+=o*n),this.w=this.s=this.i=null}return this}},{key:"resetSelf",value:function(){var t=arguments.length>0&&void 0!==arguments[0]?arguments[0]:1,n=arguments.length>1&&void 0!==arguments[1]?arguments[1]:0,r=arguments.length>2&&void 0!==arguments[2]?arguments[2]:0,e=arguments.length>3&&void 0!==arguments[3]?arguments[3]:1,i=arguments.length>4&&void 0!==arguments[4]?arguments[4]:0,u=arguments.length>5&&void 0!==arguments[5]?arguments[5]:0,o=this.m;return o[0]=t,o[1]=n,o[2]=r,o[3]=e,o[4]=i,o[5]=u,this.w=this.s=this.i=null,this}},{key:"recomposeSelf",value:function(){var t=arguments.length>0&&void 0!==arguments[0]?arguments[0]:null,n=arguments.length>1&&void 0!==arguments[1]?arguments[1]:null,r=arguments.length>2&&void 0!==arguments[2]?arguments[2]:null,e=arguments.length>3&&void 0!==arguments[3]?arguments[3]:null,i=arguments.length>4&&void 0!==arguments[4]?arguments[4]:null;return this.isIdentity||this.resetSelf(),t&&(t.x||t.y)&&this.translateSelf(t.x,t.y),n&&this.rotateSelf(n),r&&(r.x&&this.skewSelf(r.x,0),r.y&&this.skewSelf(0,r.y)),!e||1===e.x&&1===e.y||this.scaleSelf(e.x,e.y),i&&(i.x||i.y)&&this.translateSelf(i.x,i.y),this}},{key:"decompose",value:function(){var t=arguments.length>0&&void 0!==arguments[0]?arguments[0]:0,n=arguments.length>1&&void 0!==arguments[1]?arguments[1]:0,r=this.m,e=r[0]*r[0]+r[1]*r[1],i=[[r[0],r[1]],[r[2],r[3]]],u=D(e);if(0===u)return{origin:{x:r[4],y:r[5]},translate:{x:t,y:n},scale:{x:0,y:0},skew:{x:0,y:0},rotate:0};i[0][0]/=u,i[0][1]/=u;var o=r[0]*r[3]-r[1]*r[2]<0;o&&(u=-u);var a=i[0][0]*i[1][0]+i[0][1]*i[1][1];i[1][0]-=i[0][0]*a,i[1][1]-=i[0][1]*a;var l=D(i[1][0]*i[1][0]+i[1][1]*i[1][1]);if(0===l)return{origin:{x:r[4],y:r[5]},translate:{x:t,y:n},scale:{x:u,y:0},skew:{x:0,y:0},rotate:0};i[1][0]/=l,i[1][1]/=l,a/=l;var f=0;return i[1][1]<0?(f=z(i[1][1])*V,i[0][1]<0&&(f=360-f)):f=L(i[0][1])*V,o&&(f=-f),a=R(a,D(i[0][0]*i[0][0]+i[0][1]*i[0][1]))*V,{origin:{x:r[4],y:r[5]},translate:{x:t,y:n},scale:{x:u,y:l},skew:{x:a,y:0},rotate:f}}},{key:"toString",value:function(){return null===this.s&&(this.s="matrix("+this.m.map($).join(" ")+")"),this.s}},{key:"determinant",get:function(){var t=this.m;return t[0]*t[3]-t[1]*t[2]}},{key:"isIdentity",get:function(){if(null===this.i){var t=this.m;this.i=1===t[0]&&0===t[1]&&0===t[2]&&1===t[3]&&0===t[4]&&0===t[5]}return this.i}}]),t}(),G=/\.0+$/;function $(t){return Number.isInteger(t)?t:t.toFixed(14).replace(G,"")}Object.freeze({M:2,L:2,Z:0,H:1,V:1,C:6,Q:4,T:2,S:4,A:7});function H(t,n,r){return t+(n-t)*r}function Q(t,n,r){var e=arguments.length>3&&void 0!==arguments[3]&&arguments[3],i={x:H(t.x,n.x,r),y:H(t.y,n.y,r)};return e&&(i.a=function(t,n){return Math.atan2(n.y-t.y,n.x-t.x)}(t,n)),i}function U(t,n,r,e){var i=1-e;return i*i*t+2*i*e*n+e*e*r}function Y(t,n,r,e){return 2*(1-e)*(n-t)+2*e*(r-n)}function Z(t,n,r,e){var i=arguments.length>4&&void 0!==arguments[4]&&arguments[4],u={x:U(t.x,n.x,r.x,e),y:U(t.y,n.y,r.y,e)};return i&&(u.a=function(t,n,r,e){return Math.atan2(Y(t.y,n.y,r.y,e),Y(t.x,n.x,r.x,e))}(t,n,r,e)),u}function J(t,n,r,e,i){var u=i*i;return i*u*(e-t+3*(n-r))+3*u*(t+r-2*n)+3*i*(n-t)+t}function K(t,n,r,e,i){var u=1-i;return 3*(u*u*(n-t)+2*u*i*(r-n)+i*i*(e-r))}function W(t,n,r,e,i){var u=arguments.length>5&&void 0!==arguments[5]&&arguments[5],o={x:J(t.x,n.x,r.x,e.x,i),y:J(t.y,n.y,r.y,e.y,i)};return u&&(o.a=function(t,n,r,e,i){return Math.atan2(K(t.y,n.y,r.y,e.y,i),K(t.x,n.x,r.x,e.x,i))}(t,n,r,e,i)),o}function X(t,n,r){var e,i=arguments.length>3&&void 0!==arguments[3]&&arguments[3];if(nt(n)){if(null!=(e=r).start&&!nt(e))return Z(n,r.start,r,t,i)}else if(nt(r)){if(n.end)return Z(n,n.end,r,t,i)}else{if(n.end)return r.start?W(n,n.end,r.start,r,t,i):Z(n,n.end,r,t,i);if(r.start)return Z(n,r.start,r,t,i)}return Q(n,r,t,i)}function tt(t,n,r){var e=X(t,n,r,!0);return e.a=function(t){return arguments.length>1&&void 0!==arguments[1]&&arguments[1]?t+Math.PI:t}(e.a)/h,e}function nt(t){return!t.type||"corner"===t.type}var rt=new N;var et={f:function(t){return t?t.join(" "):""},i:function(n,r,e){if(0===n)return r;if(1===n)return e;var i=r.length;if(i!==e.length)return y(n,r,e);for(var u,o=new Array(i),a=0;a<i;a++){if((u=t(r[a]))!==t(e[a]))return y(n,r,e);if("number"===u)o[a]=d(n,r[a],e[a]);else{if(r[a]!==e[a])return y(n,r,e);o[a]=r[a]}}return o}},it={f:null,i:x,u:function(t,n){return function(r){var e=n(r);t.setAttribute("x1",I(e[0])),t.setAttribute("y1",I(e[1])),t.setAttribute("x2",I(e[2])),t.setAttribute("y2",I(e[3]))}}},ut={f:I,i:d},ot={f:I,i:function(t,n,r){var e=d(t,n,r);return e<=0?0:e>=1?1:e}},at={f:E,i:function(t,n,r){var e,i,u,o=n.length,a=r.length;if(o!==a)if(0===o)n=k(o=a,0);else if(0===a)a=o,r=k(o,0);else{var l=(u=(e=o)*(i=a)/function(t,n){for(var r;n;)r=n,n=t%n,t=r;return t||1}(e,i))<0?-u:u;n=S(n,Math.floor(l/o)),r=S(r,Math.floor(l/a)),o=a=l}for(var f=[],s=0;s<o;s++)f.push(v(g(t,n[s],r[s]),6));return f}};function lt(t,n,r,e,i,u,o,a){return n=function(t,n,r){for(var e,i,u,o=t.length-1,a={},l=0;l<=o;l++)(e=t[l]).e&&(e.e=n(e.e)),e.v&&"g"===(i=e.v).t&&i.r&&(u=r.getElementById(i.r))&&(a[i.r]=u.querySelectorAll("stop"));return a}(t,e,a),function(e){var i,u=r(e,t,ft);return u?"c"===u.t?B(u.v):"g"===u.t?(n[u.r]&&function(t,n){for(var r=0,e=t.length;r<e;r++)t[r].setAttribute("stop-color",B(n[r]))}(n[u.r],u.v),(i=u.r)?"url(#"+i+")":"none"):"none":"none"}}function ft(t,n,r){if(0===t)return n;if(1===t)return r;if(n&&r){var e=n.t;if(e===r.t)switch(n.t){case"c":return{t:e,v:w(t,n.v,r.v)};case"g":if(n.r===r.r)return{t:e,v:A(t,n.v,r.v),r:n.r}}}return y(t,n,r)}var st={blur:p,brightness:g,contrast:g,"drop-shadow":function(t,n,r){return 0===t?n:1===t?r:{blur:p(t,n.blur,r.blur),offset:m(t,n.offset,r.offset),color:w(t,n.color,r.color)}},grayscale:g,"hue-rotate":d,invert:g,opacity:g,saturate:g,sepia:g};function ct(t,n,r){if(0===t)return n;if(1===t)return r;var e=n.length;if(e!==r.length)return y(t,n,r);for(var i,u=[],o=0;o<e;o++){if(n[o].type!==r[o].type)return n;if(!(i=st[n[o].type]))return y(t,n,r);u.push({type:n.type,value:i(t,n[o].value,r[o].value)})}return u}var vt={blur:function(t){return t?function(n){t.setAttribute("stdDeviation",F(n))}:null},brightness:function(t,n,r){return(t=yt(r,n))?function(n){n=I(n),t.map((function(t){return t.setAttribute("slope",n)}))}:null},contrast:function(t,n,r){return(t=yt(r,n))?function(n){var r=I((1-n)/2);n=I(n),t.map((function(t){t.setAttribute("slope",n),t.setAttribute("intercept",r)}))}:null},"drop-shadow":function(t,n,r){var e=r.getElementById(n+"-blur");if(!e)return null;var i=r.getElementById(n+"-offset");if(!i)return null;var u=r.getElementById(n+"-flood");return u?function(t){e.setAttribute("stdDeviation",F(t.blur)),i.setAttribute("dx",I(t.offset.x)),i.setAttribute("dy",I(t.offset.y)),u.setAttribute("flood-color",B(t.color))}:null},grayscale:function(t){return t?function(n){t.setAttribute("values",E(function(t){return[.2126+.7874*(t=1-t),.7152-.7152*t,.0722-.0722*t,0,0,.2126-.2126*t,.7152+.2848*t,.0722-.0722*t,0,0,.2126-.2126*t,.7152-.7152*t,.0722+.9278*t,0,0,0,0,0,1,0]}(n)))}:null},"hue-rotate":function(t){return t?function(n){return t.setAttribute("values",I(n))}:null},invert:function(t,n,r){return(t=yt(r,n))?function(n){n=I(n)+" "+I(1-n),t.map((function(t){return t.setAttribute("tableValues",n)}))}:null},opacity:function(t,n,r){return(t=r.getElementById(n+"-A"))?function(n){return t.setAttribute("tableValues","0 "+I(n))}:null},saturate:function(t){return t?function(n){return t.setAttribute("values",I(n))}:null},sepia:function(t){return t?function(n){return t.setAttribute("values",E(function(t){return[.393+.607*(t=1-t),.769-.769*t,.189-.189*t,0,0,.349-.349*t,.686+.314*t,.168-.168*t,0,0,.272-.272*t,.534-.534*t,.131+.869*t,0,0,0,0,0,1,0]}(n)))}:null}};var ht=["R","G","B"];function yt(t,n){var r=ht.map((function(r){return t.getElementById(n+"-"+r)||null}));return-1!==r.indexOf(null)?null:r}var dt={fill:lt,"fill-opacity":ot,stroke:lt,"stroke-opacity":ot,"stroke-width":ut,"stroke-dashoffset":{f:I,i:d},"stroke-dasharray":at,opacity:ot,transform:function(n,r,e,i){if(!(n=function(n,r){if(!n||"object"!==t(n))return null;var e=!1;for(var i in n)n.hasOwnProperty(i)&&(n[i]&&n[i].length?(n[i].forEach((function(t){t.e&&(t.e=r(t.e))})),e=!0):delete n[i]);return e?n:null}(n,i)))return null;var u=function(t,i,u){var o=arguments.length>3&&void 0!==arguments[3]?arguments[3]:null;return n[t]?e(i,n[t],u):r&&r[t]?r[t]:o};return r&&r.a&&n.o?function(t){var r=e(t,n.o,tt);return rt.recomposeSelf(r,u("r",t,d,0)+r.a,u("k",t,m),u("s",t,m),u("t",t,m)).toString()}:function(t){return rt.recomposeSelf(u("o",t,X,null),u("r",t,d,0),u("k",t,m),u("s",t,m),u("t",t,m)).toString()}},"#filter":function(t,n,r,e,i,u,o,a){if(!n.items||!t||!t.length)return null;var l=function(t,n){var r=(t=t.map((function(t){return t&&vt[t[0]]?(n.getElementById(t[1]),vt[t[0]](n.getElementById(t[1]),t[1],n)):null}))).length;return function(n){for(var e=0;e<r;e++)t[e]&&t[e](n[e].value)}}(n.items,a);return l?(t=function(t,n){return t.map((function(t){return t.e=n(t.e),t}))}(t,e),function(n){l(r(n,t,ct))}):null},"#line":it,points:{f:E,i:x},d:et,r:ut,"#size":q,"#radius":j,_:function(t,n){if(Array.isArray(t))for(var r=0;r<t.length;r++)this[t[r]]=n;else this[t]=n}},gt=function(){function t(r){n(this,t),this.list=r,this.length=r.length}return e(t,[{key:"setAttribute",value:function(t,n){for(var r=this.list,e=0;e<this.length;e++)r[e].setAttribute(t,n)}},{key:"removeAttribute",value:function(t){for(var n=this.list,r=0;r<this.length;r++)n[r].removeAttribute(t)}},{key:"style",value:function(t,n){for(var r=this.list,e=0;e<this.length;e++)r[e].style[t]=n}}]),t}(),mt=/-./g,pt=function(t,n){return n.toUpperCase()};function bt(t){return"function"==typeof t?t:y}function wt(t){return t?"function"==typeof t?t:Array.isArray(t)?function(t){var n=arguments.length>1&&void 0!==arguments[1]?arguments[1]:o;if(!Array.isArray(t))return n;switch(t.length){case 1:return c(t[0])||n;case 2:return c(t[0],t[1])||n;case 4:return l(t[0],t[1],t[2],t[3])||n}return n}(t,null):function(t,n){var r=arguments.length>2&&void 0!==arguments[2]?arguments[2]:o;switch(t){case"linear":return o;case"steps":return c(n.steps||1,n.jump||0)||r;case"bezier":case"cubic-bezier":return l(n.x1||0,n.y1||0,n.x2||0,n.y2||0)||r}return r}(t.type,t.value,null):null}function At(t,n,r){var e=arguments.length>3&&void 0!==arguments[3]&&arguments[3],i=n.length-1;if(t<=n[0].t)return e?[0,0,n[0].v]:n[0].v;if(t>=n[i].t)return e?[i,1,n[i].v]:n[i].v;var u,o=n[0],a=null;for(u=1;u<=i;u++){if(!(t>n[u].t)){a=n[u];break}o=n[u]}return null==a?e?[i,1,n[i].v]:n[i].v:o.t===a.t?e?[u,1,a.v]:a.v:(t=(t-o.t)/(a.t-o.t),o.e&&(t=o.e(t)),e?[u,t,r(t,o.v,a.v)]:r(t,o.v,a.v))}function xt(t,n){var r=arguments.length>2&&void 0!==arguments[2]?arguments[2]:null;return t&&t.length?"function"!=typeof n?null:("function"!=typeof r&&(r=null),function(e){var i=At(e,t,n);return null!=i&&r&&(i=r(i)),i}):null}function kt(t,n){return t.t-n.t}function St(n,r,e,i,u){var o,a="@"===e[0],l="#"===e[0],f=dt[e],s=y;switch(a?(o=e.substr(1),e=o.replace(mt,pt)):l&&(e=e.substr(1)),t(f)){case"function":if(s=f(i,u,At,wt,e,a,r,n),l)return s;break;case"string":s=xt(i,bt(f));break;case"object":if((s=xt(i,bt(f.i),f.f))&&"function"==typeof f.u)return f.u(r,s,e,a,n)}return s?function(t,n,r){if(arguments.length>3&&void 0!==arguments[3]&&arguments[3])return t instanceof gt?function(e){return t.style(n,r(e))}:function(e){return t.style[n]=r(e)};if(Array.isArray(n)){var e=n.length;return function(i){var u=r(i);if(null==u)for(var o=0;o<e;o++)t[o].removeAttribute(n);else for(var a=0;a<e;a++)t[a].setAttribute(n,u)}}return function(e){var i=r(e);null==i?t.removeAttribute(n):t.setAttribute(n,i)}}(r,e,s,a):null}function _t(n,r,e,i){if(!i||"object"!==t(i))return null;var u=null,o=null;return Array.isArray(i)?o=function(t){if(!t||!t.length)return null;for(var n=0;n<t.length;n++)t[n].e&&(t[n].e=wt(t[n].e));return t.sort(kt)}(i):(o=i.keys,u=i.data||null),o?St(n,r,e,o,u):null}function Mt(t,n,r){if(!r)return null;var e=[];for(var i in r)if(r.hasOwnProperty(i)){var u=_t(t,n,i,r[i]);u&&e.push(u)}return e.length?e:null}function It(t,n){if(!n.duration||n.duration<0)return null;var r=function(t,n){if(!n)return null;var r=[];if(Array.isArray(n))for(var e=n.length,i=0;i<e;i++){var u=n[i];if(2===u.length){var o=null;if("string"==typeof u[0])o=t.getElementById(u[0]);else if(Array.isArray(u[0])){o=[];for(var a=0;a<u[0].length;a++)if("string"==typeof u[0][a]){var l=t.getElementById(u[0][a]);l&&o.push(l)}o=o.length?1===o.length?o[0]:new gt(o):null}if(o){var f=Mt(t,o,u[1]);f&&(r=r.concat(f))}}}else for(var s in n)if(n.hasOwnProperty(s)){var c=t.getElementById(s);if(c){var v=Mt(t,c,n[s]);v&&(r=r.concat(v))}}return r.length?r:null}(t,n.elements);return r?function(t,n){var r=arguments.length>2&&void 0!==arguments[2]?arguments[2]:1/0,e=arguments.length>3&&void 0!==arguments[3]?arguments[3]:1,i=arguments.length>4&&void 0!==arguments[4]&&arguments[4],u=arguments.length>5&&void 0!==arguments[5]?arguments[5]:1,o=t.length,a=e>0?n:0;i&&r%2==0&&(a=n-a);var l=null;return function(f,s){var c=f%n,v=1+(f-c)/n;s*=e,i&&v%2==0&&(s=-s);var h=!1;if(v>r)c=a,h=!0,-1===u&&(c=e>0?0:n);else if(s<0&&(c=n-c),c===l)return!1;l=c;for(var y=0;y<o;y++)t[y](c);return h}}(r,n.duration,n.iterations||1/0,n.direction||1,!!n.alternate,n.fill||1):null}var Et=function(){function t(r){var e=arguments.length>1&&void 0!==arguments[1]?arguments[1]:{};n(this,t),this._id=0,this._running=!1,this._animations=r,this.direction=e.direction||1,this.speed=e.speed||1,this.fps=e.fps||100,this.offset=e.offset||0}return e(t,[{key:"_start",value:function(){var t=this,n=arguments.length>0&&void 0!==arguments[0]?arguments[0]:0,r=-1/0,e=null,i={},u=function u(o){t._running=!0,null==e&&(e=o);var a=Math.round((o-e+n)*t.speed),l=t.fps?1e3/t.fps:0;if(a>r+l){t.offset=a,r=a;for(var f=t._animations,s=f.length,c=0,v=0;v<s;v++)i[v]?c++:(i[v]=f[v](a,t.direction),i[v]&&c++);if(c===s)return void t._stop()}t._id=window.requestAnimationFrame(u)};this._id=window.requestAnimationFrame(u)}},{key:"_stop",value:function(){this._id&&window.cancelAnimationFrame(this._id),this._running=!1}},{key:"play",value:function(){this._running||this._start(this.offset)}},{key:"stop",value:function(){this._stop(),this.offset=0;var t=this.direction,n=this._animations;requestAnimationFrame((function(){for(var r=0;r<n.length;r++)n[r](0,t)}))}},{key:"restart",value:function(){this._stop(),this.offset=0,this._start()}},{key:"pause",value:function(){this._stop()}},{key:"reverse",value:function(){this.direction=-this.direction}}],[{key:"build",value:function(n){if(!(n=function(t){if(!t||!t.root||!Array.isArray(t.animations))return null;var n=window.document.getElementById(t.root);if(!n)return null;var r=t.animations.map((function(t){return It(n,t)})).filter((function(t){return!!t}));return r.length?{element:n,animations:r,options:t.options||void 0}:null}(n)))return null;var r=n.element,e=n.options||{},i=new t(n.animations,n.options);return function(t,n,r){var e=arguments.length>3&&void 0!==arguments[3]?arguments[3]:null;if("click"===r){return void n.addEventListener("click",(function r(){n.removeEventListener("click",r),t.play()}))}if("hover"===r)return n.addEventListener("mouseenter",(function(){return t.play()})),void n.addEventListener("mouseleave","freeze"===e?function(){return t.pause()}:function(){return t.stop()});t.play()}(i,r,e.start,e.hover),i}}]),t}();return function(){for(var t=0,n=["ms","moz","webkit","o"],r=0;r<n.length&&!window.requestAnimationFrame;++r)window.requestAnimationFrame=window[n[r]+"RequestAnimationFrame"],window.cancelAnimationFrame=window[n[r]+"CancelAnimationFrame"]||window[n[r]+"CancelRequestAnimationFrame"];window.requestAnimationFrame||(window.requestAnimationFrame=function(n){var r=Date.now(),e=Math.max(0,16-(r-t)),i=window.setTimeout((function(){n(r+e)}),e);return t=r+e,i},window.cancelAnimationFrame=window.clearTimeout)}(),Et}));
__SVGATOR_PLAYER__.build({"root":"e5lnhn3hohx1","animations":[{"duration":6000,"direction":1,"iterations":0,"fill":1,"alternate":false,"elements":{"e5lnhn3hohx11":{"transform":{"keys":{"o":[{"t":0,"v":{"x":0,"y":0,"type":"corner"}},{"t":140,"v":{"x":0,"y":4,"type":"corner"}},{"t":280,"v":{"x":0,"y":0,"type":"corner"}},{"t":420,"v":{"x":0,"y":4,"type":"corner"}},{"t":560,"v":{"x":0,"y":0,"type":"corner"}}]}}},"e5lnhn3hohx30":{"transform":{"keys":{"o":[{"t":0,"v":{"x":0,"y":0,"type":"corner"}},{"t":1500,"v":{"x":0,"y":2,"type":"corner"}},{"t":3000,"v":{"x":0,"y":0,"type":"corner"}},{"t":4500,"v":{"x":0,"y":2,"type":"corner"}},{"t":6000,"v":{"x":0,"y":0,"type":"corner"}}]}}},"e5lnhn3hohx34":{"transform":{"data":{"o":{"x":286.82442666,"y":142,"type":"corner"},"t":{"x":-286.82442666,"y":-142}},"keys":{"r":[{"t":300,"v":0},{"t":600,"v":-9.76108836141567},{"t":900,"v":0},{"t":4600,"v":0},{"t":4900,"v":-9.76108836141567},{"t":5200,"v":0}]}}},"e5lnhn3hohx35":{"transform":{"data":{"o":{"x":286.710569825,"y":117.70063916499998,"type":"corner"},"t":{"x":-275.53222,"y":-120.998358}},"keys":{"r":[{"t":900,"v":78.66279845008538},{"t":1200,"v":9.281377512558954},{"t":4600,"v":9.281377512558954},{"t":4900,"v":78.66279845008538}]}}},"e5lnhn3hohx38":{"transform":{"data":{"o":{"x":286.04701160499974,"y":119.25873346,"type":"corner"},"t":{"x":-273.52702,"y":-121.963825}},"keys":{"r":[{"t":600,"v":49.70749597978426},{"t":900,"v":4.371854060055832},{"t":4900,"v":4.371854060055832},{"t":5200,"v":49.70749597978426}]}}},"e5lnhn3hohx41":{"transform":{"data":{"o":{"x":286.07119133500015,"y":118.567949885,"type":"corner"},"t":{"x":-278.428621,"y":-118}},"keys":{"r":[{"t":300,"v":34.98616962561741},{"t":600,"v":11.524642470985082},{"t":5200,"v":11.524642470985082},{"t":5500,"v":34.98616962561741}]}}}}}],"options":{"start":"load","hover":"freeze"}})]]></script></svg>