<svg xmlns="http://www.w3.org/2000/svg" width="236" height="30" viewBox="0 0 236 30">
  <defs>
    <style>
      .cls-1 {
        fill: #58595b;
        fill-rule: evenodd;
      }
    </style>
  </defs>
  <path id="logo" class="cls-1" d="M235.058,26.042v-13.2h-3.121V21.9l-6.863-9.059h-2.925v13.2h-3.442v-13.2h-3.121v13.2h-4.4a6.524,6.524,0,0,0,1.619-1.308V19.74h-3.142v3.866a5.312,5.312,0,0,1-2.7.625,3.763,3.763,0,0,1-2.791-1.2A4.365,4.365,0,0,1,203,19.841a4.319,4.319,0,0,1,1.224-3.209,4.065,4.065,0,0,1,3-1.218,4.662,4.662,0,0,1,1.713.312,6.2,6.2,0,0,1,1.733,1.137l1.619-2.354a7.581,7.581,0,0,0-5.232-1.993,7.065,7.065,0,0,0-5.143,2.095,6.972,6.972,0,0,0-2.133,5.191,7.367,7.367,0,0,0,.911,3.674,6.8,6.8,0,0,0,2.513,2.566h-8.968v-4.69l4.845-8.515H195.7l-3.022,5.235-3.024-5.235H186.27l4.843,8.515v4.69h-3.924l-5.663-13.2h-3.02l-5.686,13.2h-2.3v0.864h5.263l1.3-3.038h0l1.182-2.756h-0.007l1.762-4.088v0l0-.009,4.222,9.882,0,0.007h41.018V18.09l6.666,8.816H237V26.042h-1.941Zm-71.851,0v-13.2h-3.121V21.9l-6.867-9.059H150.3v13.2h-2.005l-5.661-13.2h-3.022l-5.684,13.2h-1.1l-4.945-6.983,5.566-6.221h-3.866l-5.28,5.776V12.837H121.18v13.2h-2.939l-2.922-4.167q2.657-.985,2.66-4.368a4.272,4.272,0,0,0-1.39-3.562q-1.392-1.109-4.653-1.109h-5.3v13.2H103.85V24.129H96.667v-2.92h6.263V18.535H96.667v-2.9h6.964v-2.8H93.546v13.2H89.263a3.918,3.918,0,0,0,1.62-3.361,3.481,3.481,0,0,0-1.1-2.739,7.145,7.145,0,0,0-3.091-1.481,9.888,9.888,0,0,1-2.539-.855,1.114,1.114,0,0,1-.553-0.975,1.215,1.215,0,0,1,.453-0.985,1.872,1.872,0,0,1,1.228-.374,6.166,6.166,0,0,1,3.765,1.388l1.582-2.293A7.532,7.532,0,0,0,88.182,13a8.634,8.634,0,0,0-2.8-.481A5.751,5.751,0,0,0,81.805,13.6a3.662,3.662,0,0,0-1.43,3.092,3.6,3.6,0,0,0,1.129,2.936,8.961,8.961,0,0,0,3.572,1.52,6.85,6.85,0,0,1,2.063.753,1.187,1.187,0,0,1,.522,1.009,1.2,1.2,0,0,1-.492,1.006,2.195,2.195,0,0,1-1.351.37A6.6,6.6,0,0,1,81.639,22.3l-1.862,2.295a8.158,8.158,0,0,0,2,1.45H79.056v0.864h30.7V15.534H112.1a3.826,3.826,0,0,1,2.1.423,1.781,1.781,0,0,1,.6,1.559,2.135,2.135,0,0,1-.58,1.66,3.339,3.339,0,0,1-2.181.524H110.1l4.915,7.2H124.3V22.921l1.4-1.57,4.108,5.554h7.081l1.3-3.038h0l1.181-2.756h-0.006l1.76-4.088,4.226,9.883h8.065V18.09l6.664,8.816h5.062V26.042h-1.941ZM44.633,24.129H42.656V15.575H44.4a4.894,4.894,0,0,1,3.533,1.119,4.238,4.238,0,0,1,1.151,3.188,4.14,4.14,0,0,1-1.151,3.16,4.615,4.615,0,0,1-3.295,1.087m27.6,1.912a1.757,1.757,0,0,0,.419-1.189,1.672,1.672,0,0,0-.511-1.217,1.76,1.76,0,0,0-3.012,1.229,1.734,1.734,0,0,0,.4,1.177H66.789l-2.921-4.167q2.658-.985,2.661-4.368a4.277,4.277,0,0,0-1.392-3.562q-1.389-1.109-4.652-1.109h-5.3v13.2H48.739q3.482-1.669,3.481-6.18a6.7,6.7,0,0,0-2-5.182,8.189,8.189,0,0,0-5.744-1.842H39.532L39.514,26.906H58.3V19.192L58.3,19.2V15.534h2.341a3.828,3.828,0,0,1,2.1.423,1.777,1.777,0,0,1,.6,1.559,2.123,2.123,0,0,1-.579,1.66,3.337,3.337,0,0,1-2.18.524H58.644l4.371,6.4,0.552,0.8H73.772V26.042H72.234ZM17.811,1.005S6.278,23.427,5.971,28.411s2.295,1.506,2.659.057,1.363-5.729,2.8-10.27c1.5-4.763,6.383-17.193,6.383-17.193m4.048,7.574s-7.986,16.629-8.1,20.292,1.715,1.067,1.952,0,0.878-4.224,1.833-7.578c1-3.518,4.319-12.714,4.319-12.714m2.407,6.942s-5.441,11.332-5.522,13.826,1.169,0.728,1.331,0,0.6-2.877,1.249-5.163c0.683-2.4,2.942-8.663,2.942-8.663m3.7,4.9H1V20.214H27.964v0.207Z"/>
</svg>
