<svg id="option" xmlns="http://www.w3.org/2000/svg" width="120" height="120" viewBox="0 0 120 120">
  <metadata><?xpacket begin="﻿" id="W5M0MpCehiHzreSzNTczkc9d"?>
<x:xmpmeta xmlns:x="adobe:ns:meta/" x:xmptk="Adobe XMP Core 5.6-c138 79.159824, 2016/09/14-01:09:01        ">
   <rdf:RDF xmlns:rdf="http://www.w3.org/1999/02/22-rdf-syntax-ns#">
      <rdf:Description rdf:about=""/>
   </rdf:RDF>
</x:xmpmeta>
                                                                                                    
                                                                                                    
                                                                                                    
                                                                                                    
                                                                                                    
                                                                                                    
                                                                                                    
                                                                                                    
                                                                                                    
                                                                                                    
                                                                                                    
                                                                                                    
                                                                                                    
                                                                                                    
                                                                                                    
                                                                                                    
                                                                                                    
                                                                                                    
                                                                                                    
                                                                                                    
                           
<?xpacket end="w"?></metadata>
<defs>
    <style>
      .cls-1 {
        fill: #ec407a;
      }

      .cls-2 {
        fill: #fff;
        fill-rule: evenodd;
      }
    </style>
  </defs>
  <circle class="cls-1" cx="60" cy="60" r="60"/>
  <path id="_" data-name="" class="cls-2" d="M73.5,52.473A13.5,13.5,0,1,0,57,65.635v4.838H53.625A1.128,1.128,0,0,0,52.5,71.6v3.75a1.128,1.128,0,0,0,1.125,1.125H57v3.375a1.128,1.128,0,0,0,1.125,1.125h3.75A1.128,1.128,0,0,0,63,79.848V76.473h3.375A1.128,1.128,0,0,0,67.5,75.348V71.6a1.128,1.128,0,0,0-1.125-1.125H63V65.635A13.5,13.5,0,0,0,73.5,52.473Zm-21,0a7.5,7.5,0,1,1,7.5,7.5A7.51,7.51,0,0,1,52.5,52.473Z"/>
</svg>
