<svg id="option" xmlns="http://www.w3.org/2000/svg" width="120" height="120" viewBox="0 0 120 120">
  <metadata><?xpacket begin="﻿" id="W5M0MpCehiHzreSzNTczkc9d"?>
<x:xmpmeta xmlns:x="adobe:ns:meta/" x:xmptk="Adobe XMP Core 5.6-c138 79.159824, 2016/09/14-01:09:01        ">
   <rdf:RDF xmlns:rdf="http://www.w3.org/1999/02/22-rdf-syntax-ns#">
      <rdf:Description rdf:about=""/>
   </rdf:RDF>
</x:xmpmeta>
                                                                                                    
                                                                                                    
                                                                                                    
                                                                                                    
                                                                                                    
                                                                                                    
                                                                                                    
                                                                                                    
                                                                                                    
                                                                                                    
                                                                                                    
                                                                                                    
                                                                                                    
                                                                                                    
                                                                                                    
                                                                                                    
                                                                                                    
                                                                                                    
                                                                                                    
                                                                                                    
                           
<?xpacket end="w"?></metadata>
<defs>
    <style>
      .cls-1 {
        fill: #f5f5f5;
      }

      .cls-2 {
        fill: #5eb3bf;
        fill-rule: evenodd;
      }
    </style>
  </defs>
  <circle class="cls-1" cx="60" cy="60" r="60"/>
  <path id="_" data-name="" class="cls-2" d="M60,36.723a23.25,23.25,0,1,0,23.25,23.25A23.246,23.246,0,0,0,60,36.723Zm0,42a18.75,18.75,0,1,1,18.75-18.75A18.745,18.745,0,0,1,60,78.723Zm5.794-9.788a1.133,1.133,0,0,0,1.575-.244l1.763-2.428a1.124,1.124,0,0,0-.244-1.575l-6.263-4.556V46.848A1.128,1.128,0,0,0,61.5,45.723h-3a1.128,1.128,0,0,0-1.125,1.125V62.241a1.132,1.132,0,0,0,.459.909Z"/>
</svg>
