<svg id="option" xmlns="http://www.w3.org/2000/svg" width="120" height="120" viewBox="0 0 120 120">
  <metadata><?xpacket begin="﻿" id="W5M0MpCehiHzreSzNTczkc9d"?>
<x:xmpmeta xmlns:x="adobe:ns:meta/" x:xmptk="Adobe XMP Core 5.6-c138 79.159824, 2016/09/14-01:09:01        ">
   <rdf:RDF xmlns:rdf="http://www.w3.org/1999/02/22-rdf-syntax-ns#">
      <rdf:Description rdf:about=""/>
   </rdf:RDF>
</x:xmpmeta>
                                                                                                    
                                                                                                    
                                                                                                    
                                                                                                    
                                                                                                    
                                                                                                    
                                                                                                    
                                                                                                    
                                                                                                    
                                                                                                    
                                                                                                    
                                                                                                    
                                                                                                    
                                                                                                    
                                                                                                    
                                                                                                    
                                                                                                    
                                                                                                    
                                                                                                    
                                                                                                    
                           
<?xpacket end="w"?></metadata>
<defs>
    <style>
      .cls-1 {
        fill: #f5f5f5;
      }

      .cls-2 {
        fill: #5eb3bf;
        fill-rule: evenodd;
      }
    </style>
  </defs>
  <circle class="cls-1" cx="60" cy="60" r="60"/>
  <path id="_" data-name="" class="cls-2" d="M60,36.723a23.25,23.25,0,1,0,23.25,23.25A23.254,23.254,0,0,0,60,36.723Zm0,10.313a3.938,3.938,0,1,1-3.937,3.938A3.937,3.937,0,0,1,60,47.035Zm5.25,23.813a1.125,1.125,0,0,1-1.125,1.125h-8.25a1.125,1.125,0,0,1-1.125-1.125V68.6a1.125,1.125,0,0,1,1.125-1.125H57v-6H55.875a1.125,1.125,0,0,1-1.125-1.125V58.1a1.125,1.125,0,0,1,1.125-1.125h6A1.125,1.125,0,0,1,63,58.1v9.375h1.125A1.125,1.125,0,0,1,65.25,68.6v2.25Z"/>
</svg>
