<svg id="option" xmlns="http://www.w3.org/2000/svg" width="120" height="120" viewBox="0 0 120 120">
  <metadata><?xpacket begin="﻿" id="W5M0MpCehiHzreSzNTczkc9d"?>
<x:xmpmeta xmlns:x="adobe:ns:meta/" x:xmptk="Adobe XMP Core 5.6-c138 79.159824, 2016/09/14-01:09:01        ">
   <rdf:RDF xmlns:rdf="http://www.w3.org/1999/02/22-rdf-syntax-ns#">
      <rdf:Description rdf:about=""/>
   </rdf:RDF>
</x:xmpmeta>
                                                                                                    
                                                                                                    
                                                                                                    
                                                                                                    
                                                                                                    
                                                                                                    
                                                                                                    
                                                                                                    
                                                                                                    
                                                                                                    
                                                                                                    
                                                                                                    
                                                                                                    
                                                                                                    
                                                                                                    
                                                                                                    
                                                                                                    
                                                                                                    
                                                                                                    
                                                                                                    
                           
<?xpacket end="w"?></metadata>
<defs>
    <style>
      .cls-1 {
        fill: #d35151;
      }

      .cls-2 {
        fill: #fff;
        fill-rule: evenodd;
      }
    </style>
  </defs>
  <circle class="cls-1" cx="60" cy="60" r="60"/>
  <path id="_" data-name="" class="cls-2" d="M66.255,59.973l9.382-9.382a2.949,2.949,0,0,0,0-4.17l-2.085-2.085a2.949,2.949,0,0,0-4.17,0L60,53.718l-9.382-9.382a2.949,2.949,0,0,0-4.17,0l-2.085,2.085a2.949,2.949,0,0,0,0,4.17l9.382,9.382-9.382,9.382a2.949,2.949,0,0,0,0,4.17l2.085,2.085a2.949,2.949,0,0,0,4.17,0L60,66.228l9.382,9.382a2.949,2.949,0,0,0,4.17,0l2.085-2.085a2.949,2.949,0,0,0,0-4.17Z"/>
</svg>
