<svg id="option" xmlns="http://www.w3.org/2000/svg" width="120" height="125" viewBox="0 0 120 125">
  <metadata><?xpacket begin="﻿" id="W5M0MpCehiHzreSzNTczkc9d"?>
<x:xmpmeta xmlns:x="adobe:ns:meta/" x:xmptk="Adobe XMP Core 5.6-c138 79.159824, 2016/09/14-01:09:01        ">
   <rdf:RDF xmlns:rdf="http://www.w3.org/1999/02/22-rdf-syntax-ns#">
      <rdf:Description rdf:about=""/>
   </rdf:RDF>
</x:xmpmeta>
                                                                                                    
                                                                                                    
                                                                                                    
                                                                                                    
                                                                                                    
                                                                                                    
                                                                                                    
                                                                                                    
                                                                                                    
                                                                                                    
                                                                                                    
                                                                                                    
                                                                                                    
                                                                                                    
                                                                                                    
                                                                                                    
                                                                                                    
                                                                                                    
                                                                                                    
                                                                                                    
                           
<?xpacket end="w"?></metadata>
<defs>
    <style>
      .cls-1 {
        fill: #f5f5f5;
      }

      .cls-2 {
        fill-rule: evenodd;
      }
    </style>
  </defs>
  <circle class="cls-1" cx="60" cy="65" r="60"/>
  <path id="Shape_1625_copy_3" data-name="Shape 1625 copy 3" class="cls-2" d="M48.837,75.207h-2.37c-12.13,0,7.238,0-4.893,0a3.19,3.19,0,0,1-1.7-.106,3.727,3.727,0,0,1-1.518-2.142c-0.021-.577,1.006-1.3,1.7-1.752a3.219,3.219,0,0,1,1.547-.072c13.413,0-4.672.047,8.74-.043,2.614-.017,4.209.925,2.849,4.1a56.608,56.608,0,0,0-2.913,8,10.1,10.1,0,0,0,4.939,11.285A10.479,10.479,0,0,0,69.785,80.635c-0.951-1.921-1.869-3.867-2.652-5.86-0.985-2.509-.165-3.69,2.5-3.693,13.938-.016-3.622-0.01,10.316,0a2.556,2.556,0,0,1,1.515.22,3.433,3.433,0,0,1,1.3,1.962A2.758,2.758,0,0,1,81.4,75a3.792,3.792,0,0,1-1.874.185C67.222,75.2,86.415,75.2,74.11,75.2H71.672c0.67,1.384,1.182,2.464,1.713,3.533A14.548,14.548,0,0,1,62.151,99.867c-10.571,1.429-19.2-9.443-15.414-19.425C47.371,78.771,48.066,77.124,48.837,75.207ZM99.3,0C95.688,3.07,91.142,6.482,87.142,10.445,78.033,19.467,72.183,30.48,68.486,42.689a107.447,107.447,0,0,0-4.515,29.046,22.346,22.346,0,0,0,2.566,11.093,6.7,6.7,0,0,1-1.758,8.361,6.834,6.834,0,0,1-8.267.418A6.632,6.632,0,0,1,54.054,83.3c2.132-4.654,2.51-9.629,3.107-14.6C59,53.384,63.489,38.956,71.723,25.8A73.754,73.754,0,0,1,87.541,7.789C91.422,4.607,95.516,1.616,99.3,0Z"/>
</svg>
