<svg id="option" xmlns="http://www.w3.org/2000/svg" width="120" height="125" viewBox="0 0 120 125">
  <metadata><?xpacket begin="﻿" id="W5M0MpCehiHzreSzNTczkc9d"?>
<x:xmpmeta xmlns:x="adobe:ns:meta/" x:xmptk="Adobe XMP Core 5.6-c138 79.159824, 2016/09/14-01:09:01        ">
   <rdf:RDF xmlns:rdf="http://www.w3.org/1999/02/22-rdf-syntax-ns#">
      <rdf:Description rdf:about=""/>
   </rdf:RDF>
</x:xmpmeta>
                                                                                                    
                                                                                                    
                                                                                                    
                                                                                                    
                                                                                                    
                                                                                                    
                                                                                                    
                                                                                                    
                                                                                                    
                                                                                                    
                                                                                                    
                                                                                                    
                                                                                                    
                                                                                                    
                                                                                                    
                                                                                                    
                                                                                                    
                                                                                                    
                                                                                                    
                                                                                                    
                           
<?xpacket end="w"?></metadata>
<defs>
    <style>
      .cls-1 {
        fill: #f5f5f5;
      }

      .cls-2 {
        fill: #804308;
        fill-rule: evenodd;
      }
    </style>
  </defs>
  <circle class="cls-1" cx="60" cy="65" r="60"/>
  <path id="Shape_1625_copy" data-name="Shape 1625 copy" class="cls-2" d="M48.192,75.207h-2.37c-12.131,0,7.237,0-4.893,0a3.192,3.192,0,0,1-1.705-.106,3.729,3.729,0,0,1-1.518-2.142c-0.02-.577,1.007-1.3,1.7-1.752a3.218,3.218,0,0,1,1.546-.072c13.413,0-4.672.047,8.74-.043,2.613-.017,4.209.925,2.85,4.1a56.6,56.6,0,0,0-2.913,8,10.1,10.1,0,0,0,4.939,11.285A10.479,10.479,0,0,0,69.139,80.635c-0.951-1.921-1.869-3.867-2.652-5.86-0.985-2.509-.164-3.69,2.5-3.693,13.939-.016-3.622-0.01,10.316,0a2.557,2.557,0,0,1,1.515.22,3.431,3.431,0,0,1,1.3,1.962A2.755,2.755,0,0,1,80.756,75a3.794,3.794,0,0,1-1.874.185C66.576,75.2,85.77,75.2,73.464,75.2H71.027c0.67,1.384,1.181,2.464,1.713,3.533A14.548,14.548,0,0,1,61.506,99.867C50.934,101.3,42.3,90.425,46.092,80.442,46.726,78.771,47.421,77.124,48.192,75.207ZM98.651,0C95.043,3.07,90.5,6.482,86.5,10.445,77.388,19.467,71.537,30.48,67.84,42.689a107.462,107.462,0,0,0-4.515,29.046,22.356,22.356,0,0,0,2.566,11.093,6.7,6.7,0,0,1-1.758,8.361,6.834,6.834,0,0,1-8.267.418A6.633,6.633,0,0,1,53.409,83.3c2.133-4.654,2.511-9.629,3.107-14.6,1.838-15.314,6.328-29.742,14.562-42.9A73.741,73.741,0,0,1,86.9,7.789C90.776,4.607,94.871,1.616,98.651,0Z"/>
</svg>
