<svg id="option" xmlns="http://www.w3.org/2000/svg" width="120" height="125" viewBox="0 0 120 125">
  <metadata><?xpacket begin="﻿" id="W5M0MpCehiHzreSzNTczkc9d"?>
<x:xmpmeta xmlns:x="adobe:ns:meta/" x:xmptk="Adobe XMP Core 5.6-c138 79.159824, 2016/09/14-01:09:01        ">
   <rdf:RDF xmlns:rdf="http://www.w3.org/1999/02/22-rdf-syntax-ns#">
      <rdf:Description rdf:about=""/>
   </rdf:RDF>
</x:xmpmeta>
                                                                                                    
                                                                                                    
                                                                                                    
                                                                                                    
                                                                                                    
                                                                                                    
                                                                                                    
                                                                                                    
                                                                                                    
                                                                                                    
                                                                                                    
                                                                                                    
                                                                                                    
                                                                                                    
                                                                                                    
                                                                                                    
                                                                                                    
                                                                                                    
                                                                                                    
                                                                                                    
                           
<?xpacket end="w"?></metadata>
<defs>
    <style>
      .cls-1 {
        fill: #f5f5f5;
      }

      .cls-2 {
        fill: #ffd86e;
        fill-rule: evenodd;
      }
    </style>
  </defs>
  <circle class="cls-1" cx="60" cy="65" r="60"/>
  <path class="cls-2" d="M48.015,75.207h-2.37c-12.131,0,7.238,0-4.893,0a3.192,3.192,0,0,1-1.705-.106,3.728,3.728,0,0,1-1.518-2.142c-0.021-.577,1.006-1.3,1.7-1.752a3.218,3.218,0,0,1,1.546-.072c13.413,0-4.672.047,8.74-.043,2.614-.017,4.209.925,2.85,4.1a56.6,56.6,0,0,0-2.914,8A10.1,10.1,0,0,0,54.39,94.474,10.48,10.48,0,0,0,68.962,80.635c-0.951-1.921-1.869-3.867-2.652-5.86-0.985-2.509-.165-3.69,2.5-3.693,13.938-.016-3.622-0.01,10.316,0a2.557,2.557,0,0,1,1.515.22,3.433,3.433,0,0,1,1.3,1.962A2.758,2.758,0,0,1,80.578,75a3.793,3.793,0,0,1-1.874.185C66.4,75.2,85.592,75.2,73.287,75.2H70.85c0.67,1.384,1.181,2.464,1.713,3.533A14.548,14.548,0,0,1,61.328,99.867c-10.571,1.429-19.2-9.443-15.414-19.425C46.549,78.771,47.244,77.124,48.015,75.207ZM98.473,0C94.866,3.07,90.32,6.482,86.319,10.445,77.21,19.467,71.36,30.48,67.663,42.689a107.463,107.463,0,0,0-4.516,29.046,22.356,22.356,0,0,0,2.566,11.093,6.7,6.7,0,0,1-1.757,8.361,6.835,6.835,0,0,1-8.267.418A6.633,6.633,0,0,1,53.231,83.3c2.133-4.654,2.511-9.629,3.107-14.6C58.177,53.384,62.666,38.956,70.9,25.8A73.743,73.743,0,0,1,86.719,7.789C90.6,4.607,94.693,1.616,98.473,0Z"/>
</svg>
