<svg id="option" xmlns="http://www.w3.org/2000/svg" width="120" height="120" viewBox="0 0 120 120">
  <metadata><?xpacket begin="﻿" id="W5M0MpCehiHzreSzNTczkc9d"?>
<x:xmpmeta xmlns:x="adobe:ns:meta/" x:xmptk="Adobe XMP Core 5.6-c138 79.159824, 2016/09/14-01:09:01        ">
   <rdf:RDF xmlns:rdf="http://www.w3.org/1999/02/22-rdf-syntax-ns#">
      <rdf:Description rdf:about=""/>
   </rdf:RDF>
</x:xmpmeta>
                                                                                                    
                                                                                                    
                                                                                                    
                                                                                                    
                                                                                                    
                                                                                                    
                                                                                                    
                                                                                                    
                                                                                                    
                                                                                                    
                                                                                                    
                                                                                                    
                                                                                                    
                                                                                                    
                                                                                                    
                                                                                                    
                                                                                                    
                                                                                                    
                                                                                                    
                                                                                                    
                           
<?xpacket end="w"?></metadata>
<defs>
    <style>
      .cls-1 {
        fill: #f5f5f5;
      }

      .cls-2 {
        fill: #ccc;
      }

      .cls-2, .cls-3 {
        fill-rule: evenodd;
      }

      .cls-3 {
        fill: #5eb3bf;
      }
    </style>
  </defs>
  <circle class="cls-1" cx="60" cy="60" r="60"/>
  <path class="cls-2" d="M83,40a5,5,0,1,1-5,5A5,5,0,0,1,83,40ZM38,55a5,5,0,1,1-5,5A5,5,0,0,1,38,55Zm15,0a5,5,0,1,1-5,5A5,5,0,0,1,53,55Zm15,0a5,5,0,1,1-5,5A5,5,0,0,1,68,55Zm15,0a5,5,0,1,1-5,5A5,5,0,0,1,83,55ZM38,70a5,5,0,1,1-5,5A5,5,0,0,1,38,70Zm15,0a5,5,0,1,1-5,5A5,5,0,0,1,53,70Zm15,0a5,5,0,1,1-5,5A5,5,0,0,1,68,70Zm15,0a5,5,0,1,1-5,5A5,5,0,0,1,83,70Z"/>
  <path class="cls-3" d="M38,40a5,5,0,1,1-5,5A5,5,0,0,1,38,40Zm15,0a5,5,0,1,1-5,5A5,5,0,0,1,53,40Zm15,0a5,5,0,1,1-5,5A5,5,0,0,1,68,40Z"/>
</svg>
