<svg id="head_copy_25" data-name="head copy 25" xmlns="http://www.w3.org/2000/svg" width="63" height="71" viewBox="0 0 63 71">
  <metadata><?xpacket begin="﻿" id="W5M0MpCehiHzreSzNTczkc9d"?>
<x:xmpmeta xmlns:x="adobe:ns:meta/" x:xmptk="Adobe XMP Core 5.6-c138 79.159824, 2016/09/14-01:09:01        ">
   <rdf:RDF xmlns:rdf="http://www.w3.org/1999/02/22-rdf-syntax-ns#">
      <rdf:Description rdf:about=""/>
   </rdf:RDF>
</x:xmpmeta>
                                                                                                    
                                                                                                    
                                                                                                    
                                                                                                    
                                                                                                    
                                                                                                    
                                                                                                    
                                                                                                    
                                                                                                    
                                                                                                    
                                                                                                    
                                                                                                    
                                                                                                    
                                                                                                    
                                                                                                    
                                                                                                    
                                                                                                    
                                                                                                    
                                                                                                    
                                                                                                    
                           
<?xpacket end="w"?></metadata>
<defs>
    <style>
      .cls-1 {
        fill: #f9a17b;
      }

      .cls-1, .cls-2, .cls-3 {
        fill-rule: evenodd;
      }

      .cls-2 {
        fill: #bc7c60;
      }

      .cls-3 {
        fill: #934b06;
      }
    </style>
  </defs>
  <path class="cls-1" d="M55.4,42.5C53.049,62.72,41.968,67.08,35.754,67.914a3.919,3.919,0,0,1-7.636.1C22.128,67.47,10.052,63.705,7.6,42.5c0,0-6.579-35.488,23.843-35.488C62,7.012,55.4,42.5,55.4,42.5Z"/>
  <path class="cls-2" d="M16,55H26s1.3,2.487,2,4H27l-2-2H16S15.072,55.45,16,55Zm31.607,0H37.935S36.678,57.487,36,59h0.967L38.9,57h8.705S48.5,55.45,47.607,55Z"/>
  <path class="cls-3" d="M49,48s3.8,16.216,5,18c0,0,6.378-22.889,9.938-31.4,0,0,1.99-41.076-31.935-33.555V0.894C-1.961-6.683.031,34.522,0.031,34.522,3.591,43.056,9.969,66,9.969,66c1.2-1.789,5-18.043,5-18.043a94.7,94.7,0,0,0,17-7.017A93.538,93.538,0,0,0,49,48Z"/>
  <path id="Ellipse_1953_copy" data-name="Ellipse 1953 copy" class="cls-1" d="M31.5,4C37.851,4,43,16.318,43,27.813S37.851,40,31.5,40,20,39.307,20,27.813,25.149,4,31.5,4Z"/>
</svg>
