<svg id="option" xmlns="http://www.w3.org/2000/svg" width="120" height="125" viewBox="0 0 120 125">
  <metadata><?xpacket begin="﻿" id="W5M0MpCehiHzreSzNTczkc9d"?>
<x:xmpmeta xmlns:x="adobe:ns:meta/" x:xmptk="Adobe XMP Core 5.6-c138 79.159824, 2016/09/14-01:09:01        ">
   <rdf:RDF xmlns:rdf="http://www.w3.org/1999/02/22-rdf-syntax-ns#">
      <rdf:Description rdf:about=""/>
   </rdf:RDF>
</x:xmpmeta>
                                                                                                    
                                                                                                    
                                                                                                    
                                                                                                    
                                                                                                    
                                                                                                    
                                                                                                    
                                                                                                    
                                                                                                    
                                                                                                    
                                                                                                    
                                                                                                    
                                                                                                    
                                                                                                    
                                                                                                    
                                                                                                    
                                                                                                    
                                                                                                    
                                                                                                    
                                                                                                    
                           
<?xpacket end="w"?></metadata>
<defs>
    <style>
      .cls-1 {
        fill: #f5f5f5;
      }

      .cls-2 {
        fill: #a11610;
        fill-rule: evenodd;
      }
    </style>
  </defs>
  <circle class="cls-1" cx="60" cy="65" r="60"/>
  <path id="Shape_1625_copy_2" data-name="Shape 1625 copy 2" class="cls-2" d="M48.015,75.207h-2.37c-12.13,0,7.238,0-4.892,0a3.191,3.191,0,0,1-1.705-.106,3.727,3.727,0,0,1-1.518-2.142c-0.021-.577,1.006-1.3,1.7-1.752a3.22,3.22,0,0,1,1.547-.072c13.413,0-4.672.047,8.74-.043,2.614-.017,4.209.925,2.849,4.1a56.721,56.721,0,0,0-2.913,8A10.1,10.1,0,0,0,54.39,94.474,10.479,10.479,0,0,0,68.962,80.635c-0.951-1.921-1.869-3.867-2.652-5.86-0.985-2.509-.164-3.69,2.5-3.693,13.938-.016-3.622-0.01,10.316,0a2.555,2.555,0,0,1,1.515.22,3.428,3.428,0,0,1,1.3,1.962A2.758,2.758,0,0,1,80.578,75a3.792,3.792,0,0,1-1.874.185C66.4,75.2,85.592,75.2,73.287,75.2H70.85c0.67,1.384,1.182,2.464,1.713,3.533A14.549,14.549,0,0,1,61.328,99.867c-10.571,1.429-19.2-9.443-15.413-19.425C46.549,78.771,47.243,77.124,48.015,75.207ZM98.473,0C94.866,3.07,90.319,6.482,86.319,10.445,77.21,19.467,71.36,30.48,67.663,42.689a107.447,107.447,0,0,0-4.515,29.046,22.357,22.357,0,0,0,2.566,11.093,6.7,6.7,0,0,1-1.758,8.361,6.834,6.834,0,0,1-8.267.418A6.633,6.633,0,0,1,53.232,83.3c2.132-4.654,2.51-9.629,3.107-14.6C58.176,53.384,62.666,38.956,70.9,25.8A73.755,73.755,0,0,1,86.719,7.789C90.6,4.607,94.693,1.616,98.473,0Z"/>
</svg>
