<svg id="upload" xmlns="http://www.w3.org/2000/svg" width="120" height="122" viewBox="0 0 120 122">
  <metadata><?xpacket begin="﻿" id="W5M0MpCehiHzreSzNTczkc9d"?>
<x:xmpmeta xmlns:x="adobe:ns:meta/" x:xmptk="Adobe XMP Core 5.6-c138 79.159824, 2016/09/14-01:09:01        ">
   <rdf:RDF xmlns:rdf="http://www.w3.org/1999/02/22-rdf-syntax-ns#">
      <rdf:Description rdf:about=""/>
   </rdf:RDF>
</x:xmpmeta>
                                                                                                    
                                                                                                    
                                                                                                    
                                                                                                    
                                                                                                    
                                                                                                    
                                                                                                    
                                                                                                    
                                                                                                    
                                                                                                    
                                                                                                    
                                                                                                    
                                                                                                    
                                                                                                    
                                                                                                    
                                                                                                    
                                                                                                    
                                                                                                    
                                                                                                    
                                                                                                    
                           
<?xpacket end="w"?></metadata>
<defs>
    <style>
      .cls-1 {
        fill: #f5f5f5;
      }

      .cls-2 {
        fill: #f9a17b;
      }

      .cls-2, .cls-3, .cls-4 {
        fill-rule: evenodd;
      }

      .cls-3 {
        fill: #804308;
      }

      .cls-4 {
        fill: #e28e69;
      }
    </style>
  </defs>
  <circle class="cls-1" cx="60" cy="62" r="60"/>
  <g id="head_copy_5" data-name="head copy 5">
    <path class="cls-2" d="M83.326,115.05S78.19,102.687,80,98.532c0,0,16.181,2.705,19.928-1.1,0,0,2.227-7.3,1.107-12.114a5.009,5.009,0,0,0,1.108-3.3c0.051-2.237,2.214-5.506,2.214-5.506V73.2s6.56-1.039,5.535-6.607c-0.678-1.434-8.732-11.377-7.749-13.215a11.277,11.277,0,0,0,1.107-12.114c-0.443-1.462-2.543-9.5-2.215-14.316C99.833,26.259,79.823-8.871,35.72,13.736c0,0-30.241,10.1-7.75,59.467,0,0,16.854,20.222,8.029,43.8,0,0,32.482,8.585,49,0Z"/>
    <path class="cls-3" d="M89.968,24.748s6.81,3.425,11.071,1.1c0,0,3.85-3.543-4.428-13.215,0,0-49.206-32.5-75.283,11.013,0,0-13.951,22.99,3.321,51.759,0,0,11,9.018,10.351,11.594,0,0,14.487-7.08,12-20,0,0-3.232-32.643,18.612-19.126l1.107,9.911s4.783,3.762,7.75,3.3c0,0-.646-10.273,3.321-15.417,0,0,10.831-5.173,12.178-7.709C89.968,37.963,73.884,23.1,89.968,24.748Z"/>
    <path id="shape_copy_14" data-name="shape copy 14" class="cls-4" d="M55,62s-3.381-17.2,6-13c0,0,.042,4.971,3,8l3,18S59.3,78.13,55,62Z"/>
  </g>
</svg>
