<svg id="upload" xmlns="http://www.w3.org/2000/svg" width="120" height="122" viewBox="0 0 120 122">
  <metadata><?xpacket begin="﻿" id="W5M0MpCehiHzreSzNTczkc9d"?>
<x:xmpmeta xmlns:x="adobe:ns:meta/" x:xmptk="Adobe XMP Core 5.6-c138 79.159824, 2016/09/14-01:09:01        ">
   <rdf:RDF xmlns:rdf="http://www.w3.org/1999/02/22-rdf-syntax-ns#">
      <rdf:Description rdf:about=""/>
   </rdf:RDF>
</x:xmpmeta>
                                                                                                    
                                                                                                    
                                                                                                    
                                                                                                    
                                                                                                    
                                                                                                    
                                                                                                    
                                                                                                    
                                                                                                    
                                                                                                    
                                                                                                    
                                                                                                    
                                                                                                    
                                                                                                    
                                                                                                    
                                                                                                    
                                                                                                    
                                                                                                    
                                                                                                    
                                                                                                    
                           
<?xpacket end="w"?></metadata>
<defs>
    <style>
      .cls-1 {
        fill: #f5f5f5;
      }

      .cls-2 {
        fill: #f9a17b;
      }

      .cls-2, .cls-3, .cls-4 {
        fill-rule: evenodd;
      }

      .cls-3 {
        fill: #eb9874;
      }

      .cls-4 {
        fill: #804308;
      }
    </style>
  </defs>
  <circle class="cls-1" cx="60" cy="62" r="60"/>
  <g id="head_copy_5" data-name="head copy 5">
    <path id="shape_copy_13" data-name="shape copy 13" class="cls-2" d="M37.755,117.723L37,117c6.3-5.752,6-21,6-21H77s-0.3,15.248,6,21l-0.755.723A59.985,59.985,0,0,1,37.755,117.723Z"/>
    <path id="shape" class="cls-3" d="M60,96H77a50.747,50.747,0,0,0,1.685,13.106C69.58,117.5,60,117,60,117s-9.583.5-18.667-7.957A50.842,50.842,0,0,0,43,96H60Z"/>
    <path id="shape-2" data-name="shape" class="cls-2" d="M94.153,63C89.445,110.571,60,109,60,109s-29.314,1.571-34-46c0,0-9.381-58,34-58C103.576,5,94.153,63,94.153,63Z"/>
    <path class="cls-4" d="M33,32s-2.178,5-4,28c0,0-1.92,8.595-4,3,0,0-1.6-6.91-3-7,0,0-2.953-47.8,20-50C43.68,6.014,64.688-9.607,83,10c0,0,20.556,3.656,13,54,0,0-4.638,4.391-5-2,0,0-.81-24.113-3-31,0,0-4.9-18.184-14-17,0,0-2.534,13.934-13,14,0,0-10.141-1.719-13-14C48,14,36.758,12.2,33,32Z"/>
    <path id="shape-3" data-name="shape" class="cls-2" d="M102.387,68.7C97.95,84.89,90,81.749,90,81.749l3.1-18.063c3.053-3.04,3.1-8.028,3.1-8.028C105.878,51.448,102.387,68.7,102.387,68.7ZM18,69s-3.381-17.2,6-13c0,0,.042,4.971,3,8l3,18S22.3,85.13,18,69Z"/>
  </g>
</svg>
