<svg id="upload" xmlns="http://www.w3.org/2000/svg" width="120" height="122" viewBox="0 0 120 122">
  <metadata><?xpacket begin="﻿" id="W5M0MpCehiHzreSzNTczkc9d"?>
<x:xmpmeta xmlns:x="adobe:ns:meta/" x:xmptk="Adobe XMP Core 5.6-c138 79.159824, 2016/09/14-01:09:01        ">
   <rdf:RDF xmlns:rdf="http://www.w3.org/1999/02/22-rdf-syntax-ns#">
      <rdf:Description rdf:about=""/>
   </rdf:RDF>
</x:xmpmeta>
                                                                                                    
                                                                                                    
                                                                                                    
                                                                                                    
                                                                                                    
                                                                                                    
                                                                                                    
                                                                                                    
                                                                                                    
                                                                                                    
                                                                                                    
                                                                                                    
                                                                                                    
                                                                                                    
                                                                                                    
                                                                                                    
                                                                                                    
                                                                                                    
                                                                                                    
                                                                                                    
                           
<?xpacket end="w"?></metadata>
<defs>
    <style>
      .cls-1 {
        fill: #f5f5f5;
      }

      .cls-2 {
        fill: #f9a17b;
      }

      .cls-2, .cls-3 {
        fill-rule: evenodd;
      }

      .cls-3 {
        fill: #804308;
      }
    </style>
  </defs>
  <circle class="cls-1" cx="60" cy="62" r="60"/>
  <g id="head_copy_6" data-name="head copy 6">
    <path id="shape_copy_13" data-name="shape copy 13" class="cls-2" d="M37.756,117.723L37,117c6.3-5.752,6-21,6-21H77s-0.3,15.248,6,21l-0.755.723A59.985,59.985,0,0,1,37.756,117.723Z"/>
    <path id="shape" class="cls-2" d="M94.152,63C89.445,110.571,60,109,60,109s-29.314,1.571-34-46c0,0-9.381-58,34-58C103.576,5,94.152,63,94.152,63Z"/>
    <path id="shape-2" data-name="shape" class="cls-2" d="M102.387,68.7C97.95,84.89,90,81.749,90,81.749l3.1-18.063c3.053-3.04,3.1-8.028,3.1-8.028C105.878,51.448,102.387,68.7,102.387,68.7ZM18,69s-3.381-17.2,6-13c0,0,.042,4.971,3,8l3,18S22.3,85.13,18,69Z"/>
    <path class="cls-3" d="M94.867,62.544s1.6-6.874,3.008-6.963c0,0,2.959-47.553-20.05-49.737-1.685.014-22.744-15.525-41.1,3.979,0,0-20.607,3.637-13.032,53.716,0,0,5.729,15.449,9.308,20.461,4.525,6.337,10.535,18,27,18,1.1-.116,12.639,3.517,25-16l5-6A69.531,69.531,0,0,0,94.867,62.544Z"/>
  </g>
</svg>
