<svg id="upload" xmlns="http://www.w3.org/2000/svg" width="120" height="122" viewBox="0 0 120 122">
  <metadata><?xpacket begin="﻿" id="W5M0MpCehiHzreSzNTczkc9d"?>
<x:xmpmeta xmlns:x="adobe:ns:meta/" x:xmptk="Adobe XMP Core 5.6-c138 79.159824, 2016/09/14-01:09:01        ">
   <rdf:RDF xmlns:rdf="http://www.w3.org/1999/02/22-rdf-syntax-ns#">
      <rdf:Description rdf:about=""/>
   </rdf:RDF>
</x:xmpmeta>
                                                                                                    
                                                                                                    
                                                                                                    
                                                                                                    
                                                                                                    
                                                                                                    
                                                                                                    
                                                                                                    
                                                                                                    
                                                                                                    
                                                                                                    
                                                                                                    
                                                                                                    
                                                                                                    
                                                                                                    
                                                                                                    
                                                                                                    
                                                                                                    
                                                                                                    
                                                                                                    
                           
<?xpacket end="w"?></metadata>
<defs>
    <style>
      .cls-1 {
        fill: #f5f5f5;
      }

      .cls-2 {
        fill: #f9a17b;
      }

      .cls-2, .cls-3 {
        fill-rule: evenodd;
      }

      .cls-3 {
        fill: #804308;
      }
    </style>
  </defs>
  <circle class="cls-1" cx="60" cy="62" r="60"/>
  <g id="head_copy_7" data-name="head copy 7">
    <path id="shape" class="cls-2" d="M94.151,67.942C89.433,103.163,59.922,102,59.922,102s-29.379,1.163-34.076-34.058c0,0-9.4-43.942,34.076-43.942C103.6,24,94.151,67.942,94.151,67.942Z"/>
    <path id="shape-2" data-name="shape" class="cls-2" d="M102.384,59.559c-4.458,10.086-12.446,8.129-12.446,8.129L93.05,56.432a6.408,6.408,0,0,0,3.111-5C105.891,48.806,102.384,59.559,102.384,59.559ZM17.6,59.743s-3.4-10.716,6.028-8.1a6.435,6.435,0,0,0,3.014,4.985l3.014,11.217S21.915,69.794,17.6,59.743Z"/>
    <path class="cls-3" d="M33,81c3.758-19.8,15-18,15-18,2.859,12.281,13,14,13,14,10.466-.066,13-14,13-14,9.1-1.184,14,17,14,17s2.5,2.436,6-12c0.134-1.423-1.544-6.5,1-14S89.726,23.681,74,23c0,0-16.539-5.418-28,0,0,0-20.175-2.3-22,29,0,0,4.062,10.069,2,15C26,67,26.285,81.794,33,81Z"/>
  </g>
</svg>
